<ttFont>
<head>
    <!-- Most of this table will be recalculated by the compiler -->
    <tableVersion value="1.0"/>
    <fontRevision value="2.002"/>
    <checkSumAdjustment value="0xe4f54202"/>
    <magicNumber value="0x5f0f3cf5"/>
    <flags value="00000000 00000011"/>
    <unitsPerEm value="1000"/>
    <created value="Tue Aug 15 17:34:23 2023"/>
    <modified value="Tue Sep 12 08:13:04 2023"/>
    <xMin value="-997"/>
    <yMin value="-1049"/>
    <xMax value="2929"/>
    <yMax value="1809"/>
    <macStyle value="00000000 00000000"/>
    <lowestRecPPEM value="6"/>
    <fontDirectionHint value="2"/>
    <indexToLocFormat value="0"/>
    <glyphDataFormat value="0"/>
  </head>
    <TTGlyph name="uni4E2A" xMin="34" yMin="-80" xMax="964" yMax="837">
      <contour>
        <pt x="508" y="777" on="1" overlap="1"/>
        <pt x="475" y="721" on="0"/>
        <pt x="377" y="602" on="0"/>
        <pt x="256" y="487" on="0"/>
        <pt x="117" y="386" on="0"/>
        <pt x="42" y="348" on="1"/>
        <pt x="34" y="363" on="1"/>
        <pt x="101" y="407" on="0"/>
        <pt x="230" y="522" on="0"/>
        <pt x="342" y="649" on="0"/>
        <pt x="428" y="778" on="0"/>
        <pt x="452" y="837" on="1"/>
        <pt x="566" y="809" on="1"/>
        <pt x="564" y="800" on="0"/>
        <pt x="546" y="791" on="0"/>
        <pt x="526" y="789" on="1"/>
        <pt x="575" y="719" on="0"/>
        <pt x="708" y="589" on="0"/>
        <pt x="872" y="480" on="0"/>
        <pt x="964" y="440" on="1"/>
        <pt x="962" y="426" on="1"/>
        <pt x="940" y="420" on="0"/>
        <pt x="910" y="388" on="0"/>
        <pt x="904" y="368" on="1"/>
        <pt x="773" y="444" on="0"/>
        <pt x="568" y="655" on="0"/>
      </contour>
      <contour>
        <pt x="567" y="549" on="1"/>
        <pt x="565" y="539" on="0"/>
        <pt x="549" y="524" on="0"/>
        <pt x="530" y="522" on="1"/>
        <pt x="530" y="-57" on="1"/>
        <pt x="530" y="-61" on="0"/>
        <pt x="514" y="-72" on="0"/>
        <pt x="488" y="-80" on="0"/>
        <pt x="475" y="-80" on="1"/>
        <pt x="462" y="-80" on="1"/>
        <pt x="462" y="560" on="1"/>
      </contour>
    </TTGlyph>
    <TTGlyph name="uni4E3B" xMin="42" yMin="-35" xMax="961" yMax="837">
      <contour>
        <pt x="109" y="605" on="1" overlap="1"/>
        <pt x="769" y="605" on="1"/>
        <pt x="820" y="669" on="1"/>
        <pt x="820" y="669" on="0"/>
        <pt x="840" y="654" on="0"/>
        <pt x="869" y="631" on="0"/>
        <pt x="901" y="603" on="0"/>
        <pt x="915" y="591" on="1"/>
        <pt x="911" y="575" on="0"/>
        <pt x="889" y="575" on="1"/>
        <pt x="118" y="575" on="1"/>
      </contour>
      <contour>
        <pt x="151" y="318" on="1"/>
        <pt x="729" y="318" on="1"/>
        <pt x="779" y="380" on="1"/>
        <pt x="779" y="380" on="0"/>
        <pt x="798" y="366" on="0"/>
        <pt x="826" y="343" on="0"/>
        <pt x="857" y="316" on="0"/>
        <pt x="871" y="304" on="1"/>
        <pt x="870" y="297" on="0"/>
        <pt x="855" y="289" on="0"/>
        <pt x="844" y="289" on="1"/>
        <pt x="159" y="289" on="1"/>
      </contour>
      <contour>
        <pt x="42" y="-6" on="1"/>
        <pt x="813" y="-6" on="1"/>
        <pt x="865" y="59" on="1"/>
        <pt x="865" y="59" on="0"/>
        <pt x="884" y="43" on="0"/>
        <pt x="914" y="20" on="0"/>
        <pt x="947" y="-7" on="0"/>
        <pt x="961" y="-20" on="1"/>
        <pt x="957" y="-35" on="0"/>
        <pt x="934" y="-35" on="1"/>
        <pt x="51" y="-35" on="1"/>
      </contour>
      <contour>
        <pt x="465" y="605" on="1"/>
        <pt x="533" y="605" on="1"/>
        <pt x="533" y="-20" on="1"/>
        <pt x="465" y="-20" on="1"/>
      </contour>
      <contour>
        <pt x="352" y="837" on="1"/>
        <pt x="425" y="823" on="0"/>
        <pt x="520" y="780" on="0"/>
        <pt x="573" y="730" on="0"/>
        <pt x="591" y="685" on="0"/>
        <pt x="582" y="651" on="0"/>
        <pt x="553" y="640" on="0"/>
        <pt x="532" y="650" on="1"/>
        <pt x="517" y="681" on="0"/>
        <pt x="453" y="748" on="0"/>
        <pt x="378" y="808" on="0"/>
        <pt x="342" y="827" on="1"/>
      </contour>
    </TTGlyph>
    <TTGlyph name="uni4E8B" xMin="42" yMin="-79" xMax="967" yMax="838">
      <contour>
        <pt x="42" y="253" on="1" overlap="1"/>
        <pt x="839" y="253" on="1"/>
        <pt x="884" y="313" on="1"/>
        <pt x="884" y="313" on="0"/>
        <pt x="912" y="289" on="0"/>
        <pt x="952" y="256" on="0"/>
        <pt x="967" y="240" on="1"/>
        <pt x="964" y="225" on="0"/>
        <pt x="941" y="225" on="1"/>
        <pt x="51" y="225" on="1"/>
      </contour>
      <contour>
        <pt x="44" y="735" on="1"/>
        <pt x="812" y="735" on="1"/>
        <pt x="863" y="797" on="1"/>
        <pt x="863" y="797" on="0"/>
        <pt x="881" y="782" on="0"/>
        <pt x="911" y="760" on="0"/>
        <pt x="942" y="733" on="0"/>
        <pt x="956" y="721" on="1"/>
        <pt x="953" y="705" on="0"/>
        <pt x="929" y="705" on="1"/>
        <pt x="53" y="705" on="1"/>
      </contour>
      <contour>
        <pt x="160" y="375" on="1"/>
        <pt x="783" y="375" on="1"/>
        <pt x="783" y="346" on="1"/>
        <pt x="168" y="346" on="1"/>
      </contour>
      <contour>
        <pt x="154" y="131" on="1"/>
        <pt x="782" y="131" on="1"/>
        <pt x="782" y="102" on="1"/>
        <pt x="163" y="102" on="1"/>
      </contour>
      <contour>
        <pt x="465" y="838" on="1"/>
        <pt x="567" y="827" on="1"/>
        <pt x="565" y="817" on="0"/>
        <pt x="549" y="802" on="0"/>
        <pt x="530" y="800" on="1"/>
        <pt x="530" y="18" on="1"/>
        <pt x="530" y="-8" on="0"/>
        <pt x="515" y="-48" on="0"/>
        <pt x="467" y="-74" on="0"/>
        <pt x="415" y="-79" on="1"/>
        <pt x="412" y="-64" on="0"/>
        <pt x="400" y="-41" on="0"/>
        <pt x="389" y="-33" on="1"/>
        <pt x="375" y="-25" on="0"/>
        <pt x="328" y="-13" on="0"/>
        <pt x="288" y="-9" on="1"/>
        <pt x="288" y="7" on="1"/>
        <pt x="288" y="7" on="0"/>
        <pt x="327" y="5" on="0"/>
        <pt x="380" y="1" on="0"/>
        <pt x="427" y="-2" on="0"/>
        <pt x="436" y="-2" on="1"/>
        <pt x="452" y="-2" on="0"/>
        <pt x="465" y="9" on="0"/>
        <pt x="465" y="22" on="1"/>
      </contour>
      <contour>
        <pt x="183" y="626" on="1"/>
        <pt x="183" y="657" on="1"/>
        <pt x="183" y="657" on="1"/>
        <pt x="254" y="626" on="1"/>
        <pt x="776" y="626" on="1"/>
        <pt x="776" y="597" on="1"/>
        <pt x="249" y="597" on="1"/>
        <pt x="249" y="436" on="1"/>
        <pt x="249" y="433" on="0"/>
        <pt x="232" y="423" on="0"/>
        <pt x="206" y="416" on="0"/>
        <pt x="193" y="416" on="1"/>
        <pt x="183" y="416" on="1"/>
      </contour>
      <contour>
        <pt x="748" y="626" on="1"/>
        <pt x="738" y="626" on="1"/>
        <pt x="774" y="665" on="1"/>
        <pt x="855" y="605" on="1"/>
        <pt x="850" y="599" on="0"/>
        <pt x="828" y="588" on="0"/>
        <pt x="814" y="585" on="1"/>
        <pt x="814" y="453" on="1"/>
        <pt x="814" y="450" on="0"/>
        <pt x="794" y="440" on="0"/>
        <pt x="769" y="433" on="0"/>
        <pt x="758" y="433" on="1"/>
        <pt x="748" y="433" on="1"/>
      </contour>
      <contour>
        <pt x="751" y="375" on="1"/>
        <pt x="742" y="375" on="1"/>
        <pt x="777" y="414" on="1"/>
        <pt x="857" y="354" on="1"/>
        <pt x="852" y="348" on="0"/>
        <pt x="829" y="337" on="0"/>
        <pt x="815" y="334" on="1"/>
        <pt x="815" y="70" on="1"/>
        <pt x="815" y="66" on="0"/>
        <pt x="796" y="55" on="0"/>
        <pt x="772" y="47" on="0"/>
        <pt x="760" y="47" on="1"/>
        <pt x="751" y="47" on="1"/>
      </contour>
      <contour>
        <pt x="220" y="497" on="1"/>
        <pt x="778" y="497" on="1"/>
        <pt x="778" y="468" on="1"/>
        <pt x="220" y="468" on="1"/>
      </contour>
    </TTGlyph>
    <TTGlyph name="uni4E9B" xMin="46" yMin="-37" xMax="951" yMax="837">
      <contour>
        <pt x="814" y="681" on="1" overlap="1"/>
        <pt x="814" y="681" on="0"/>
        <pt x="841" y="657" on="0"/>
        <pt x="879" y="622" on="0"/>
        <pt x="894" y="606" on="1"/>
        <pt x="890" y="590" on="0"/>
        <pt x="867" y="590" on="1"/>
        <pt x="597" y="590" on="1"/>
        <pt x="597" y="620" on="1"/>
        <pt x="769" y="620" on="1"/>
      </contour>
      <contour>
        <pt x="855" y="55" on="1"/>
        <pt x="855" y="55" on="0"/>
        <pt x="874" y="41" on="0"/>
        <pt x="903" y="18" on="0"/>
        <pt x="934" y="-8" on="0"/>
        <pt x="947" y="-21" on="1"/>
        <pt x="943" y="-37" on="0"/>
        <pt x="920" y="-37" on="1"/>
        <pt x="74" y="-37" on="1"/>
        <pt x="65" y="-7" on="1"/>
        <pt x="806" y="-7" on="1"/>
      </contour>
      <contour>
        <pt x="729" y="248" on="1"/>
        <pt x="729" y="248" on="0"/>
        <pt x="747" y="235" on="0"/>
        <pt x="774" y="212" on="0"/>
        <pt x="804" y="187" on="0"/>
        <pt x="816" y="175" on="1"/>
        <pt x="815" y="167" on="0"/>
        <pt x="801" y="159" on="0"/>
        <pt x="790" y="159" on="1"/>
        <pt x="210" y="159" on="1"/>
        <pt x="202" y="189" on="1"/>
        <pt x="681" y="189" on="1"/>
      </contour>
      <contour>
        <pt x="446" y="669" on="1"/>
        <pt x="446" y="669" on="0"/>
        <pt x="472" y="646" on="0"/>
        <pt x="509" y="613" on="0"/>
        <pt x="523" y="597" on="1"/>
        <pt x="519" y="581" on="0"/>
        <pt x="497" y="581" on="1"/>
        <pt x="333" y="581" on="1"/>
        <pt x="333" y="611" on="1"/>
        <pt x="404" y="611" on="1"/>
      </contour>
      <contour>
        <pt x="230" y="709" on="1"/>
        <pt x="229" y="699" on="0"/>
        <pt x="214" y="687" on="0"/>
        <pt x="197" y="685" on="1"/>
        <pt x="197" y="313" on="1"/>
        <pt x="137" y="302" on="1"/>
        <pt x="137" y="719" on="1"/>
      </contour>
      <contour>
        <pt x="403" y="826" on="1"/>
        <pt x="402" y="816" on="0"/>
        <pt x="386" y="802" on="0"/>
        <pt x="367" y="799" on="1"/>
        <pt x="367" y="339" on="1"/>
        <pt x="304" y="329" on="1"/>
        <pt x="304" y="837" on="1"/>
      </contour>
      <contour>
        <pt x="654" y="826" on="1"/>
        <pt x="653" y="817" on="0"/>
        <pt x="638" y="803" on="0"/>
        <pt x="621" y="800" on="1"/>
        <pt x="621" y="377" on="1"/>
        <pt x="621" y="364" on="0"/>
        <pt x="637" y="353" on="0"/>
        <pt x="666" y="353" on="1"/>
        <pt x="763" y="353" on="1"/>
        <pt x="797" y="353" on="0"/>
        <pt x="846" y="354" on="0"/>
        <pt x="857" y="355" on="1"/>
        <pt x="870" y="356" on="0"/>
        <pt x="876" y="367" on="1"/>
        <pt x="882" y="378" on="0"/>
        <pt x="898" y="452" on="0"/>
        <pt x="907" y="494" on="1"/>
        <pt x="919" y="494" on="1"/>
        <pt x="922" y="363" on="1"/>
        <pt x="939" y="357" on="0"/>
        <pt x="951" y="345" on="0"/>
        <pt x="951" y="335" on="1"/>
        <pt x="951" y="320" on="0"/>
        <pt x="921" y="301" on="0"/>
        <pt x="840" y="293" on="0"/>
        <pt x="762" y="293" on="1"/>
        <pt x="656" y="293" on="1"/>
        <pt x="616" y="293" on="0"/>
        <pt x="574" y="306" on="0"/>
        <pt x="558" y="336" on="0"/>
        <pt x="558" y="363" on="1"/>
        <pt x="558" y="837" on="1"/>
      </contour>
      <contour>
        <pt x="46" y="308" on="1"/>
        <pt x="88" y="313" on="0"/>
        <pt x="237" y="339" on="0"/>
        <pt x="425" y="376" on="0"/>
        <pt x="526" y="396" on="1"/>
        <pt x="529" y="379" on="1"/>
        <pt x="455" y="354" on="0"/>
        <pt x="250" y="290" on="0"/>
        <pt x="110" y="251" on="1"/>
        <pt x="103" y="232" on="0"/>
        <pt x="87" y="228" on="1"/>
      </contour>
    </TTGlyph>
    <TTGlyph name="uni4EBA" xMin="41" yMin="-77" xMax="965" yMax="817">
      <contour>
        <pt x="508" y="778" on="1" overlap="1"/>
        <pt x="516" y="640" on="0"/>
        <pt x="564" y="404" on="0"/>
        <pt x="665" y="208" on="0"/>
        <pt x="836" y="50" on="0"/>
        <pt x="965" y="-10" on="1"/>
        <pt x="963" y="-21" on="1"/>
        <pt x="937" y="-24" on="0"/>
        <pt x="900" y="-48" on="0"/>
        <pt x="891" y="-77" on="1"/>
        <pt x="771" y="-10" on="0"/>
        <pt x="619" y="165" on="0"/>
        <pt x="533" y="379" on="0"/>
        <pt x="494" y="632" on="0"/>
        <pt x="489" y="775" on="1"/>
      </contour>
      <contour>
        <pt x="508" y="778" on="1"/>
        <pt x="506" y="706" on="0"/>
        <pt x="499" y="555" on="0"/>
        <pt x="473" y="404" on="0"/>
        <pt x="417" y="254" on="0"/>
        <pt x="320" y="112" on="0"/>
        <pt x="166" y="-19" on="0"/>
        <pt x="55" y="-77" on="1"/>
        <pt x="41" y="-60" on="1"/>
        <pt x="161" y="14" on="0"/>
        <pt x="310" y="179" on="0"/>
        <pt x="394" y="356" on="0"/>
        <pt x="430" y="539" on="0"/>
        <pt x="437" y="726" on="0"/>
        <pt x="437" y="817" on="1"/>
        <pt x="543" y="806" on="1"/>
        <pt x="542" y="795" on="0"/>
        <pt x="527" y="780" on="0"/>
      </contour>
    </TTGlyph>
    <TTGlyph name="uni4ED6" xMin="34" yMin="-76" xMax="962" yMax="838">
      <contour>
        <pt x="822" y="636" on="1" overlap="1"/>
        <pt x="864" y="678" on="1"/>
        <pt x="933" y="605" on="1"/>
        <pt x="927" y="600" on="0"/>
        <pt x="909" y="596" on="0"/>
        <pt x="893" y="594" on="1"/>
        <pt x="883" y="537" on="0"/>
        <pt x="848" y="400" on="0"/>
        <pt x="802" y="264" on="0"/>
        <pt x="775" y="208" on="1"/>
        <pt x="760" y="216" on="1"/>
        <pt x="772" y="262" on="0"/>
        <pt x="794" y="372" on="0"/>
        <pt x="812" y="487" on="0"/>
        <pt x="825" y="594" on="0"/>
        <pt x="828" y="636" on="1"/>
      </contour>
      <contour>
        <pt x="844" y="648" on="1"/>
        <pt x="856" y="620" on="1"/>
        <pt x="295" y="382" on="1"/>
        <pt x="275" y="405" on="1"/>
        <pt x="819" y="637" on="1"/>
      </contour>
      <contour>
        <pt x="491" y="693" on="1"/>
        <pt x="490" y="683" on="0"/>
        <pt x="473" y="669" on="0"/>
        <pt x="456" y="667" on="1"/>
        <pt x="456" y="56" on="1"/>
        <pt x="456" y="33" on="0"/>
        <pt x="483" y="15" on="0"/>
        <pt x="532" y="15" on="1"/>
        <pt x="693" y="15" on="1"/>
        <pt x="748" y="15" on="0"/>
        <pt x="827" y="16" on="0"/>
        <pt x="844" y="17" on="1"/>
        <pt x="857" y="19" on="0"/>
        <pt x="869" y="26" on="0"/>
        <pt x="874" y="33" on="1"/>
        <pt x="881" y="46" on="0"/>
        <pt x="900" y="122" on="0"/>
        <pt x="911" y="174" on="1"/>
        <pt x="924" y="174" on="1"/>
        <pt x="927" y="28" on="1"/>
        <pt x="947" y="22" on="0"/>
        <pt x="962" y="10" on="0"/>
        <pt x="962" y="-1" on="1"/>
        <pt x="962" y="-14" on="0"/>
        <pt x="940" y="-32" on="0"/>
        <pt x="882" y="-42" on="0"/>
        <pt x="775" y="-46" on="0"/>
        <pt x="691" y="-46" on="1"/>
        <pt x="528" y="-46" on="1"/>
        <pt x="476" y="-46" on="0"/>
        <pt x="417" y="-31" on="0"/>
        <pt x="391" y="8" on="0"/>
        <pt x="391" y="43" on="1"/>
        <pt x="391" y="705" on="1"/>
      </contour>
      <contour>
        <pt x="693" y="827" on="1"/>
        <pt x="692" y="817" on="0"/>
        <pt x="676" y="803" on="0"/>
        <pt x="656" y="801" on="1"/>
        <pt x="656" y="183" on="1"/>
        <pt x="656" y="179" on="0"/>
        <pt x="641" y="167" on="0"/>
        <pt x="618" y="159" on="0"/>
        <pt x="606" y="159" on="1"/>
        <pt x="593" y="159" on="1"/>
        <pt x="593" y="838" on="1"/>
      </contour>
      <contour>
        <pt x="368" y="803" on="1"/>
        <pt x="364" y="795" on="0"/>
        <pt x="346" y="784" on="0"/>
        <pt x="329" y="784" on="1"/>
        <pt x="295" y="691" on="0"/>
        <pt x="207" y="519" on="0"/>
        <pt x="105" y="374" on="0"/>
        <pt x="48" y="318" on="1"/>
        <pt x="34" y="328" on="1"/>
        <pt x="77" y="389" on="0"/>
        <pt x="162" y="554" on="0"/>
        <pt x="235" y="742" on="0"/>
        <pt x="261" y="838" on="1"/>
      </contour>
      <contour>
        <pt x="270" y="556" on="1"/>
        <pt x="267" y="549" on="0"/>
        <pt x="253" y="539" on="0"/>
        <pt x="239" y="537" on="1"/>
        <pt x="239" y="-53" on="1"/>
        <pt x="239" y="-56" on="0"/>
        <pt x="223" y="-67" on="0"/>
        <pt x="199" y="-76" on="0"/>
        <pt x="186" y="-76" on="1"/>
        <pt x="173" y="-76" on="1"/>
        <pt x="173" y="542" on="1"/>
        <pt x="203" y="581" on="1"/>
      </contour>
    </TTGlyph>
    <TTGlyph name="uni4EE5" xMin="33" yMin="-77" xMax="959" yMax="788">
      <contour>
        <pt x="169" y="788" on="1" overlap="1"/>
        <pt x="269" y="779" on="1"/>
        <pt x="268" y="769" on="0"/>
        <pt x="254" y="754" on="0"/>
        <pt x="235" y="751" on="1"/>
        <pt x="245" y="128" on="1"/>
        <pt x="180" y="103" on="1"/>
      </contour>
      <contour>
        <pt x="381" y="676" on="1"/>
        <pt x="451" y="647" on="0"/>
        <pt x="541" y="584" on="0"/>
        <pt x="588" y="524" on="0"/>
        <pt x="601" y="474" on="0"/>
        <pt x="588" y="441" on="0"/>
        <pt x="559" y="434" on="0"/>
        <pt x="539" y="447" on="1"/>
        <pt x="526" y="482" on="0"/>
        <pt x="469" y="563" on="0"/>
        <pt x="401" y="639" on="0"/>
        <pt x="370" y="667" on="1"/>
      </contour>
      <contour>
        <pt x="682" y="230" on="1"/>
        <pt x="767" y="190" on="0"/>
        <pt x="876" y="108" on="0"/>
        <pt x="938" y="33" on="0"/>
        <pt x="959" y="-28" on="0"/>
        <pt x="949" y="-66" on="0"/>
        <pt x="917" y="-76" on="0"/>
        <pt x="895" y="-62" on="1"/>
        <pt x="883" y="-29" on="0"/>
        <pt x="831" y="47" on="0"/>
        <pt x="767" y="123" on="0"/>
        <pt x="701" y="194" on="0"/>
        <pt x="671" y="221" on="1"/>
      </contour>
      <contour>
        <pt x="33" y="91" on="1"/>
        <pt x="64" y="99" on="0"/>
        <pt x="164" y="131" on="0"/>
        <pt x="292" y="175" on="0"/>
        <pt x="436" y="227" on="0"/>
        <pt x="510" y="254" on="1"/>
        <pt x="516" y="240" on="1"/>
        <pt x="441" y="200" on="0"/>
        <pt x="234" y="94" on="0"/>
        <pt x="97" y="32" on="1"/>
        <pt x="92" y="13" on="0"/>
        <pt x="76" y="6" on="1"/>
      </contour>
      <contour>
        <pt x="784" y="785" on="1"/>
        <pt x="893" y="773" on="1"/>
        <pt x="892" y="762" on="0"/>
        <pt x="873" y="746" on="0"/>
        <pt x="855" y="744" on="1"/>
        <pt x="851" y="653" on="0"/>
        <pt x="833" y="486" on="0"/>
        <pt x="792" y="334" on="0"/>
        <pt x="716" y="197" on="0"/>
        <pt x="592" y="76" on="0"/>
        <pt x="408" y="-31" on="0"/>
        <pt x="279" y="-77" on="1"/>
        <pt x="269" y="-58" on="1"/>
        <pt x="407" y="4" on="0"/>
        <pt x="592" y="142" on="0"/>
        <pt x="703" y="297" on="0"/>
        <pt x="760" y="473" on="0"/>
        <pt x="781" y="673" on="0"/>
      </contour>
    </TTGlyph>
    <TTGlyph name="uni4F60" xMin="34" yMin="-77" xMax="962" yMax="838">
      <contour>
        <pt x="756" y="444" on="1" overlap="1"/>
        <pt x="821" y="390" on="0"/>
        <pt x="903" y="291" on="0"/>
        <pt x="947" y="205" on="0"/>
        <pt x="957" y="142" on="0"/>
        <pt x="943" y="104" on="0"/>
        <pt x="914" y="97" on="0"/>
        <pt x="895" y="113" on="1"/>
        <pt x="888" y="150" on="0"/>
        <pt x="855" y="235" on="0"/>
        <pt x="810" y="322" on="0"/>
        <pt x="763" y="403" on="0"/>
        <pt x="741" y="437" on="1"/>
      </contour>
      <contour>
        <pt x="458" y="450" on="1"/>
        <pt x="557" y="420" on="1"/>
        <pt x="554" y="411" on="0"/>
        <pt x="535" y="399" on="0"/>
        <pt x="519" y="400" on="1"/>
        <pt x="483" y="301" on="0"/>
        <pt x="377" y="135" on="0"/>
        <pt x="313" y="79" on="1"/>
        <pt x="298" y="90" on="1"/>
        <pt x="331" y="133" on="0"/>
        <pt x="392" y="247" on="0"/>
        <pt x="441" y="379" on="0"/>
      </contour>
      <contour>
        <pt x="479" y="835" on="1"/>
        <pt x="581" y="802" on="1"/>
        <pt x="578" y="793" on="0"/>
        <pt x="560" y="782" on="0"/>
        <pt x="543" y="782" on="1"/>
        <pt x="502" y="665" on="0"/>
        <pt x="382" y="468" on="0"/>
        <pt x="309" y="403" on="1"/>
        <pt x="295" y="413" on="1"/>
        <pt x="333" y="463" on="0"/>
        <pt x="402" y="598" on="0"/>
        <pt x="460" y="753" on="0"/>
      </contour>
      <contour>
        <pt x="435" y="647" on="1"/>
        <pt x="884" y="647" on="1"/>
        <pt x="884" y="619" on="1"/>
        <pt x="435" y="619" on="1"/>
      </contour>
      <contour>
        <pt x="857" y="647" on="1"/>
        <pt x="845" y="647" on="1"/>
        <pt x="887" y="690" on="1"/>
        <pt x="962" y="617" on="1"/>
        <pt x="956" y="612" on="0"/>
        <pt x="938" y="609" on="0"/>
        <pt x="923" y="607" on="1"/>
        <pt x="907" y="575" on="0"/>
        <pt x="851" y="495" on="0"/>
        <pt x="825" y="467" on="1"/>
        <pt x="812" y="474" on="1"/>
        <pt x="820" y="498" on="0"/>
        <pt x="837" y="562" on="0"/>
        <pt x="852" y="625" on="0"/>
      </contour>
      <contour>
        <pt x="173" y="542" on="1"/>
        <pt x="204" y="582" on="1"/>
        <pt x="268" y="558" on="1"/>
        <pt x="266" y="551" on="0"/>
        <pt x="252" y="542" on="0"/>
        <pt x="239" y="540" on="1"/>
        <pt x="239" y="-55" on="1"/>
        <pt x="239" y="-58" on="0"/>
        <pt x="222" y="-68" on="0"/>
        <pt x="198" y="-77" on="0"/>
        <pt x="185" y="-77" on="1"/>
        <pt x="173" y="-77" on="1"/>
      </contour>
      <contour>
        <pt x="259" y="838" on="1"/>
        <pt x="362" y="805" on="1"/>
        <pt x="359" y="797" on="0"/>
        <pt x="340" y="785" on="0"/>
        <pt x="323" y="786" on="1"/>
        <pt x="290" y="695" on="0"/>
        <pt x="204" y="525" on="0"/>
        <pt x="103" y="381" on="0"/>
        <pt x="48" y="327" on="1"/>
        <pt x="34" y="337" on="1"/>
        <pt x="77" y="397" on="0"/>
        <pt x="162" y="558" on="0"/>
        <pt x="234" y="743" on="0"/>
      </contour>
      <contour>
        <pt x="609" y="605" on="1"/>
        <pt x="710" y="594" on="1"/>
        <pt x="708" y="584" on="0"/>
        <pt x="692" y="570" on="0"/>
        <pt x="674" y="567" on="1"/>
        <pt x="674" y="20" on="1"/>
        <pt x="674" y="-6" on="0"/>
        <pt x="661" y="-47" on="0"/>
        <pt x="615" y="-72" on="0"/>
        <pt x="566" y="-77" on="1"/>
        <pt x="564" y="-61" on="0"/>
        <pt x="554" y="-36" on="0"/>
        <pt x="543" y="-28" on="1"/>
        <pt x="531" y="-20" on="0"/>
        <pt x="488" y="-8" on="0"/>
        <pt x="452" y="-3" on="1"/>
        <pt x="452" y="12" on="1"/>
        <pt x="452" y="12" on="0"/>
        <pt x="486" y="10" on="0"/>
        <pt x="534" y="7" on="0"/>
        <pt x="576" y="5" on="0"/>
        <pt x="584" y="5" on="1"/>
        <pt x="599" y="5" on="0"/>
        <pt x="609" y="14" on="0"/>
        <pt x="609" y="26" on="1"/>
      </contour>
    </TTGlyph>
    <TTGlyph name="uni4F8B" xMin="31" yMin="-79" xMax="948" yMax="838">
      <contour>
        <pt x="280" y="758" on="1" overlap="1"/>
        <pt x="545" y="758" on="1"/>
        <pt x="591" y="817" on="1"/>
        <pt x="591" y="817" on="0"/>
        <pt x="608" y="803" on="0"/>
        <pt x="635" y="781" on="0"/>
        <pt x="665" y="756" on="0"/>
        <pt x="677" y="745" on="1"/>
        <pt x="674" y="729" on="0"/>
        <pt x="650" y="729" on="1"/>
        <pt x="288" y="729" on="1"/>
      </contour>
      <contour>
        <pt x="670" y="712" on="1"/>
        <pt x="766" y="701" on="1"/>
        <pt x="764" y="691" on="0"/>
        <pt x="749" y="678" on="0"/>
        <pt x="731" y="676" on="1"/>
        <pt x="731" y="155" on="1"/>
        <pt x="731" y="151" on="0"/>
        <pt x="715" y="140" on="0"/>
        <pt x="693" y="133" on="0"/>
        <pt x="682" y="133" on="1"/>
        <pt x="670" y="133" on="1"/>
      </contour>
      <contour>
        <pt x="393" y="757" on="1"/>
        <pt x="458" y="757" on="1"/>
        <pt x="458" y="741" on="1"/>
        <pt x="437" y="597" on="0"/>
        <pt x="334" y="352" on="0"/>
        <pt x="240" y="252" on="1"/>
        <pt x="226" y="264" on="1"/>
        <pt x="275" y="333" on="0"/>
        <pt x="340" y="491" on="0"/>
        <pt x="382" y="666" on="0"/>
      </contour>
      <contour>
        <pt x="336" y="430" on="1"/>
        <pt x="389" y="415" on="0"/>
        <pt x="453" y="375" on="0"/>
        <pt x="484" y="335" on="0"/>
        <pt x="489" y="300" on="0"/>
        <pt x="475" y="277" on="0"/>
        <pt x="447" y="274" on="0"/>
        <pt x="431" y="284" on="1"/>
        <pt x="424" y="307" on="0"/>
        <pt x="389" y="357" on="0"/>
        <pt x="346" y="406" on="0"/>
        <pt x="326" y="423" on="1"/>
      </contour>
      <contour>
        <pt x="849" y="829" on="1"/>
        <pt x="948" y="818" on="1"/>
        <pt x="946" y="808" on="0"/>
        <pt x="929" y="793" on="0"/>
        <pt x="911" y="791" on="1"/>
        <pt x="911" y="17" on="1"/>
        <pt x="911" y="-9" on="0"/>
        <pt x="898" y="-49" on="0"/>
        <pt x="854" y="-74" on="0"/>
        <pt x="807" y="-79" on="1"/>
        <pt x="805" y="-64" on="0"/>
        <pt x="794" y="-40" on="0"/>
        <pt x="783" y="-31" on="1"/>
        <pt x="771" y="-23" on="0"/>
        <pt x="729" y="-12" on="0"/>
        <pt x="693" y="-7" on="1"/>
        <pt x="693" y="9" on="1"/>
        <pt x="693" y="9" on="0"/>
        <pt x="727" y="6" on="0"/>
        <pt x="774" y="3" on="0"/>
        <pt x="816" y="1" on="0"/>
        <pt x="824" y="1" on="1"/>
        <pt x="838" y="1" on="0"/>
        <pt x="849" y="11" on="0"/>
        <pt x="849" y="23" on="1"/>
      </contour>
      <contour>
        <pt x="397" y="576" on="1"/>
        <pt x="569" y="576" on="1"/>
        <pt x="569" y="547" on="1"/>
        <pt x="387" y="547" on="1"/>
      </contour>
      <contour>
        <pt x="546" y="576" on="1"/>
        <pt x="536" y="576" on="1"/>
        <pt x="574" y="616" on="1"/>
        <pt x="645" y="552" on="1"/>
        <pt x="639" y="545" on="0"/>
        <pt x="623" y="540" on="0"/>
        <pt x="607" y="538" on="1"/>
        <pt x="594" y="450" on="0"/>
        <pt x="549" y="278" on="0"/>
        <pt x="472" y="118" on="0"/>
        <pt x="352" y="-19" on="0"/>
        <pt x="262" y="-73" on="1"/>
        <pt x="250" y="-59" on="1"/>
        <pt x="324" y="-3" on="0"/>
        <pt x="428" y="141" on="0"/>
        <pt x="497" y="306" on="0"/>
        <pt x="536" y="484" on="0"/>
      </contour>
      <contour>
        <pt x="138" y="543" on="1"/>
        <pt x="167" y="581" on="1"/>
        <pt x="231" y="558" on="1"/>
        <pt x="229" y="551" on="0"/>
        <pt x="214" y="542" on="0"/>
        <pt x="201" y="540" on="1"/>
        <pt x="201" y="-57" on="1"/>
        <pt x="201" y="-59" on="0"/>
        <pt x="184" y="-69" on="0"/>
        <pt x="161" y="-78" on="0"/>
        <pt x="150" y="-78" on="1"/>
        <pt x="138" y="-78" on="1"/>
      </contour>
      <contour>
        <pt x="199" y="838" on="1"/>
        <pt x="299" y="809" on="1"/>
        <pt x="294" y="788" on="0"/>
        <pt x="262" y="788" on="1"/>
        <pt x="237" y="702" on="0"/>
        <pt x="170" y="536" on="0"/>
        <pt x="90" y="390" on="0"/>
        <pt x="45" y="334" on="1"/>
        <pt x="31" y="343" on="1"/>
        <pt x="64" y="405" on="0"/>
        <pt x="127" y="567" on="0"/>
        <pt x="181" y="748" on="0"/>
      </contour>
    </TTGlyph>
    <TTGlyph name="uni500B" xMin="30" yMin="-76" xMax="958" yMax="837">
      <contour>
        <pt x="439" y="554" on="1" overlap="1"/>
        <pt x="713" y="554" on="1"/>
        <pt x="752" y="604" on="1"/>
        <pt x="752" y="604" on="0"/>
        <pt x="776" y="584" on="0"/>
        <pt x="810" y="555" on="0"/>
        <pt x="824" y="541" on="1"/>
        <pt x="820" y="525" on="0"/>
        <pt x="798" y="525" on="1"/>
        <pt x="446" y="525" on="1"/>
      </contour>
      <contour>
        <pt x="387" y="38" on="1"/>
        <pt x="874" y="38" on="1"/>
        <pt x="874" y="10" on="1"/>
        <pt x="387" y="10" on="1"/>
      </contour>
      <contour>
        <pt x="849" y="757" on="1"/>
        <pt x="839" y="757" on="1"/>
        <pt x="877" y="799" on="1"/>
        <pt x="958" y="735" on="1"/>
        <pt x="953" y="729" on="0"/>
        <pt x="929" y="718" on="0"/>
        <pt x="914" y="715" on="1"/>
        <pt x="914" y="-37" on="1"/>
        <pt x="914" y="-41" on="0"/>
        <pt x="895" y="-53" on="0"/>
        <pt x="870" y="-63" on="0"/>
        <pt x="858" y="-63" on="1"/>
        <pt x="849" y="-63" on="1"/>
      </contour>
      <contour>
        <pt x="522" y="193" on="1"/>
        <pt x="731" y="193" on="1"/>
        <pt x="731" y="165" on="1"/>
        <pt x="522" y="165" on="1"/>
      </contour>
      <contour>
        <pt x="593" y="694" on="1"/>
        <pt x="684" y="684" on="1"/>
        <pt x="683" y="674" on="0"/>
        <pt x="668" y="661" on="0"/>
        <pt x="651" y="658" on="1"/>
        <pt x="651" y="373" on="1"/>
        <pt x="593" y="373" on="1"/>
      </contour>
      <contour>
        <pt x="342" y="757" on="1"/>
        <pt x="342" y="790" on="1"/>
        <pt x="342" y="790" on="1"/>
        <pt x="409" y="757" on="1"/>
        <pt x="874" y="757" on="1"/>
        <pt x="874" y="728" on="1"/>
        <pt x="404" y="728" on="1"/>
        <pt x="404" y="-46" on="1"/>
        <pt x="404" y="-50" on="0"/>
        <pt x="390" y="-62" on="0"/>
        <pt x="367" y="-71" on="0"/>
        <pt x="353" y="-71" on="1"/>
        <pt x="342" y="-71" on="1"/>
      </contour>
      <contour>
        <pt x="488" y="388" on="1"/>
        <pt x="488" y="415" on="1"/>
        <pt x="488" y="415" on="1"/>
        <pt x="548" y="388" on="1"/>
        <pt x="725" y="388" on="1"/>
        <pt x="725" y="359" on="1"/>
        <pt x="544" y="359" on="1"/>
        <pt x="544" y="122" on="1"/>
        <pt x="544" y="119" on="0"/>
        <pt x="530" y="110" on="0"/>
        <pt x="508" y="103" on="0"/>
        <pt x="497" y="103" on="1"/>
        <pt x="488" y="103" on="1"/>
      </contour>
      <contour>
        <pt x="708" y="388" on="1"/>
        <pt x="714" y="388" on="1"/>
        <pt x="742" y="420" on="1"/>
        <pt x="800" y="365" on="1"/>
        <pt x="795" y="361" on="0"/>
        <pt x="775" y="350" on="0"/>
        <pt x="763" y="348" on="1"/>
        <pt x="763" y="132" on="1"/>
        <pt x="762" y="128" on="0"/>
        <pt x="736" y="112" on="0"/>
        <pt x="718" y="112" on="1"/>
        <pt x="708" y="112" on="1"/>
      </contour>
      <contour>
        <pt x="165" y="559" on="1"/>
        <pt x="190" y="591" on="1"/>
        <pt x="259" y="565" on="1"/>
        <pt x="257" y="558" on="0"/>
        <pt x="242" y="549" on="0"/>
        <pt x="229" y="547" on="1"/>
        <pt x="229" y="-54" on="1"/>
        <pt x="229" y="-57" on="0"/>
        <pt x="213" y="-68" on="0"/>
        <pt x="190" y="-76" on="0"/>
        <pt x="177" y="-76" on="1"/>
        <pt x="165" y="-76" on="1"/>
      </contour>
      <contour>
        <pt x="240" y="837" on="1"/>
        <pt x="341" y="803" on="1"/>
        <pt x="338" y="795" on="0"/>
        <pt x="321" y="783" on="0"/>
        <pt x="303" y="784" on="1"/>
        <pt x="272" y="698" on="0"/>
        <pt x="191" y="537" on="0"/>
        <pt x="96" y="399" on="0"/>
        <pt x="44" y="347" on="1"/>
        <pt x="30" y="356" on="1"/>
        <pt x="70" y="414" on="0"/>
        <pt x="148" y="569" on="0"/>
        <pt x="216" y="747" on="0"/>
      </contour>
    </TTGlyph>
    <TTGlyph name="uni5011" xMin="31" yMin="-78" xMax="954" yMax="838">
      <contour>
        <pt x="342" y="620" on="1" overlap="1"/>
        <pt x="534" y="620" on="1"/>
        <pt x="534" y="590" on="1"/>
        <pt x="342" y="590" on="1"/>
      </contour>
      <contour>
        <pt x="343" y="471" on="1"/>
        <pt x="536" y="471" on="1"/>
        <pt x="536" y="441" on="1"/>
        <pt x="343" y="441" on="1"/>
      </contour>
      <contour>
        <pt x="509" y="767" on="1"/>
        <pt x="499" y="767" on="1"/>
        <pt x="533" y="804" on="1"/>
        <pt x="608" y="747" on="1"/>
        <pt x="597" y="734" on="0"/>
        <pt x="568" y="728" on="1"/>
        <pt x="568" y="401" on="1"/>
        <pt x="568" y="398" on="0"/>
        <pt x="550" y="388" on="0"/>
        <pt x="528" y="380" on="0"/>
        <pt x="518" y="380" on="1"/>
        <pt x="509" y="380" on="1"/>
      </contour>
      <contour>
        <pt x="676" y="620" on="1"/>
        <pt x="880" y="620" on="1"/>
        <pt x="880" y="590" on="1"/>
        <pt x="676" y="590" on="1"/>
      </contour>
      <contour>
        <pt x="681" y="471" on="1"/>
        <pt x="878" y="471" on="1"/>
        <pt x="878" y="441" on="1"/>
        <pt x="681" y="441" on="1"/>
      </contour>
      <contour>
        <pt x="846" y="767" on="1"/>
        <pt x="836" y="767" on="1"/>
        <pt x="870" y="810" on="1"/>
        <pt x="954" y="746" on="1"/>
        <pt x="949" y="740" on="0"/>
        <pt x="925" y="728" on="0"/>
        <pt x="910" y="726" on="1"/>
        <pt x="910" y="18" on="1"/>
        <pt x="910" y="-8" on="0"/>
        <pt x="897" y="-47" on="0"/>
        <pt x="853" y="-73" on="0"/>
        <pt x="805" y="-78" on="1"/>
        <pt x="803" y="-63" on="0"/>
        <pt x="793" y="-37" on="0"/>
        <pt x="783" y="-29" on="1"/>
        <pt x="771" y="-20" on="0"/>
        <pt x="730" y="-9" on="0"/>
        <pt x="695" y="-4" on="1"/>
        <pt x="695" y="12" on="1"/>
        <pt x="695" y="12" on="0"/>
        <pt x="728" y="9" on="0"/>
        <pt x="773" y="7" on="0"/>
        <pt x="814" y="4" on="0"/>
        <pt x="822" y="4" on="1"/>
        <pt x="836" y="4" on="0"/>
        <pt x="846" y="14" on="0"/>
        <pt x="846" y="26" on="1"/>
      </contour>
      <contour>
        <pt x="308" y="767" on="1"/>
        <pt x="308" y="801" on="1"/>
        <pt x="308" y="801" on="1"/>
        <pt x="376" y="767" on="1"/>
        <pt x="539" y="767" on="1"/>
        <pt x="539" y="739" on="1"/>
        <pt x="372" y="739" on="1"/>
        <pt x="372" y="-52" on="1"/>
        <pt x="372" y="-56" on="0"/>
        <pt x="358" y="-68" on="0"/>
        <pt x="335" y="-78" on="0"/>
        <pt x="320" y="-78" on="1"/>
        <pt x="308" y="-78" on="1"/>
      </contour>
      <contour>
        <pt x="643" y="767" on="1"/>
        <pt x="643" y="797" on="1"/>
        <pt x="643" y="797" on="1"/>
        <pt x="707" y="767" on="1"/>
        <pt x="870" y="767" on="1"/>
        <pt x="870" y="739" on="1"/>
        <pt x="702" y="739" on="1"/>
        <pt x="702" y="405" on="1"/>
        <pt x="702" y="402" on="0"/>
        <pt x="688" y="392" on="0"/>
        <pt x="666" y="385" on="0"/>
        <pt x="653" y="385" on="1"/>
        <pt x="643" y="385" on="1"/>
      </contour>
      <contour>
        <pt x="138" y="543" on="1"/>
        <pt x="167" y="581" on="1"/>
        <pt x="231" y="558" on="1"/>
        <pt x="229" y="551" on="0"/>
        <pt x="214" y="542" on="0"/>
        <pt x="201" y="540" on="1"/>
        <pt x="201" y="-57" on="1"/>
        <pt x="201" y="-59" on="0"/>
        <pt x="184" y="-69" on="0"/>
        <pt x="161" y="-78" on="0"/>
        <pt x="150" y="-78" on="1"/>
        <pt x="138" y="-78" on="1"/>
      </contour>
      <contour>
        <pt x="199" y="838" on="1"/>
        <pt x="299" y="809" on="1"/>
        <pt x="294" y="788" on="0"/>
        <pt x="262" y="788" on="1"/>
        <pt x="237" y="702" on="0"/>
        <pt x="170" y="536" on="0"/>
        <pt x="90" y="390" on="0"/>
        <pt x="45" y="334" on="1"/>
        <pt x="31" y="343" on="1"/>
        <pt x="64" y="405" on="0"/>
        <pt x="127" y="567" on="0"/>
        <pt x="181" y="748" on="0"/>
      </contour>
    </TTGlyph>
    <TTGlyph name="uni5230" xMin="42" yMin="-80" xMax="947" yMax="820">
      <contour>
        <pt x="369" y="682" on="1" overlap="1"/>
        <pt x="365" y="672" on="0"/>
        <pt x="336" y="662" on="0"/>
        <pt x="311" y="671" on="1"/>
        <pt x="340" y="679" on="1"/>
        <pt x="317" y="647" on="0"/>
        <pt x="241" y="570" on="0"/>
        <pt x="155" y="496" on="0"/>
        <pt x="115" y="470" on="1"/>
        <pt x="114" y="482" on="1"/>
        <pt x="153" y="482" on="1"/>
        <pt x="150" y="449" on="0"/>
        <pt x="130" y="409" on="0"/>
        <pt x="117" y="403" on="1"/>
        <pt x="75" y="493" on="1"/>
        <pt x="75" y="493" on="0"/>
        <pt x="96" y="497" on="0"/>
        <pt x="101" y="500" on="1"/>
        <pt x="125" y="517" on="0"/>
        <pt x="175" y="573" on="0"/>
        <pt x="223" y="638" on="0"/>
        <pt x="262" y="698" on="0"/>
        <pt x="273" y="721" on="1"/>
      </contour>
      <contour>
        <pt x="100" y="484" on="1"/>
        <pt x="137" y="486" on="0"/>
        <pt x="269" y="495" on="0"/>
        <pt x="437" y="509" on="0"/>
        <pt x="527" y="516" on="1"/>
        <pt x="529" y="500" on="1"/>
        <pt x="458" y="486" on="0"/>
        <pt x="242" y="442" on="0"/>
        <pt x="118" y="421" on="1"/>
      </contour>
      <contour>
        <pt x="947" y="809" on="1"/>
        <pt x="945" y="798" on="0"/>
        <pt x="928" y="784" on="0"/>
        <pt x="910" y="782" on="1"/>
        <pt x="910" y="16" on="1"/>
        <pt x="910" y="-10" on="0"/>
        <pt x="897" y="-50" on="0"/>
        <pt x="854" y="-75" on="0"/>
        <pt x="808" y="-80" on="1"/>
        <pt x="806" y="-64" on="0"/>
        <pt x="797" y="-40" on="0"/>
        <pt x="786" y="-31" on="1"/>
        <pt x="775" y="-23" on="0"/>
        <pt x="735" y="-10" on="0"/>
        <pt x="703" y="-6" on="1"/>
        <pt x="703" y="9" on="1"/>
        <pt x="703" y="9" on="0"/>
        <pt x="734" y="7" on="0"/>
        <pt x="777" y="3" on="0"/>
        <pt x="816" y="1" on="0"/>
        <pt x="823" y="1" on="1"/>
        <pt x="837" y="1" on="0"/>
        <pt x="847" y="11" on="0"/>
        <pt x="847" y="23" on="1"/>
        <pt x="847" y="820" on="1"/>
      </contour>
      <contour>
        <pt x="758" y="731" on="1"/>
        <pt x="757" y="721" on="0"/>
        <pt x="741" y="707" on="0"/>
        <pt x="722" y="705" on="1"/>
        <pt x="722" y="156" on="1"/>
        <pt x="722" y="152" on="0"/>
        <pt x="707" y="141" on="0"/>
        <pt x="684" y="134" on="0"/>
        <pt x="672" y="134" on="1"/>
        <pt x="659" y="134" on="1"/>
        <pt x="659" y="742" on="1"/>
      </contour>
      <contour>
        <pt x="42" y="28" on="1"/>
        <pt x="78" y="33" on="0"/>
        <pt x="197" y="52" on="0"/>
        <pt x="347" y="79" on="0"/>
        <pt x="518" y="111" on="0"/>
        <pt x="608" y="128" on="1"/>
        <pt x="612" y="111" on="1"/>
        <pt x="523" y="82" on="0"/>
        <pt x="276" y="8" on="0"/>
        <pt x="107" y="-38" on="1"/>
        <pt x="99" y="-56" on="0"/>
        <pt x="83" y="-61" on="1"/>
      </contour>
      <contour>
        <pt x="400" y="644" on="1"/>
        <pt x="460" y="618" on="0"/>
        <pt x="534" y="559" on="0"/>
        <pt x="570" y="501" on="0"/>
        <pt x="577" y="453" on="0"/>
        <pt x="563" y="422" on="0"/>
        <pt x="535" y="416" on="0"/>
        <pt x="518" y="430" on="1"/>
        <pt x="513" y="464" on="0"/>
        <pt x="472" y="541" on="0"/>
        <pt x="416" y="611" on="0"/>
        <pt x="388" y="635" on="1"/>
      </contour>
      <contour>
        <pt x="382" y="424" on="1"/>
        <pt x="380" y="414" on="0"/>
        <pt x="365" y="400" on="0"/>
        <pt x="346" y="398" on="1"/>
        <pt x="346" y="57" on="1"/>
        <pt x="281" y="43" on="1"/>
        <pt x="281" y="434" on="1"/>
      </contour>
      <contour>
        <pt x="495" y="351" on="1"/>
        <pt x="495" y="351" on="0"/>
        <pt x="512" y="337" on="0"/>
        <pt x="539" y="316" on="0"/>
        <pt x="567" y="291" on="0"/>
        <pt x="579" y="279" on="1"/>
        <pt x="575" y="263" on="0"/>
        <pt x="553" y="263" on="1"/>
        <pt x="77" y="263" on="1"/>
        <pt x="69" y="292" on="1"/>
        <pt x="449" y="292" on="1"/>
      </contour>
      <contour>
        <pt x="525" y="807" on="1"/>
        <pt x="525" y="807" on="0"/>
        <pt x="543" y="793" on="0"/>
        <pt x="569" y="771" on="0"/>
        <pt x="599" y="746" on="0"/>
        <pt x="611" y="734" on="1"/>
        <pt x="608" y="718" on="0"/>
        <pt x="584" y="718" on="1"/>
        <pt x="57" y="718" on="1"/>
        <pt x="49" y="748" on="1"/>
        <pt x="479" y="748" on="1"/>
      </contour>
    </TTGlyph>
    <TTGlyph name="uni52A8" xMin="36" yMin="-85" xMax="962" yMax="837">
      <contour>
        <pt x="320" y="431" on="1" overlap="1"/>
        <pt x="317" y="421" on="0"/>
        <pt x="289" y="409" on="0"/>
        <pt x="263" y="416" on="1"/>
        <pt x="290" y="425" on="1"/>
        <pt x="274" y="391" on="0"/>
        <pt x="229" y="308" on="0"/>
        <pt x="174" y="223" on="0"/>
        <pt x="117" y="144" on="0"/>
        <pt x="90" y="113" on="1"/>
        <pt x="88" y="125" on="1"/>
        <pt x="132" y="125" on="1"/>
        <pt x="128" y="90" on="0"/>
        <pt x="104" y="46" on="0"/>
        <pt x="88" y="39" on="1"/>
        <pt x="48" y="138" on="1"/>
        <pt x="48" y="138" on="0"/>
        <pt x="71" y="143" on="0"/>
        <pt x="76" y="148" on="1"/>
        <pt x="96" y="174" on="0"/>
        <pt x="138" y="255" on="0"/>
        <pt x="178" y="347" on="0"/>
        <pt x="209" y="434" on="0"/>
        <pt x="217" y="467" on="1"/>
      </contour>
      <contour>
        <pt x="66" y="128" on="1"/>
        <pt x="101" y="131" on="0"/>
        <pt x="219" y="146" on="0"/>
        <pt x="365" y="166" on="0"/>
        <pt x="441" y="177" on="1"/>
        <pt x="443" y="161" on="1"/>
        <pt x="388" y="143" on="0"/>
        <pt x="206" y="86" on="0"/>
        <pt x="98" y="58" on="1"/>
      </contour>
      <contour>
        <pt x="847" y="604" on="1"/>
        <pt x="885" y="646" on="1"/>
        <pt x="962" y="583" on="1"/>
        <pt x="956" y="576" on="0"/>
        <pt x="937" y="569" on="0"/>
        <pt x="920" y="567" on="1"/>
        <pt x="917" y="432" on="0"/>
        <pt x="907" y="226" on="0"/>
        <pt x="892" y="80" on="0"/>
        <pt x="867" y="-10" on="0"/>
        <pt x="851" y="-30" on="1"/>
        <pt x="832" y="-54" on="0"/>
        <pt x="777" y="-75" on="0"/>
        <pt x="746" y="-75" on="1"/>
        <pt x="746" y="-59" on="0"/>
        <pt x="740" y="-34" on="0"/>
        <pt x="730" y="-26" on="1"/>
        <pt x="720" y="-19" on="0"/>
        <pt x="674" y="-5" on="0"/>
        <pt x="647" y="-1" on="1"/>
        <pt x="648" y="18" on="1"/>
        <pt x="667" y="16" on="0"/>
        <pt x="714" y="11" on="0"/>
        <pt x="755" y="9" on="0"/>
        <pt x="765" y="9" on="1"/>
        <pt x="779" y="9" on="0"/>
        <pt x="794" y="14" on="0"/>
        <pt x="802" y="21" on="1"/>
        <pt x="819" y="39" on="0"/>
        <pt x="842" y="182" on="0"/>
        <pt x="855" y="431" on="0"/>
        <pt x="858" y="604" on="1"/>
      </contour>
      <contour>
        <pt x="727" y="826" on="1"/>
        <pt x="725" y="815" on="0"/>
        <pt x="710" y="801" on="0"/>
        <pt x="691" y="798" on="1"/>
        <pt x="690" y="687" on="0"/>
        <pt x="684" y="479" on="0"/>
        <pt x="657" y="290" on="0"/>
        <pt x="590" y="121" on="0"/>
        <pt x="465" y="-25" on="0"/>
        <pt x="364" y="-85" on="1"/>
        <pt x="350" y="-69" on="1"/>
        <pt x="437" y="-5" on="0"/>
        <pt x="545" y="145" on="0"/>
        <pt x="602" y="317" on="0"/>
        <pt x="623" y="509" on="0"/>
        <pt x="625" y="721" on="0"/>
        <pt x="625" y="837" on="1"/>
      </contour>
      <contour>
        <pt x="902" y="604" on="1"/>
        <pt x="902" y="575" on="1"/>
        <pt x="457" y="575" on="1"/>
        <pt x="448" y="604" on="1"/>
      </contour>
      <contour>
        <pt x="334" y="345" on="1"/>
        <pt x="384" y="304" on="0"/>
        <pt x="442" y="225" on="0"/>
        <pt x="467" y="153" on="0"/>
        <pt x="466" y="98" on="0"/>
        <pt x="447" y="66" on="0"/>
        <pt x="416" y="63" on="0"/>
        <pt x="400" y="80" on="1"/>
        <pt x="401" y="122" on="0"/>
        <pt x="377" y="215" on="0"/>
        <pt x="340" y="304" on="0"/>
        <pt x="320" y="339" on="1"/>
      </contour>
      <contour>
        <pt x="429" y="556" on="1"/>
        <pt x="429" y="556" on="0"/>
        <pt x="446" y="543" on="0"/>
        <pt x="473" y="521" on="0"/>
        <pt x="502" y="496" on="0"/>
        <pt x="514" y="484" on="1"/>
        <pt x="510" y="468" on="0"/>
        <pt x="488" y="468" on="1"/>
        <pt x="44" y="468" on="1"/>
        <pt x="36" y="498" on="1"/>
        <pt x="383" y="498" on="1"/>
      </contour>
      <contour>
        <pt x="377" y="777" on="1"/>
        <pt x="377" y="777" on="0"/>
        <pt x="394" y="764" on="0"/>
        <pt x="420" y="742" on="0"/>
        <pt x="450" y="717" on="0"/>
        <pt x="462" y="705" on="1"/>
        <pt x="459" y="689" on="0"/>
        <pt x="436" y="689" on="1"/>
        <pt x="92" y="689" on="1"/>
        <pt x="84" y="719" on="1"/>
        <pt x="331" y="719" on="1"/>
      </contour>
    </TTGlyph>
    <TTGlyph name="uni5373" xMin="93" yMin="-83" xMax="954" yMax="807">
      <contour>
        <pt x="647" y="-58" on="1" overlap="1"/>
        <pt x="647" y="-62" on="0"/>
        <pt x="634" y="-73" on="0"/>
        <pt x="611" y="-83" on="0"/>
        <pt x="596" y="-83" on="1"/>
        <pt x="584" y="-83" on="1"/>
        <pt x="584" y="766" on="1"/>
        <pt x="584" y="799" on="1"/>
        <pt x="584" y="799" on="1"/>
        <pt x="652" y="766" on="1"/>
        <pt x="885" y="766" on="1"/>
        <pt x="885" y="736" on="1"/>
        <pt x="647" y="736" on="1"/>
      </contour>
      <contour>
        <pt x="839" y="766" on="1"/>
        <pt x="871" y="806" on="1"/>
        <pt x="954" y="744" on="1"/>
        <pt x="949" y="738" on="0"/>
        <pt x="926" y="728" on="0"/>
        <pt x="912" y="725" on="1"/>
        <pt x="912" y="195" on="1"/>
        <pt x="912" y="168" on="0"/>
        <pt x="899" y="129" on="0"/>
        <pt x="856" y="105" on="0"/>
        <pt x="810" y="99" on="1"/>
        <pt x="808" y="116" on="0"/>
        <pt x="799" y="140" on="0"/>
        <pt x="789" y="148" on="1"/>
        <pt x="777" y="157" on="0"/>
        <pt x="739" y="170" on="0"/>
        <pt x="705" y="174" on="1"/>
        <pt x="705" y="190" on="1"/>
        <pt x="705" y="190" on="0"/>
        <pt x="736" y="187" on="0"/>
        <pt x="779" y="184" on="0"/>
        <pt x="817" y="182" on="0"/>
        <pt x="824" y="182" on="1"/>
        <pt x="839" y="182" on="0"/>
        <pt x="849" y="192" on="0"/>
        <pt x="849" y="204" on="1"/>
        <pt x="849" y="766" on="1"/>
      </contour>
      <contour>
        <pt x="167" y="748" on="1"/>
        <pt x="182" y="739" on="1"/>
        <pt x="182" y="33" on="1"/>
        <pt x="135" y="21" on="1"/>
        <pt x="164" y="46" on="1"/>
        <pt x="169" y="23" on="0"/>
        <pt x="161" y="-10" on="0"/>
        <pt x="143" y="-31" on="0"/>
        <pt x="136" y="-35" on="1"/>
        <pt x="93" y="46" on="1"/>
        <pt x="110" y="56" on="0"/>
        <pt x="119" y="70" on="0"/>
        <pt x="119" y="86" on="1"/>
        <pt x="119" y="748" on="1"/>
      </contour>
      <contour>
        <pt x="119" y="801" on="1"/>
        <pt x="194" y="767" on="1"/>
        <pt x="182" y="767" on="1"/>
        <pt x="182" y="708" on="1"/>
        <pt x="182" y="708" on="0"/>
        <pt x="151" y="708" on="0"/>
        <pt x="119" y="708" on="1"/>
        <pt x="119" y="767" on="1"/>
      </contour>
      <contour>
        <pt x="107" y="44" on="1"/>
        <pt x="136" y="55" on="0"/>
        <pt x="239" y="95" on="0"/>
        <pt x="368" y="147" on="0"/>
        <pt x="436" y="176" on="1"/>
        <pt x="442" y="161" on="1"/>
        <pt x="396" y="133" on="0"/>
        <pt x="240" y="37" on="0"/>
        <pt x="147" y="-15" on="1"/>
      </contour>
      <contour>
        <pt x="409" y="767" on="1"/>
        <pt x="445" y="807" on="1"/>
        <pt x="525" y="745" on="1"/>
        <pt x="520" y="739" on="0"/>
        <pt x="497" y="729" on="0"/>
        <pt x="482" y="726" on="1"/>
        <pt x="482" y="338" on="1"/>
        <pt x="482" y="335" on="0"/>
        <pt x="464" y="325" on="0"/>
        <pt x="440" y="316" on="0"/>
        <pt x="428" y="316" on="1"/>
        <pt x="419" y="316" on="1"/>
        <pt x="419" y="767" on="1"/>
      </contour>
      <contour>
        <pt x="321" y="307" on="1"/>
        <pt x="386" y="265" on="0"/>
        <pt x="466" y="178" on="0"/>
        <pt x="505" y="101" on="0"/>
        <pt x="513" y="39" on="0"/>
        <pt x="498" y="0" on="0"/>
        <pt x="467" y="-7" on="0"/>
        <pt x="449" y="10" on="1"/>
        <pt x="446" y="57" on="0"/>
        <pt x="402" y="163" on="0"/>
        <pt x="339" y="263" on="0"/>
        <pt x="308" y="300" on="1"/>
      </contour>
      <contour>
        <pt x="451" y="407" on="1"/>
        <pt x="451" y="377" on="1"/>
        <pt x="156" y="377" on="1"/>
        <pt x="156" y="407" on="1"/>
      </contour>
      <contour>
        <pt x="451" y="587" on="1"/>
        <pt x="451" y="557" on="1"/>
        <pt x="156" y="557" on="1"/>
        <pt x="156" y="587" on="1"/>
      </contour>
      <contour>
        <pt x="451" y="767" on="1"/>
        <pt x="451" y="737" on="1"/>
        <pt x="156" y="737" on="1"/>
        <pt x="156" y="767" on="1"/>
      </contour>
    </TTGlyph>
    <TTGlyph name="uni5427" xMin="78" yMin="-54" xMax="969" yMax="790">
      <contour>
        <pt x="483" y="753" on="1" overlap="1"/>
        <pt x="877" y="753" on="1"/>
        <pt x="877" y="723" on="1"/>
        <pt x="483" y="723" on="1"/>
      </contour>
      <contour>
        <pt x="474" y="407" on="1"/>
        <pt x="865" y="407" on="1"/>
        <pt x="865" y="377" on="1"/>
        <pt x="474" y="377" on="1"/>
      </contour>
      <contour>
        <pt x="838" y="753" on="1"/>
        <pt x="829" y="753" on="1"/>
        <pt x="865" y="790" on="1"/>
        <pt x="940" y="732" on="1"/>
        <pt x="936" y="727" on="0"/>
        <pt x="915" y="716" on="0"/>
        <pt x="902" y="714" on="1"/>
        <pt x="902" y="319" on="1"/>
        <pt x="902" y="316" on="0"/>
        <pt x="883" y="306" on="0"/>
        <pt x="859" y="298" on="0"/>
        <pt x="848" y="298" on="1"/>
        <pt x="838" y="298" on="1"/>
      </contour>
      <contour>
        <pt x="637" y="753" on="1"/>
        <pt x="698" y="753" on="1"/>
        <pt x="698" y="392" on="1"/>
        <pt x="637" y="392" on="1"/>
      </contour>
      <contour>
        <pt x="437" y="753" on="1"/>
        <pt x="437" y="783" on="1"/>
        <pt x="437" y="785" on="1"/>
        <pt x="513" y="753" on="1"/>
        <pt x="501" y="753" on="1"/>
        <pt x="501" y="49" on="1"/>
        <pt x="501" y="27" on="0"/>
        <pt x="527" y="8" on="0"/>
        <pt x="573" y="8" on="1"/>
        <pt x="716" y="8" on="1"/>
        <pt x="769" y="8" on="0"/>
        <pt x="840" y="9" on="0"/>
        <pt x="855" y="11" on="1"/>
        <pt x="867" y="13" on="0"/>
        <pt x="878" y="20" on="0"/>
        <pt x="883" y="28" on="1"/>
        <pt x="889" y="43" on="0"/>
        <pt x="909" y="137" on="0"/>
        <pt x="920" y="199" on="1"/>
        <pt x="933" y="199" on="1"/>
        <pt x="937" y="21" on="1"/>
        <pt x="957" y="15" on="0"/>
        <pt x="969" y="1" on="0"/>
        <pt x="969" y="-9" on="1"/>
        <pt x="969" y="-21" on="0"/>
        <pt x="948" y="-39" on="0"/>
        <pt x="893" y="-49" on="0"/>
        <pt x="794" y="-54" on="0"/>
        <pt x="715" y="-54" on="1"/>
        <pt x="567" y="-54" on="1"/>
        <pt x="518" y="-54" on="0"/>
        <pt x="460" y="-38" on="0"/>
        <pt x="437" y="1" on="0"/>
        <pt x="437" y="35" on="1"/>
      </contour>
      <contour>
        <pt x="78" y="715" on="1"/>
        <pt x="78" y="746" on="1"/>
        <pt x="78" y="746" on="1"/>
        <pt x="145" y="715" on="1"/>
        <pt x="318" y="715" on="1"/>
        <pt x="318" y="686" on="1"/>
        <pt x="139" y="686" on="1"/>
        <pt x="139" y="92" on="1"/>
        <pt x="139" y="88" on="0"/>
        <pt x="126" y="77" on="0"/>
        <pt x="103" y="68" on="0"/>
        <pt x="89" y="68" on="1"/>
        <pt x="78" y="68" on="1"/>
      </contour>
      <contour>
        <pt x="278" y="715" on="1"/>
        <pt x="268" y="715" on="1"/>
        <pt x="303" y="755" on="1"/>
        <pt x="382" y="694" on="1"/>
        <pt x="378" y="688" on="0"/>
        <pt x="355" y="677" on="0"/>
        <pt x="340" y="674" on="1"/>
        <pt x="340" y="135" on="1"/>
        <pt x="340" y="131" on="0"/>
        <pt x="322" y="120" on="0"/>
        <pt x="299" y="111" on="0"/>
        <pt x="287" y="111" on="1"/>
        <pt x="278" y="111" on="1"/>
      </contour>
      <contour>
        <pt x="114" y="237" on="1"/>
        <pt x="317" y="237" on="1"/>
        <pt x="317" y="208" on="1"/>
        <pt x="114" y="208" on="1"/>
      </contour>
    </TTGlyph>
    <TTGlyph name="uni5462" xMin="77" yMin="-80" xMax="952" yMax="816">
      <contour>
        <pt x="858" y="358" on="1" overlap="1"/>
        <pt x="858" y="358" on="0"/>
        <pt x="871" y="346" on="0"/>
        <pt x="893" y="327" on="0"/>
        <pt x="917" y="306" on="0"/>
        <pt x="928" y="295" on="1"/>
        <pt x="924" y="279" on="0"/>
        <pt x="902" y="279" on="1"/>
        <pt x="590" y="279" on="1"/>
        <pt x="582" y="309" on="1"/>
        <pt x="819" y="309" on="1"/>
      </contour>
      <contour>
        <pt x="650" y="460" on="1"/>
        <pt x="648" y="439" on="0"/>
        <pt x="618" y="435" on="1"/>
        <pt x="618" y="35" on="1"/>
        <pt x="618" y="22" on="0"/>
        <pt x="634" y="12" on="0"/>
        <pt x="664" y="12" on="1"/>
        <pt x="763" y="12" on="1"/>
        <pt x="799" y="12" on="0"/>
        <pt x="849" y="12" on="0"/>
        <pt x="858" y="13" on="1"/>
        <pt x="873" y="14" on="0"/>
        <pt x="878" y="28" on="1"/>
        <pt x="882" y="37" on="0"/>
        <pt x="892" y="83" on="0"/>
        <pt x="903" y="146" on="0"/>
        <pt x="909" y="180" on="1"/>
        <pt x="922" y="180" on="1"/>
        <pt x="925" y="22" on="1"/>
        <pt x="941" y="17" on="0"/>
        <pt x="952" y="4" on="0"/>
        <pt x="952" y="-6" on="1"/>
        <pt x="952" y="-20" on="0"/>
        <pt x="923" y="-39" on="0"/>
        <pt x="842" y="-47" on="0"/>
        <pt x="762" y="-47" on="1"/>
        <pt x="654" y="-47" on="1"/>
        <pt x="615" y="-47" on="0"/>
        <pt x="573" y="-34" on="0"/>
        <pt x="558" y="-4" on="0"/>
        <pt x="558" y="21" on="1"/>
        <pt x="558" y="471" on="1"/>
      </contour>
      <contour>
        <pt x="427" y="786" on="1"/>
        <pt x="427" y="809" on="1"/>
        <pt x="501" y="776" on="1"/>
        <pt x="489" y="776" on="1"/>
        <pt x="489" y="457" on="1"/>
        <pt x="489" y="387" on="0"/>
        <pt x="477" y="242" on="0"/>
        <pt x="439" y="101" on="0"/>
        <pt x="360" y="-27" on="0"/>
        <pt x="294" y="-80" on="1"/>
        <pt x="279" y="-68" on="1"/>
        <pt x="343" y="4" on="0"/>
        <pt x="406" y="172" on="0"/>
        <pt x="427" y="358" on="0"/>
        <pt x="427" y="456" on="1"/>
        <pt x="427" y="776" on="1"/>
      </contour>
      <contour>
        <pt x="821" y="776" on="1"/>
        <pt x="857" y="816" on="1"/>
        <pt x="937" y="755" on="1"/>
        <pt x="932" y="749" on="0"/>
        <pt x="909" y="738" on="0"/>
        <pt x="894" y="735" on="1"/>
        <pt x="894" y="510" on="1"/>
        <pt x="894" y="507" on="0"/>
        <pt x="876" y="497" on="0"/>
        <pt x="851" y="490" on="0"/>
        <pt x="841" y="490" on="1"/>
        <pt x="831" y="490" on="1"/>
        <pt x="831" y="776" on="1"/>
      </contour>
      <contour>
        <pt x="862" y="573" on="1"/>
        <pt x="862" y="544" on="1"/>
        <pt x="461" y="544" on="1"/>
        <pt x="461" y="573" on="1"/>
      </contour>
      <contour>
        <pt x="863" y="776" on="1"/>
        <pt x="863" y="747" on="1"/>
        <pt x="461" y="747" on="1"/>
        <pt x="461" y="776" on="1"/>
      </contour>
      <contour>
        <pt x="137" y="99" on="1"/>
        <pt x="137" y="95" on="0"/>
        <pt x="124" y="84" on="0"/>
        <pt x="102" y="76" on="0"/>
        <pt x="88" y="76" on="1"/>
        <pt x="77" y="76" on="1"/>
        <pt x="77" y="720" on="1"/>
        <pt x="77" y="751" on="1"/>
        <pt x="77" y="751" on="1"/>
        <pt x="143" y="720" on="1"/>
        <pt x="309" y="720" on="1"/>
        <pt x="309" y="690" on="1"/>
        <pt x="137" y="690" on="1"/>
      </contour>
      <contour>
        <pt x="301" y="232" on="1"/>
        <pt x="301" y="202" on="1"/>
        <pt x="110" y="202" on="1"/>
        <pt x="110" y="232" on="1"/>
      </contour>
      <contour>
        <pt x="253" y="720" on="1"/>
        <pt x="289" y="759" on="1"/>
        <pt x="368" y="698" on="1"/>
        <pt x="363" y="692" on="0"/>
        <pt x="340" y="682" on="0"/>
        <pt x="324" y="679" on="1"/>
        <pt x="324" y="147" on="1"/>
        <pt x="324" y="143" on="0"/>
        <pt x="307" y="132" on="0"/>
        <pt x="283" y="123" on="0"/>
        <pt x="272" y="123" on="1"/>
        <pt x="263" y="123" on="1"/>
        <pt x="263" y="720" on="1"/>
      </contour>
    </TTGlyph>
    <TTGlyph name="uni548C" xMin="34" yMin="-78" xMax="938" yMax="834">
      <contour>
        <pt x="303" y="430" on="1" overlap="1"/>
        <pt x="361" y="407" on="0"/>
        <pt x="434" y="357" on="0"/>
        <pt x="473" y="309" on="0"/>
        <pt x="481" y="270" on="0"/>
        <pt x="470" y="244" on="0"/>
        <pt x="443" y="240" on="0"/>
        <pt x="427" y="251" on="1"/>
        <pt x="416" y="278" on="0"/>
        <pt x="370" y="340" on="0"/>
        <pt x="315" y="400" on="0"/>
        <pt x="291" y="422" on="1"/>
      </contour>
      <contour>
        <pt x="308" y="-56" on="1"/>
        <pt x="308" y="-58" on="0"/>
        <pt x="294" y="-70" on="0"/>
        <pt x="270" y="-78" on="0"/>
        <pt x="254" y="-78" on="1"/>
        <pt x="244" y="-78" on="1"/>
        <pt x="244" y="735" on="1"/>
        <pt x="308" y="758" on="1"/>
      </contour>
      <contour>
        <pt x="600" y="-3" on="1"/>
        <pt x="600" y="-7" on="0"/>
        <pt x="586" y="-18" on="0"/>
        <pt x="562" y="-27" on="0"/>
        <pt x="548" y="-27" on="1"/>
        <pt x="536" y="-27" on="1"/>
        <pt x="536" y="681" on="1"/>
        <pt x="536" y="714" on="1"/>
        <pt x="536" y="714" on="1"/>
        <pt x="605" y="681" on="1"/>
        <pt x="868" y="681" on="1"/>
        <pt x="868" y="651" on="1"/>
        <pt x="600" y="651" on="1"/>
      </contour>
      <contour>
        <pt x="815" y="681" on="1"/>
        <pt x="853" y="724" on="1"/>
        <pt x="938" y="658" on="1"/>
        <pt x="933" y="651" on="0"/>
        <pt x="908" y="640" on="0"/>
        <pt x="891" y="637" on="1"/>
        <pt x="891" y="9" on="1"/>
        <pt x="890" y="7" on="0"/>
        <pt x="872" y="-2" on="0"/>
        <pt x="847" y="-9" on="0"/>
        <pt x="836" y="-9" on="1"/>
        <pt x="826" y="-9" on="1"/>
        <pt x="826" y="681" on="1"/>
      </contour>
      <contour>
        <pt x="866" y="121" on="1"/>
        <pt x="866" y="92" on="1"/>
        <pt x="563" y="92" on="1"/>
        <pt x="563" y="121" on="1"/>
      </contour>
      <contour>
        <pt x="293" y="504" on="1"/>
        <pt x="261" y="382" on="0"/>
        <pt x="139" y="170" on="0"/>
        <pt x="49" y="86" on="1"/>
        <pt x="35" y="99" on="1"/>
        <pt x="81" y="157" on="0"/>
        <pt x="154" y="294" on="0"/>
        <pt x="207" y="444" on="0"/>
        <pt x="223" y="520" on="1"/>
        <pt x="293" y="520" on="1"/>
      </contour>
      <contour>
        <pt x="494" y="766" on="1"/>
        <pt x="487" y="759" on="0"/>
        <pt x="461" y="759" on="0"/>
        <pt x="444" y="765" on="1"/>
        <pt x="393" y="749" on="0"/>
        <pt x="258" y="716" on="0"/>
        <pt x="111" y="688" on="0"/>
        <pt x="40" y="680" on="1"/>
        <pt x="34" y="697" on="1"/>
        <pt x="101" y="713" on="0"/>
        <pt x="245" y="760" on="0"/>
        <pt x="373" y="812" on="0"/>
        <pt x="415" y="834" on="1"/>
      </contour>
      <contour>
        <pt x="433" y="579" on="1"/>
        <pt x="433" y="579" on="0"/>
        <pt x="449" y="565" on="0"/>
        <pt x="476" y="543" on="0"/>
        <pt x="505" y="518" on="0"/>
        <pt x="517" y="506" on="1"/>
        <pt x="513" y="490" on="0"/>
        <pt x="490" y="490" on="1"/>
        <pt x="50" y="490" on="1"/>
        <pt x="42" y="520" on="1"/>
        <pt x="388" y="520" on="1"/>
      </contour>
    </TTGlyph>
    <TTGlyph name="uni54CD" xMin="78" yMin="-79" xMax="957" yMax="838">
      <contour>
        <pt x="78" y="722" on="1" overlap="1"/>
        <pt x="78" y="752" on="1"/>
        <pt x="78" y="752" on="1"/>
        <pt x="140" y="722" on="1"/>
        <pt x="295" y="722" on="1"/>
        <pt x="295" y="693" on="1"/>
        <pt x="136" y="693" on="1"/>
        <pt x="136" y="127" on="1"/>
        <pt x="136" y="123" on="0"/>
        <pt x="122" y="113" on="0"/>
        <pt x="102" y="105" on="0"/>
        <pt x="89" y="105" on="1"/>
        <pt x="78" y="105" on="1"/>
      </contour>
      <contour>
        <pt x="253" y="722" on="1"/>
        <pt x="244" y="722" on="1"/>
        <pt x="278" y="759" on="1"/>
        <pt x="350" y="701" on="1"/>
        <pt x="346" y="697" on="0"/>
        <pt x="326" y="687" on="0"/>
        <pt x="312" y="685" on="1"/>
        <pt x="312" y="173" on="1"/>
        <pt x="312" y="170" on="0"/>
        <pt x="295" y="160" on="0"/>
        <pt x="273" y="152" on="0"/>
        <pt x="262" y="152" on="1"/>
        <pt x="253" y="152" on="1"/>
      </contour>
      <contour>
        <pt x="106" y="264" on="1"/>
        <pt x="287" y="264" on="1"/>
        <pt x="287" y="234" on="1"/>
        <pt x="106" y="234" on="1"/>
      </contour>
      <contour>
        <pt x="573" y="249" on="1"/>
        <pt x="730" y="249" on="1"/>
        <pt x="730" y="221" on="1"/>
        <pt x="573" y="221" on="1"/>
      </contour>
      <contour>
        <pt x="388" y="654" on="1"/>
        <pt x="388" y="688" on="1"/>
        <pt x="388" y="688" on="1"/>
        <pt x="457" y="654" on="1"/>
        <pt x="886" y="654" on="1"/>
        <pt x="886" y="626" on="1"/>
        <pt x="451" y="626" on="1"/>
        <pt x="451" y="-52" on="1"/>
        <pt x="451" y="-56" on="0"/>
        <pt x="438" y="-68" on="0"/>
        <pt x="414" y="-77" on="0"/>
        <pt x="400" y="-77" on="1"/>
        <pt x="388" y="-77" on="1"/>
      </contour>
      <contour>
        <pt x="539" y="499" on="1"/>
        <pt x="539" y="526" on="1"/>
        <pt x="539" y="526" on="1"/>
        <pt x="596" y="499" on="1"/>
        <pt x="731" y="499" on="1"/>
        <pt x="731" y="470" on="1"/>
        <pt x="592" y="470" on="1"/>
        <pt x="592" y="151" on="1"/>
        <pt x="592" y="147" on="0"/>
        <pt x="565" y="133" on="0"/>
        <pt x="548" y="133" on="1"/>
        <pt x="539" y="133" on="1"/>
      </contour>
      <contour>
        <pt x="853" y="654" on="1"/>
        <pt x="844" y="654" on="1"/>
        <pt x="876" y="695" on="1"/>
        <pt x="957" y="633" on="1"/>
        <pt x="952" y="628" on="0"/>
        <pt x="931" y="617" on="0"/>
        <pt x="917" y="615" on="1"/>
        <pt x="917" y="17" on="1"/>
        <pt x="917" y="-10" on="0"/>
        <pt x="904" y="-49" on="0"/>
        <pt x="861" y="-74" on="0"/>
        <pt x="815" y="-79" on="1"/>
        <pt x="813" y="-63" on="0"/>
        <pt x="803" y="-38" on="0"/>
        <pt x="794" y="-31" on="1"/>
        <pt x="783" y="-22" on="0"/>
        <pt x="744" y="-10" on="0"/>
        <pt x="711" y="-6" on="1"/>
        <pt x="711" y="10" on="1"/>
        <pt x="711" y="10" on="0"/>
        <pt x="741" y="8" on="0"/>
        <pt x="783" y="5" on="0"/>
        <pt x="822" y="2" on="0"/>
        <pt x="829" y="2" on="1"/>
        <pt x="843" y="2" on="0"/>
        <pt x="853" y="12" on="0"/>
        <pt x="853" y="24" on="1"/>
      </contour>
      <contour>
        <pt x="708" y="499" on="1"/>
        <pt x="700" y="499" on="1"/>
        <pt x="730" y="530" on="1"/>
        <pt x="795" y="480" on="1"/>
        <pt x="788" y="469" on="0"/>
        <pt x="763" y="464" on="1"/>
        <pt x="763" y="176" on="1"/>
        <pt x="763" y="174" on="0"/>
        <pt x="747" y="164" on="0"/>
        <pt x="726" y="157" on="0"/>
        <pt x="716" y="157" on="1"/>
        <pt x="708" y="157" on="1"/>
      </contour>
      <contour>
        <pt x="610" y="838" on="1"/>
        <pt x="721" y="816" on="1"/>
        <pt x="715" y="794" on="0"/>
        <pt x="684" y="793" on="1"/>
        <pt x="671" y="770" on="0"/>
        <pt x="635" y="711" on="0"/>
        <pt x="600" y="655" on="0"/>
        <pt x="586" y="633" on="1"/>
        <pt x="564" y="633" on="1"/>
        <pt x="571" y="659" on="0"/>
        <pt x="587" y="730" on="0"/>
        <pt x="604" y="807" on="0"/>
      </contour>
    </TTGlyph>
    <TTGlyph name="uni56D7" xMin="118" yMin="-70" xMax="928" yMax="797">
      <contour>
        <pt x="144" y="51" on="1" overlap="1"/>
        <pt x="856" y="51" on="1"/>
        <pt x="856" y="23" on="1"/>
        <pt x="144" y="23" on="1"/>
      </contour>
      <contour>
        <pt x="819" y="754" on="1"/>
        <pt x="809" y="754" on="1"/>
        <pt x="846" y="797" on="1"/>
        <pt x="928" y="732" on="1"/>
        <pt x="923" y="726" on="0"/>
        <pt x="899" y="715" on="0"/>
        <pt x="885" y="712" on="1"/>
        <pt x="885" y="-41" on="1"/>
        <pt x="885" y="-45" on="0"/>
        <pt x="866" y="-56" on="0"/>
        <pt x="840" y="-66" on="0"/>
        <pt x="828" y="-66" on="1"/>
        <pt x="819" y="-66" on="1"/>
      </contour>
      <contour>
        <pt x="118" y="754" on="1"/>
        <pt x="118" y="788" on="1"/>
        <pt x="118" y="788" on="1"/>
        <pt x="189" y="754" on="1"/>
        <pt x="859" y="754" on="1"/>
        <pt x="859" y="725" on="1"/>
        <pt x="184" y="725" on="1"/>
        <pt x="184" y="-44" on="1"/>
        <pt x="184" y="-48" on="0"/>
        <pt x="169" y="-60" on="0"/>
        <pt x="145" y="-70" on="0"/>
        <pt x="130" y="-70" on="1"/>
        <pt x="118" y="-70" on="1"/>
      </contour>
    </TTGlyph>
    <TTGlyph name="uni56E0" xMin="105" yMin="-77" xMax="937" yMax="822">
      <contour>
        <pt x="170" y="-51" on="1" overlap="1"/>
        <pt x="170" y="-55" on="0"/>
        <pt x="156" y="-68" on="0"/>
        <pt x="133" y="-77" on="0"/>
        <pt x="117" y="-77" on="1"/>
        <pt x="105" y="-77" on="1"/>
        <pt x="105" y="779" on="1"/>
        <pt x="105" y="814" on="1"/>
        <pt x="105" y="814" on="1"/>
        <pt x="176" y="779" on="1"/>
        <pt x="861" y="779" on="1"/>
        <pt x="861" y="750" on="1"/>
        <pt x="170" y="750" on="1"/>
      </contour>
      <contour>
        <pt x="818" y="779" on="1"/>
        <pt x="856" y="822" on="1"/>
        <pt x="937" y="757" on="1"/>
        <pt x="932" y="750" on="0"/>
        <pt x="909" y="741" on="0"/>
        <pt x="893" y="738" on="1"/>
        <pt x="893" y="-47" on="1"/>
        <pt x="893" y="-50" on="0"/>
        <pt x="875" y="-62" on="0"/>
        <pt x="850" y="-72" on="0"/>
        <pt x="838" y="-72" on="1"/>
        <pt x="828" y="-72" on="1"/>
        <pt x="828" y="779" on="1"/>
      </contour>
      <contour>
        <pt x="850" y="21" on="1"/>
        <pt x="850" y="-8" on="1"/>
        <pt x="142" y="-8" on="1"/>
        <pt x="142" y="21" on="1"/>
      </contour>
      <contour>
        <pt x="494" y="420" on="1"/>
        <pt x="573" y="370" on="0"/>
        <pt x="676" y="277" on="0"/>
        <pt x="733" y="198" on="0"/>
        <pt x="752" y="136" on="0"/>
        <pt x="745" y="99" on="0"/>
        <pt x="717" y="91" on="0"/>
        <pt x="697" y="105" on="1"/>
        <pt x="685" y="140" on="0"/>
        <pt x="636" y="221" on="0"/>
        <pt x="575" y="304" on="0"/>
        <pt x="510" y="381" on="0"/>
        <pt x="481" y="412" on="1"/>
      </contour>
      <contour>
        <pt x="696" y="559" on="1"/>
        <pt x="696" y="559" on="0"/>
        <pt x="713" y="545" on="0"/>
        <pt x="739" y="525" on="0"/>
        <pt x="767" y="500" on="0"/>
        <pt x="779" y="488" on="1"/>
        <pt x="775" y="472" on="0"/>
        <pt x="752" y="472" on="1"/>
        <pt x="237" y="472" on="1"/>
        <pt x="229" y="502" on="1"/>
        <pt x="651" y="502" on="1"/>
      </contour>
      <contour>
        <pt x="523" y="658" on="1"/>
        <pt x="522" y="585" on="0"/>
        <pt x="514" y="447" on="0"/>
        <pt x="488" y="321" on="0"/>
        <pt x="428" y="207" on="0"/>
        <pt x="321" y="109" on="0"/>
        <pt x="236" y="69" on="1"/>
        <pt x="223" y="85" on="1"/>
        <pt x="312" y="139" on="0"/>
        <pt x="408" y="269" on="0"/>
        <pt x="448" y="422" on="0"/>
        <pt x="456" y="596" on="0"/>
        <pt x="456" y="694" on="1"/>
        <pt x="557" y="685" on="1"/>
        <pt x="555" y="675" on="0"/>
        <pt x="540" y="660" on="0"/>
      </contour>
    </TTGlyph>
    <TTGlyph name="uni589E" xMin="39" yMin="-76" xMax="942" yMax="839">
      <contour>
        <pt x="836" y="571" on="1" overlap="1"/>
        <pt x="832" y="563" on="0"/>
        <pt x="814" y="553" on="0"/>
        <pt x="799" y="554" on="1"/>
        <pt x="781" y="527" on="0"/>
        <pt x="740" y="466" on="0"/>
        <pt x="723" y="443" on="1"/>
        <pt x="705" y="452" on="1"/>
        <pt x="715" y="481" on="0"/>
        <pt x="741" y="564" on="0"/>
        <pt x="754" y="604" on="1"/>
      </contour>
      <contour>
        <pt x="469" y="604" on="1"/>
        <pt x="515" y="581" on="0"/>
        <pt x="563" y="531" on="0"/>
        <pt x="576" y="487" on="0"/>
        <pt x="564" y="457" on="0"/>
        <pt x="536" y="450" on="0"/>
        <pt x="521" y="462" on="1"/>
        <pt x="519" y="485" on="0"/>
        <pt x="498" y="534" on="0"/>
        <pt x="470" y="581" on="0"/>
        <pt x="457" y="598" on="1"/>
      </contour>
      <contour>
        <pt x="454" y="833" on="1"/>
        <pt x="502" y="819" on="0"/>
        <pt x="557" y="781" on="0"/>
        <pt x="583" y="740" on="0"/>
        <pt x="584" y="705" on="0"/>
        <pt x="568" y="682" on="0"/>
        <pt x="540" y="678" on="0"/>
        <pt x="524" y="689" on="1"/>
        <pt x="517" y="723" on="0"/>
        <pt x="469" y="801" on="0"/>
        <pt x="443" y="826" on="1"/>
      </contour>
      <contour>
        <pt x="874" y="804" on="1"/>
        <pt x="870" y="796" on="0"/>
        <pt x="851" y="786" on="0"/>
        <pt x="835" y="788" on="1"/>
        <pt x="820" y="770" on="0"/>
        <pt x="779" y="725" on="0"/>
        <pt x="736" y="681" on="0"/>
        <pt x="715" y="662" on="1"/>
        <pt x="696" y="662" on="1"/>
        <pt x="707" y="687" on="0"/>
        <pt x="733" y="750" on="0"/>
        <pt x="757" y="814" on="0"/>
        <pt x="767" y="839" on="1"/>
      </contour>
      <contour>
        <pt x="664" y="670" on="1"/>
        <pt x="664" y="393" on="1"/>
        <pt x="606" y="393" on="1"/>
        <pt x="606" y="670" on="1"/>
      </contour>
      <contour>
        <pt x="814" y="12" on="1"/>
        <pt x="814" y="-17" on="1"/>
        <pt x="457" y="-17" on="1"/>
        <pt x="457" y="12" on="1"/>
      </contour>
      <contour>
        <pt x="814" y="156" on="1"/>
        <pt x="814" y="126" on="1"/>
        <pt x="457" y="126" on="1"/>
        <pt x="457" y="156" on="1"/>
      </contour>
      <contour>
        <pt x="866" y="403" on="1"/>
        <pt x="866" y="374" on="1"/>
        <pt x="414" y="374" on="1"/>
        <pt x="414" y="403" on="1"/>
      </contour>
      <contour>
        <pt x="829" y="676" on="1"/>
        <pt x="864" y="713" on="1"/>
        <pt x="942" y="654" on="1"/>
        <pt x="937" y="649" on="0"/>
        <pt x="915" y="639" on="0"/>
        <pt x="901" y="637" on="1"/>
        <pt x="901" y="358" on="1"/>
        <pt x="901" y="355" on="0"/>
        <pt x="883" y="345" on="0"/>
        <pt x="859" y="337" on="0"/>
        <pt x="848" y="337" on="1"/>
        <pt x="838" y="337" on="1"/>
        <pt x="838" y="676" on="1"/>
      </contour>
      <contour>
        <pt x="435" y="341" on="1"/>
        <pt x="435" y="338" on="0"/>
        <pt x="420" y="328" on="0"/>
        <pt x="397" y="320" on="0"/>
        <pt x="384" y="320" on="1"/>
        <pt x="373" y="320" on="1"/>
        <pt x="373" y="676" on="1"/>
        <pt x="373" y="706" on="1"/>
        <pt x="373" y="706" on="1"/>
        <pt x="441" y="676" on="1"/>
        <pt x="866" y="676" on="1"/>
        <pt x="866" y="646" on="1"/>
        <pt x="435" y="646" on="1"/>
      </contour>
      <contour>
        <pt x="769" y="292" on="1"/>
        <pt x="804" y="331" on="1"/>
        <pt x="882" y="271" on="1"/>
        <pt x="878" y="265" on="0"/>
        <pt x="857" y="256" on="0"/>
        <pt x="842" y="253" on="1"/>
        <pt x="842" y="-52" on="1"/>
        <pt x="842" y="-55" on="0"/>
        <pt x="824" y="-64" on="0"/>
        <pt x="799" y="-72" on="0"/>
        <pt x="788" y="-72" on="1"/>
        <pt x="778" y="-72" on="1"/>
        <pt x="778" y="292" on="1"/>
      </contour>
      <contour>
        <pt x="483" y="-55" on="1"/>
        <pt x="483" y="-58" on="0"/>
        <pt x="468" y="-68" on="0"/>
        <pt x="445" y="-76" on="0"/>
        <pt x="431" y="-76" on="1"/>
        <pt x="420" y="-76" on="1"/>
        <pt x="420" y="292" on="1"/>
        <pt x="420" y="323" on="1"/>
        <pt x="420" y="323" on="1"/>
        <pt x="489" y="292" on="1"/>
        <pt x="817" y="292" on="1"/>
        <pt x="817" y="263" on="1"/>
        <pt x="483" y="263" on="1"/>
      </contour>
      <contour>
        <pt x="39" y="156" on="1"/>
        <pt x="68" y="162" on="0"/>
        <pt x="169" y="188" on="0"/>
        <pt x="296" y="223" on="0"/>
        <pt x="363" y="242" on="1"/>
        <pt x="367" y="228" on="1"/>
        <pt x="323" y="204" on="0"/>
        <pt x="192" y="135" on="0"/>
        <pt x="105" y="94" on="1"/>
        <pt x="100" y="76" on="0"/>
        <pt x="84" y="69" on="1"/>
      </contour>
      <contour>
        <pt x="260" y="803" on="1"/>
        <pt x="258" y="793" on="0"/>
        <pt x="243" y="779" on="0"/>
        <pt x="223" y="776" on="1"/>
        <pt x="223" y="174" on="1"/>
        <pt x="160" y="154" on="1"/>
        <pt x="160" y="814" on="1"/>
      </contour>
      <contour>
        <pt x="281" y="609" on="1"/>
        <pt x="281" y="609" on="0"/>
        <pt x="307" y="586" on="0"/>
        <pt x="342" y="554" on="0"/>
        <pt x="355" y="539" on="1"/>
        <pt x="352" y="523" on="0"/>
        <pt x="331" y="523" on="1"/>
        <pt x="49" y="523" on="1"/>
        <pt x="41" y="552" on="1"/>
        <pt x="239" y="552" on="1"/>
      </contour>
    </TTGlyph>
    <TTGlyph name="uni5927" xMin="39" yMin="-79" xMax="972" yMax="836">
      <contour>
        <pt x="50" y="543" on="1" overlap="1"/>
        <pt x="805" y="543" on="1"/>
        <pt x="859" y="611" on="1"/>
        <pt x="859" y="611" on="0"/>
        <pt x="879" y="595" on="0"/>
        <pt x="910" y="571" on="0"/>
        <pt x="945" y="543" on="0"/>
        <pt x="959" y="530" on="1"/>
        <pt x="956" y="514" on="0"/>
        <pt x="932" y="514" on="1"/>
        <pt x="58" y="514" on="1"/>
      </contour>
      <contour>
        <pt x="454" y="836" on="1"/>
        <pt x="563" y="825" on="1"/>
        <pt x="561" y="814" on="0"/>
        <pt x="545" y="799" on="0"/>
        <pt x="527" y="797" on="1"/>
        <pt x="525" y="710" on="0"/>
        <pt x="518" y="542" on="0"/>
        <pt x="493" y="383" on="0"/>
        <pt x="436" y="234" on="0"/>
        <pt x="333" y="96" on="0"/>
        <pt x="170" y="-26" on="0"/>
        <pt x="51" y="-79" on="1"/>
        <pt x="39" y="-61" on="1"/>
        <pt x="167" y="7" on="0"/>
        <pt x="326" y="164" on="0"/>
        <pt x="413" y="337" on="0"/>
        <pt x="447" y="526" on="0"/>
        <pt x="454" y="729" on="0"/>
      </contour>
      <contour>
        <pt x="528" y="538" on="1"/>
        <pt x="540" y="464" on="0"/>
        <pt x="595" y="315" on="0"/>
        <pt x="696" y="170" on="0"/>
        <pt x="856" y="40" on="0"/>
        <pt x="972" y="-12" on="1"/>
        <pt x="970" y="-23" on="1"/>
        <pt x="944" y="-26" on="0"/>
        <pt x="908" y="-50" on="0"/>
        <pt x="900" y="-79" on="1"/>
        <pt x="792" y="-20" on="0"/>
        <pt x="650" y="128" on="0"/>
        <pt x="565" y="292" on="0"/>
        <pt x="520" y="457" on="0"/>
        <pt x="510" y="534" on="1"/>
      </contour>
    </TTGlyph>
    <TTGlyph name="uni5979" xMin="30" yMin="-80" xMax="961" yMax="844">
      <contour>
        <pt x="825" y="639" on="1" overlap="1"/>
        <pt x="866" y="680" on="1"/>
        <pt x="935" y="608" on="1"/>
        <pt x="924" y="599" on="0"/>
        <pt x="896" y="597" on="1"/>
        <pt x="888" y="542" on="0"/>
        <pt x="861" y="408" on="0"/>
        <pt x="826" y="272" on="0"/>
        <pt x="803" y="217" on="1"/>
        <pt x="788" y="224" on="1"/>
        <pt x="796" y="270" on="0"/>
        <pt x="811" y="381" on="0"/>
        <pt x="822" y="494" on="0"/>
        <pt x="829" y="598" on="0"/>
        <pt x="831" y="639" on="1"/>
      </contour>
      <contour>
        <pt x="848" y="648" on="1"/>
        <pt x="860" y="620" on="1"/>
        <pt x="379" y="411" on="1"/>
        <pt x="358" y="434" on="1"/>
        <pt x="823" y="637" on="1"/>
      </contour>
      <contour>
        <pt x="549" y="693" on="1"/>
        <pt x="548" y="683" on="0"/>
        <pt x="531" y="669" on="0"/>
        <pt x="514" y="667" on="1"/>
        <pt x="514" y="52" on="1"/>
        <pt x="514" y="30" on="0"/>
        <pt x="539" y="14" on="0"/>
        <pt x="581" y="14" on="1"/>
        <pt x="719" y="14" on="1"/>
        <pt x="768" y="14" on="0"/>
        <pt x="837" y="16" on="0"/>
        <pt x="851" y="17" on="1"/>
        <pt x="862" y="18" on="0"/>
        <pt x="874" y="24" on="0"/>
        <pt x="878" y="31" on="1"/>
        <pt x="884" y="43" on="0"/>
        <pt x="903" y="122" on="0"/>
        <pt x="912" y="172" on="1"/>
        <pt x="926" y="172" on="1"/>
        <pt x="928" y="26" on="1"/>
        <pt x="948" y="20" on="0"/>
        <pt x="961" y="8" on="0"/>
        <pt x="961" y="-2" on="1"/>
        <pt x="961" y="-18" on="0"/>
        <pt x="923" y="-38" on="0"/>
        <pt x="819" y="-44" on="0"/>
        <pt x="717" y="-44" on="1"/>
        <pt x="575" y="-44" on="1"/>
        <pt x="529" y="-44" on="0"/>
        <pt x="475" y="-30" on="0"/>
        <pt x="452" y="6" on="0"/>
        <pt x="452" y="38" on="1"/>
        <pt x="452" y="705" on="1"/>
      </contour>
      <contour>
        <pt x="734" y="831" on="1"/>
        <pt x="732" y="821" on="0"/>
        <pt x="717" y="806" on="0"/>
        <pt x="697" y="804" on="1"/>
        <pt x="697" y="167" on="1"/>
        <pt x="697" y="163" on="0"/>
        <pt x="683" y="152" on="0"/>
        <pt x="661" y="143" on="0"/>
        <pt x="649" y="143" on="1"/>
        <pt x="638" y="143" on="1"/>
        <pt x="638" y="842" on="1"/>
      </contour>
      <contour>
        <pt x="411" y="676" on="1"/>
        <pt x="407" y="653" on="0"/>
        <pt x="372" y="650" on="1"/>
        <pt x="368" y="542" on="0"/>
        <pt x="337" y="331" on="0"/>
        <pt x="267" y="139" on="0"/>
        <pt x="143" y="-22" on="0"/>
        <pt x="47" y="-80" on="1"/>
        <pt x="35" y="-71" on="1"/>
        <pt x="118" y="-7" on="0"/>
        <pt x="225" y="164" on="0"/>
        <pt x="285" y="363" on="0"/>
        <pt x="309" y="582" on="0"/>
        <pt x="308" y="694" on="1"/>
      </contour>
      <contour>
        <pt x="30" y="570" on="1"/>
        <pt x="71" y="571" on="0"/>
        <pt x="204" y="579" on="0"/>
        <pt x="363" y="593" on="0"/>
        <pt x="442" y="601" on="1"/>
        <pt x="444" y="585" on="1"/>
        <pt x="376" y="567" on="0"/>
        <pt x="200" y="529" on="0"/>
        <pt x="84" y="511" on="1"/>
        <pt x="80" y="501" on="0"/>
        <pt x="67" y="491" on="0"/>
        <pt x="60" y="489" on="1"/>
      </contour>
      <contour>
        <pt x="82" y="307" on="1"/>
        <pt x="179" y="268" on="0"/>
        <pt x="302" y="193" on="0"/>
        <pt x="371" y="128" on="0"/>
        <pt x="396" y="76" on="0"/>
        <pt x="389" y="43" on="0"/>
        <pt x="361" y="35" on="0"/>
        <pt x="342" y="45" on="1"/>
        <pt x="323" y="76" on="0"/>
        <pt x="259" y="144" on="0"/>
        <pt x="181" y="211" on="0"/>
        <pt x="101" y="271" on="0"/>
        <pt x="65" y="294" on="1"/>
      </contour>
      <contour>
        <pt x="65" y="294" on="1"/>
        <pt x="76" y="332" on="0"/>
        <pt x="103" y="442" on="0"/>
        <pt x="129" y="568" on="0"/>
        <pt x="153" y="694" on="0"/>
        <pt x="171" y="805" on="0"/>
        <pt x="174" y="844" on="1"/>
        <pt x="275" y="825" on="1"/>
        <pt x="272" y="815" on="0"/>
        <pt x="253" y="800" on="0"/>
        <pt x="226" y="801" on="1"/>
        <pt x="239" y="816" on="1"/>
        <pt x="232" y="770" on="0"/>
        <pt x="205" y="636" on="0"/>
        <pt x="173" y="486" on="0"/>
        <pt x="136" y="340" on="0"/>
        <pt x="118" y="280" on="1"/>
      </contour>
    </TTGlyph>
    <TTGlyph name="uni5B78" xMin="35" yMin="-80" xMax="958" yMax="839">
      <contour>
        <pt x="203" y="679" on="1" overlap="1"/>
        <pt x="300" y="679" on="1"/>
        <pt x="331" y="717" on="1"/>
        <pt x="331" y="717" on="0"/>
        <pt x="351" y="701" on="0"/>
        <pt x="379" y="678" on="0"/>
        <pt x="390" y="666" on="1"/>
        <pt x="386" y="650" on="0"/>
        <pt x="366" y="650" on="1"/>
        <pt x="203" y="650" on="1"/>
      </contour>
      <contour>
        <pt x="202" y="573" on="1"/>
        <pt x="303" y="573" on="1"/>
        <pt x="336" y="614" on="1"/>
        <pt x="336" y="614" on="0"/>
        <pt x="356" y="596" on="0"/>
        <pt x="385" y="572" on="0"/>
        <pt x="396" y="560" on="1"/>
        <pt x="392" y="544" on="0"/>
        <pt x="372" y="544" on="1"/>
        <pt x="202" y="544" on="1"/>
      </contour>
      <contour>
        <pt x="130" y="469" on="1"/>
        <pt x="886" y="469" on="1"/>
        <pt x="886" y="439" on="1"/>
        <pt x="130" y="439" on="1"/>
      </contour>
      <contour>
        <pt x="850" y="469" on="1"/>
        <pt x="839" y="469" on="1"/>
        <pt x="881" y="511" on="1"/>
        <pt x="958" y="437" on="1"/>
        <pt x="952" y="432" on="0"/>
        <pt x="934" y="429" on="0"/>
        <pt x="920" y="429" on="1"/>
        <pt x="907" y="416" on="0"/>
        <pt x="869" y="385" on="0"/>
        <pt x="830" y="356" on="0"/>
        <pt x="814" y="346" on="1"/>
        <pt x="801" y="353" on="1"/>
        <pt x="809" y="368" on="0"/>
        <pt x="828" y="410" on="0"/>
        <pt x="845" y="454" on="0"/>
      </contour>
      <contour>
        <pt x="430" y="794" on="1"/>
        <pt x="487" y="783" on="0"/>
        <pt x="553" y="748" on="0"/>
        <pt x="583" y="711" on="0"/>
        <pt x="585" y="681" on="0"/>
        <pt x="565" y="668" on="0"/>
        <pt x="550" y="675" on="1"/>
        <pt x="538" y="693" on="0"/>
        <pt x="495" y="734" on="0"/>
        <pt x="444" y="772" on="0"/>
        <pt x="421" y="783" on="1"/>
      </contour>
      <contour>
        <pt x="433" y="628" on="1"/>
        <pt x="493" y="615" on="0"/>
        <pt x="563" y="574" on="0"/>
        <pt x="594" y="532" on="0"/>
        <pt x="594" y="498" on="0"/>
        <pt x="573" y="484" on="0"/>
        <pt x="556" y="492" on="1"/>
        <pt x="546" y="515" on="0"/>
        <pt x="503" y="562" on="0"/>
        <pt x="450" y="604" on="0"/>
        <pt x="424" y="617" on="1"/>
      </contour>
      <contour>
        <pt x="334" y="839" on="1"/>
        <pt x="399" y="787" on="1"/>
        <pt x="392" y="777" on="0"/>
        <pt x="372" y="785" on="1"/>
        <pt x="342" y="776" on="0"/>
        <pt x="248" y="755" on="0"/>
        <pt x="202" y="749" on="1"/>
        <pt x="197" y="762" on="1"/>
        <pt x="220" y="771" on="0"/>
        <pt x="272" y="800" on="0"/>
        <pt x="319" y="829" on="0"/>
      </contour>
      <contour>
        <pt x="636" y="679" on="1"/>
        <pt x="808" y="679" on="1"/>
        <pt x="808" y="650" on="1"/>
        <pt x="645" y="650" on="1"/>
      </contour>
      <contour>
        <pt x="635" y="573" on="1"/>
        <pt x="803" y="573" on="1"/>
        <pt x="803" y="544" on="1"/>
        <pt x="644" y="544" on="1"/>
      </contour>
      <contour>
        <pt x="629" y="784" on="1"/>
        <pt x="811" y="784" on="1"/>
        <pt x="811" y="755" on="1"/>
        <pt x="638" y="755" on="1"/>
      </contour>
      <contour>
        <pt x="171" y="804" on="1"/>
        <pt x="268" y="777" on="1"/>
        <pt x="264" y="764" on="0"/>
        <pt x="234" y="759" on="1"/>
        <pt x="247" y="456" on="1"/>
        <pt x="185" y="456" on="1"/>
      </contour>
      <contour>
        <pt x="772" y="784" on="1"/>
        <pt x="762" y="784" on="1"/>
        <pt x="795" y="821" on="1"/>
        <pt x="864" y="761" on="1"/>
        <pt x="860" y="756" on="0"/>
        <pt x="845" y="752" on="0"/>
        <pt x="832" y="750" on="1"/>
        <pt x="812" y="455" on="1"/>
        <pt x="749" y="455" on="1"/>
      </contour>
      <contour>
        <pt x="57" y="184" on="1"/>
        <pt x="806" y="184" on="1"/>
        <pt x="853" y="245" on="1"/>
        <pt x="853" y="245" on="0"/>
        <pt x="871" y="231" on="0"/>
        <pt x="899" y="208" on="0"/>
        <pt x="929" y="182" on="0"/>
        <pt x="941" y="170" on="1"/>
        <pt x="937" y="155" on="0"/>
        <pt x="915" y="155" on="1"/>
        <pt x="66" y="155" on="1"/>
      </contour>
      <contour>
        <pt x="469" y="257" on="1"/>
        <pt x="568" y="246" on="1"/>
        <pt x="566" y="236" on="0"/>
        <pt x="550" y="225" on="0"/>
        <pt x="534" y="222" on="1"/>
        <pt x="534" y="17" on="1"/>
        <pt x="534" y="-9" on="0"/>
        <pt x="520" y="-50" on="0"/>
        <pt x="475" y="-75" on="0"/>
        <pt x="427" y="-80" on="1"/>
        <pt x="426" y="-64" on="0"/>
        <pt x="416" y="-39" on="0"/>
        <pt x="404" y="-31" on="1"/>
        <pt x="393" y="-23" on="0"/>
        <pt x="350" y="-11" on="0"/>
        <pt x="315" y="-6" on="1"/>
        <pt x="315" y="9" on="1"/>
        <pt x="315" y="9" on="0"/>
        <pt x="349" y="7" on="0"/>
        <pt x="396" y="4" on="0"/>
        <pt x="438" y="2" on="0"/>
        <pt x="446" y="2" on="1"/>
        <pt x="460" y="2" on="0"/>
        <pt x="469" y="10" on="0"/>
        <pt x="469" y="22" on="1"/>
      </contour>
      <contour>
        <pt x="675" y="353" on="1"/>
        <pt x="663" y="353" on="1"/>
        <pt x="706" y="395" on="1"/>
        <pt x="782" y="326" on="1"/>
        <pt x="776" y="321" on="0"/>
        <pt x="757" y="317" on="0"/>
        <pt x="741" y="316" on="1"/>
        <pt x="713" y="302" on="0"/>
        <pt x="639" y="272" on="0"/>
        <pt x="560" y="244" on="0"/>
        <pt x="523" y="234" on="1"/>
        <pt x="504" y="234" on="1"/>
        <pt x="535" y="250" on="0"/>
        <pt x="599" y="292" on="0"/>
        <pt x="657" y="337" on="0"/>
      </contour>
      <contour>
        <pt x="233" y="353" on="1"/>
        <pt x="715" y="353" on="1"/>
        <pt x="715" y="324" on="1"/>
        <pt x="241" y="324" on="1"/>
      </contour>
      <contour>
        <pt x="128" y="512" on="1"/>
        <pt x="143" y="512" on="1"/>
        <pt x="155" y="467" on="0"/>
        <pt x="153" y="393" on="0"/>
        <pt x="127" y="340" on="0"/>
        <pt x="102" y="327" on="1"/>
        <pt x="82" y="316" on="0"/>
        <pt x="49" y="323" on="0"/>
        <pt x="35" y="348" on="0"/>
        <pt x="46" y="379" on="0"/>
        <pt x="67" y="392" on="1"/>
        <pt x="86" y="402" on="0"/>
        <pt x="127" y="464" on="0"/>
      </contour>
      <contour>
        <pt x="547" y="830" on="1"/>
        <pt x="618" y="794" on="1"/>
        <pt x="611" y="779" on="0"/>
        <pt x="585" y="787" on="1"/>
        <pt x="566" y="763" on="0"/>
        <pt x="508" y="714" on="0"/>
        <pt x="440" y="671" on="0"/>
        <pt x="405" y="656" on="1"/>
        <pt x="394" y="671" on="1"/>
        <pt x="440" y="701" on="0"/>
        <pt x="523" y="788" on="0"/>
      </contour>
      <contour>
        <pt x="563" y="660" on="1"/>
        <pt x="635" y="625" on="1"/>
        <pt x="628" y="610" on="0"/>
        <pt x="602" y="618" on="1"/>
        <pt x="582" y="591" on="0"/>
        <pt x="518" y="538" on="0"/>
        <pt x="442" y="494" on="0"/>
        <pt x="404" y="478" on="1"/>
        <pt x="393" y="494" on="1"/>
        <pt x="444" y="525" on="0"/>
        <pt x="538" y="615" on="0"/>
      </contour>
    </TTGlyph>
    <TTGlyph name="uni5C07" xMin="37" yMin="-78" xMax="970" yMax="839">
      <contour>
        <pt x="203" y="762" on="1" overlap="1"/>
        <pt x="202" y="754" on="0"/>
        <pt x="185" y="742" on="0"/>
        <pt x="162" y="739" on="1"/>
        <pt x="162" y="655" on="1"/>
        <pt x="160" y="655" on="0"/>
        <pt x="148" y="655" on="0"/>
        <pt x="123" y="655" on="0"/>
        <pt x="101" y="655" on="1"/>
        <pt x="101" y="714" on="1"/>
        <pt x="101" y="774" on="1"/>
      </contour>
      <contour>
        <pt x="147" y="714" on="1"/>
        <pt x="162" y="706" on="1"/>
        <pt x="162" y="501" on="1"/>
        <pt x="170" y="501" on="1"/>
        <pt x="145" y="469" on="1"/>
        <pt x="68" y="514" on="1"/>
        <pt x="76" y="522" on="0"/>
        <pt x="104" y="539" on="0"/>
        <pt x="116" y="542" on="1"/>
        <pt x="101" y="507" on="1"/>
        <pt x="101" y="714" on="1"/>
      </contour>
      <contour>
        <pt x="680" y="810" on="1"/>
        <pt x="677" y="803" on="0"/>
        <pt x="662" y="797" on="0"/>
        <pt x="643" y="799" on="1"/>
        <pt x="617" y="758" on="0"/>
        <pt x="539" y="671" on="0"/>
        <pt x="447" y="596" on="0"/>
        <pt x="399" y="570" on="1"/>
        <pt x="388" y="582" on="1"/>
        <pt x="426" y="612" on="0"/>
        <pt x="500" y="698" on="0"/>
        <pt x="560" y="794" on="0"/>
        <pt x="578" y="839" on="1"/>
      </contour>
      <contour>
        <pt x="193" y="360" on="1"/>
        <pt x="191" y="280" on="0"/>
        <pt x="173" y="123" on="0"/>
        <pt x="116" y="-17" on="0"/>
        <pt x="53" y="-74" on="1"/>
        <pt x="37" y="-59" on="1"/>
        <pt x="82" y="0" on="0"/>
        <pt x="119" y="139" on="0"/>
        <pt x="127" y="287" on="0"/>
        <pt x="128" y="360" on="1"/>
      </contour>
      <contour>
        <pt x="318" y="360" on="1"/>
        <pt x="318" y="331" on="1"/>
        <pt x="46" y="331" on="1"/>
        <pt x="37" y="360" on="1"/>
      </contour>
      <contour>
        <pt x="323" y="530" on="1"/>
        <pt x="323" y="501" on="1"/>
        <pt x="125" y="501" on="1"/>
        <pt x="125" y="530" on="1"/>
      </contour>
      <contour>
        <pt x="385" y="820" on="1"/>
        <pt x="383" y="810" on="0"/>
        <pt x="368" y="795" on="0"/>
        <pt x="349" y="792" on="1"/>
        <pt x="349" y="-50" on="1"/>
        <pt x="349" y="-54" on="0"/>
        <pt x="334" y="-67" on="0"/>
        <pt x="311" y="-75" on="0"/>
        <pt x="298" y="-75" on="1"/>
        <pt x="286" y="-75" on="1"/>
        <pt x="286" y="831" on="1"/>
      </contour>
      <contour>
        <pt x="840" y="744" on="1"/>
        <pt x="878" y="780" on="1"/>
        <pt x="950" y="717" on="1"/>
        <pt x="945" y="712" on="0"/>
        <pt x="922" y="707" on="0"/>
        <pt x="905" y="706" on="1"/>
        <pt x="849" y="621" on="0"/>
        <pt x="702" y="488" on="0"/>
        <pt x="511" y="387" on="0"/>
        <pt x="386" y="351" on="1"/>
        <pt x="376" y="367" on="1"/>
        <pt x="539" y="430" on="0"/>
        <pt x="772" y="610" on="0"/>
        <pt x="847" y="744" on="1"/>
      </contour>
      <contour>
        <pt x="883" y="744" on="1"/>
        <pt x="883" y="714" on="1"/>
        <pt x="552" y="714" on="1"/>
        <pt x="574" y="744" on="1"/>
      </contour>
      <contour>
        <pt x="524" y="687" on="1"/>
        <pt x="581" y="676" on="0"/>
        <pt x="655" y="642" on="0"/>
        <pt x="697" y="606" on="0"/>
        <pt x="710" y="572" on="0"/>
        <pt x="703" y="547" on="0"/>
        <pt x="680" y="539" on="0"/>
        <pt x="663" y="546" on="1"/>
        <pt x="651" y="568" on="0"/>
        <pt x="600" y="617" on="0"/>
        <pt x="541" y="662" on="0"/>
        <pt x="514" y="677" on="1"/>
      </contour>
      <contour>
        <pt x="466" y="260" on="1"/>
        <pt x="519" y="241" on="0"/>
        <pt x="583" y="194" on="0"/>
        <pt x="615" y="147" on="0"/>
        <pt x="620" y="107" on="0"/>
        <pt x="604" y="81" on="0"/>
        <pt x="576" y="76" on="0"/>
        <pt x="559" y="89" on="1"/>
        <pt x="555" y="116" on="0"/>
        <pt x="522" y="177" on="0"/>
        <pt x="477" y="233" on="0"/>
        <pt x="455" y="252" on="1"/>
      </contour>
      <contour>
        <pt x="840" y="472" on="1"/>
        <pt x="838" y="462" on="0"/>
        <pt x="822" y="449" on="0"/>
        <pt x="804" y="447" on="1"/>
        <pt x="804" y="20" on="1"/>
        <pt x="804" y="-6" on="0"/>
        <pt x="790" y="-46" on="0"/>
        <pt x="741" y="-72" on="0"/>
        <pt x="689" y="-78" on="1"/>
        <pt x="686" y="-62" on="0"/>
        <pt x="674" y="-38" on="0"/>
        <pt x="662" y="-31" on="1"/>
        <pt x="649" y="-22" on="0"/>
        <pt x="600" y="-8" on="0"/>
        <pt x="558" y="-4" on="1"/>
        <pt x="558" y="11" on="1"/>
        <pt x="558" y="11" on="0"/>
        <pt x="598" y="9" on="0"/>
        <pt x="654" y="5" on="0"/>
        <pt x="704" y="2" on="0"/>
        <pt x="713" y="2" on="1"/>
        <pt x="729" y="2" on="0"/>
        <pt x="741" y="12" on="0"/>
        <pt x="741" y="25" on="1"/>
        <pt x="741" y="483" on="1"/>
      </contour>
      <contour>
        <pt x="890" y="391" on="1"/>
        <pt x="890" y="391" on="0"/>
        <pt x="907" y="377" on="0"/>
        <pt x="932" y="355" on="0"/>
        <pt x="960" y="330" on="0"/>
        <pt x="970" y="318" on="1"/>
        <pt x="969" y="310" on="0"/>
        <pt x="955" y="302" on="0"/>
        <pt x="944" y="302" on="1"/>
        <pt x="383" y="302" on="1"/>
        <pt x="375" y="331" on="1"/>
        <pt x="846" y="331" on="1"/>
      </contour>
      <contour>
        <pt x="374" y="517" on="1"/>
        <pt x="396" y="521" on="0"/>
        <pt x="468" y="538" on="0"/>
        <pt x="556" y="561" on="0"/>
        <pt x="600" y="573" on="1"/>
        <pt x="603" y="559" on="1"/>
        <pt x="574" y="542" on="0"/>
        <pt x="488" y="496" on="0"/>
        <pt x="432" y="470" on="1"/>
        <pt x="428" y="451" on="0"/>
        <pt x="413" y="446" on="1"/>
      </contour>
    </TTGlyph>
    <TTGlyph name="uni5C0D" xMin="39" yMin="-78" xMax="977" yMax="837">
      <contour>
        <pt x="556" y="559" on="1" overlap="1"/>
        <pt x="858" y="559" on="1"/>
        <pt x="900" y="616" on="1"/>
        <pt x="900" y="616" on="0"/>
        <pt x="926" y="593" on="0"/>
        <pt x="963" y="561" on="0"/>
        <pt x="977" y="546" on="1"/>
        <pt x="973" y="530" on="0"/>
        <pt x="952" y="530" on="1"/>
        <pt x="563" y="530" on="1"/>
      </contour>
      <contour>
        <pt x="39" y="597" on="1"/>
        <pt x="476" y="597" on="1"/>
        <pt x="518" y="650" on="1"/>
        <pt x="518" y="650" on="0"/>
        <pt x="545" y="629" on="0"/>
        <pt x="582" y="598" on="0"/>
        <pt x="597" y="583" on="1"/>
        <pt x="593" y="567" on="0"/>
        <pt x="571" y="567" on="1"/>
        <pt x="47" y="567" on="1"/>
      </contour>
      <contour>
        <pt x="78" y="397" on="1"/>
        <pt x="436" y="397" on="1"/>
        <pt x="478" y="447" on="1"/>
        <pt x="478" y="447" on="0"/>
        <pt x="503" y="427" on="0"/>
        <pt x="539" y="397" on="0"/>
        <pt x="554" y="383" on="1"/>
        <pt x="550" y="367" on="0"/>
        <pt x="527" y="367" on="1"/>
        <pt x="86" y="367" on="1"/>
      </contour>
      <contour>
        <pt x="102" y="232" on="1"/>
        <pt x="407" y="232" on="1"/>
        <pt x="447" y="284" on="1"/>
        <pt x="447" y="284" on="0"/>
        <pt x="473" y="262" on="0"/>
        <pt x="510" y="233" on="0"/>
        <pt x="523" y="219" on="1"/>
        <pt x="520" y="203" on="0"/>
        <pt x="499" y="203" on="1"/>
        <pt x="110" y="203" on="1"/>
      </contour>
      <contour>
        <pt x="784" y="824" on="1"/>
        <pt x="884" y="813" on="1"/>
        <pt x="882" y="803" on="0"/>
        <pt x="865" y="788" on="0"/>
        <pt x="847" y="786" on="1"/>
        <pt x="847" y="18" on="1"/>
        <pt x="847" y="-8" on="0"/>
        <pt x="835" y="-48" on="0"/>
        <pt x="791" y="-73" on="0"/>
        <pt x="744" y="-78" on="1"/>
        <pt x="742" y="-63" on="0"/>
        <pt x="732" y="-38" on="0"/>
        <pt x="722" y="-30" on="1"/>
        <pt x="711" y="-21" on="0"/>
        <pt x="670" y="-10" on="0"/>
        <pt x="636" y="-5" on="1"/>
        <pt x="636" y="11" on="1"/>
        <pt x="636" y="11" on="0"/>
        <pt x="668" y="9" on="0"/>
        <pt x="712" y="5" on="0"/>
        <pt x="752" y="3" on="0"/>
        <pt x="760" y="3" on="1"/>
        <pt x="773" y="3" on="0"/>
        <pt x="784" y="13" on="0"/>
        <pt x="784" y="25" on="1"/>
      </contour>
      <contour>
        <pt x="606" y="451" on="1"/>
        <pt x="651" y="418" on="0"/>
        <pt x="702" y="352" on="0"/>
        <pt x="721" y="293" on="0"/>
        <pt x="717" y="246" on="0"/>
        <pt x="697" y="217" on="0"/>
        <pt x="667" y="216" on="0"/>
        <pt x="652" y="232" on="1"/>
        <pt x="654" y="267" on="0"/>
        <pt x="637" y="344" on="0"/>
        <pt x="609" y="417" on="0"/>
        <pt x="593" y="445" on="1"/>
      </contour>
      <contour>
        <pt x="67" y="802" on="1"/>
        <pt x="110" y="779" on="0"/>
        <pt x="159" y="730" on="0"/>
        <pt x="179" y="684" on="0"/>
        <pt x="176" y="646" on="0"/>
        <pt x="158" y="624" on="0"/>
        <pt x="132" y="623" on="0"/>
        <pt x="118" y="635" on="1"/>
        <pt x="118" y="662" on="0"/>
        <pt x="98" y="721" on="0"/>
        <pt x="70" y="776" on="0"/>
        <pt x="55" y="796" on="1"/>
      </contour>
      <contour>
        <pt x="149" y="572" on="1"/>
        <pt x="189" y="549" on="0"/>
        <pt x="234" y="500" on="0"/>
        <pt x="251" y="454" on="0"/>
        <pt x="248" y="418" on="0"/>
        <pt x="228" y="397" on="0"/>
        <pt x="201" y="396" on="0"/>
        <pt x="187" y="410" on="1"/>
        <pt x="189" y="448" on="0"/>
        <pt x="157" y="536" on="0"/>
        <pt x="136" y="566" on="1"/>
      </contour>
      <contour>
        <pt x="209" y="837" on="1"/>
        <pt x="299" y="827" on="1"/>
        <pt x="298" y="818" on="0"/>
        <pt x="283" y="804" on="0"/>
        <pt x="266" y="801" on="1"/>
        <pt x="266" y="583" on="1"/>
        <pt x="209" y="583" on="1"/>
      </contour>
      <contour>
        <pt x="339" y="837" on="1"/>
        <pt x="431" y="827" on="1"/>
        <pt x="430" y="817" on="0"/>
        <pt x="414" y="803" on="0"/>
        <pt x="396" y="801" on="1"/>
        <pt x="396" y="583" on="1"/>
        <pt x="339" y="583" on="1"/>
      </contour>
      <contour>
        <pt x="269" y="397" on="1"/>
        <pt x="333" y="397" on="1"/>
        <pt x="333" y="40" on="1"/>
        <pt x="269" y="28" on="1"/>
      </contour>
      <contour>
        <pt x="392" y="574" on="1"/>
        <pt x="494" y="547" on="1"/>
        <pt x="491" y="538" on="0"/>
        <pt x="472" y="526" on="0"/>
        <pt x="456" y="527" on="1"/>
        <pt x="438" y="497" on="0"/>
        <pt x="381" y="419" on="0"/>
        <pt x="355" y="386" on="1"/>
        <pt x="335" y="386" on="1"/>
        <pt x="345" y="412" on="0"/>
        <pt x="365" y="479" on="0"/>
        <pt x="385" y="546" on="0"/>
      </contour>
      <contour>
        <pt x="48" y="31" on="1"/>
        <pt x="92" y="35" on="0"/>
        <pt x="249" y="52" on="0"/>
        <pt x="448" y="76" on="0"/>
        <pt x="554" y="91" on="1"/>
        <pt x="556" y="74" on="1"/>
        <pt x="480" y="52" on="0"/>
        <pt x="262" y="-2" on="0"/>
        <pt x="113" y="-35" on="1"/>
        <pt x="106" y="-53" on="0"/>
        <pt x="89" y="-58" on="1"/>
      </contour>
      <contour>
        <pt x="490" y="807" on="1"/>
        <pt x="585" y="767" on="1"/>
        <pt x="581" y="759" on="0"/>
        <pt x="564" y="750" on="0"/>
        <pt x="549" y="751" on="1"/>
        <pt x="521" y="716" on="0"/>
        <pt x="459" y="646" on="0"/>
        <pt x="430" y="622" on="1"/>
        <pt x="415" y="631" on="1"/>
        <pt x="431" y="664" on="0"/>
        <pt x="473" y="759" on="0"/>
      </contour>
    </TTGlyph>
    <TTGlyph name="uni5C31" xMin="37" yMin="-79" xMax="972" yMax="837">
      <contour>
        <pt x="769" y="548" on="1" overlap="1"/>
        <pt x="769" y="539" on="0"/>
        <pt x="769" y="520" on="0"/>
        <pt x="769" y="515" on="1"/>
        <pt x="769" y="24" on="1"/>
        <pt x="769" y="12" on="0"/>
        <pt x="778" y="3" on="0"/>
        <pt x="795" y="3" on="1"/>
        <pt x="842" y="3" on="1"/>
        <pt x="859" y="3" on="0"/>
        <pt x="883" y="3" on="0"/>
        <pt x="888" y="4" on="1"/>
        <pt x="893" y="5" on="0"/>
        <pt x="900" y="10" on="0"/>
        <pt x="902" y="17" on="1"/>
        <pt x="906" y="25" on="0"/>
        <pt x="916" y="76" on="0"/>
        <pt x="926" y="143" on="0"/>
        <pt x="931" y="175" on="1"/>
        <pt x="944" y="175" on="1"/>
        <pt x="947" y="12" on="1"/>
        <pt x="963" y="6" on="0"/>
        <pt x="972" y="-7" on="0"/>
        <pt x="972" y="-16" on="1"/>
        <pt x="972" y="-29" on="0"/>
        <pt x="950" y="-48" on="0"/>
        <pt x="894" y="-56" on="0"/>
        <pt x="842" y="-56" on="1"/>
        <pt x="780" y="-56" on="1"/>
        <pt x="750" y="-56" on="0"/>
        <pt x="718" y="-43" on="0"/>
        <pt x="708" y="-15" on="0"/>
        <pt x="708" y="7" on="1"/>
        <pt x="708" y="548" on="1"/>
      </contour>
      <contour>
        <pt x="212" y="837" on="1"/>
        <pt x="258" y="824" on="0"/>
        <pt x="313" y="788" on="0"/>
        <pt x="338" y="750" on="0"/>
        <pt x="339" y="716" on="0"/>
        <pt x="322" y="695" on="0"/>
        <pt x="295" y="690" on="0"/>
        <pt x="279" y="701" on="1"/>
        <pt x="272" y="733" on="0"/>
        <pt x="224" y="806" on="0"/>
        <pt x="201" y="829" on="1"/>
      </contour>
      <contour>
        <pt x="227" y="234" on="1"/>
        <pt x="224" y="226" on="0"/>
        <pt x="206" y="214" on="0"/>
        <pt x="190" y="215" on="1"/>
        <pt x="165" y="155" on="0"/>
        <pt x="93" y="53" on="0"/>
        <pt x="51" y="18" on="1"/>
        <pt x="37" y="27" on="1"/>
        <pt x="66" y="71" on="0"/>
        <pt x="119" y="195" on="0"/>
        <pt x="135" y="264" on="1"/>
      </contour>
      <contour>
        <pt x="370" y="262" on="1"/>
        <pt x="417" y="239" on="0"/>
        <pt x="471" y="189" on="0"/>
        <pt x="494" y="142" on="0"/>
        <pt x="494" y="103" on="0"/>
        <pt x="477" y="80" on="0"/>
        <pt x="449" y="78" on="0"/>
        <pt x="434" y="91" on="1"/>
        <pt x="432" y="119" on="0"/>
        <pt x="409" y="178" on="0"/>
        <pt x="375" y="234" on="0"/>
        <pt x="358" y="255" on="1"/>
      </contour>
      <contour>
        <pt x="170" y="317" on="1"/>
        <pt x="170" y="314" on="0"/>
        <pt x="155" y="305" on="0"/>
        <pt x="132" y="297" on="0"/>
        <pt x="118" y="297" on="1"/>
        <pt x="109" y="297" on="1"/>
        <pt x="109" y="560" on="1"/>
        <pt x="109" y="590" on="1"/>
        <pt x="109" y="590" on="1"/>
        <pt x="175" y="560" on="1"/>
        <pt x="435" y="560" on="1"/>
        <pt x="435" y="530" on="1"/>
        <pt x="170" y="530" on="1"/>
      </contour>
      <contour>
        <pt x="724" y="824" on="1"/>
        <pt x="722" y="814" on="0"/>
        <pt x="706" y="800" on="0"/>
        <pt x="688" y="797" on="1"/>
        <pt x="686" y="685" on="0"/>
        <pt x="682" y="478" on="0"/>
        <pt x="659" y="291" on="0"/>
        <pt x="602" y="124" on="0"/>
        <pt x="495" y="-20" on="0"/>
        <pt x="407" y="-79" on="1"/>
        <pt x="394" y="-63" on="1"/>
        <pt x="468" y="0" on="0"/>
        <pt x="557" y="147" on="0"/>
        <pt x="603" y="318" on="0"/>
        <pt x="620" y="508" on="0"/>
        <pt x="621" y="720" on="0"/>
        <pt x="621" y="835" on="1"/>
      </contour>
      <contour>
        <pt x="762" y="785" on="1"/>
        <pt x="809" y="768" on="0"/>
        <pt x="865" y="729" on="0"/>
        <pt x="890" y="689" on="0"/>
        <pt x="892" y="655" on="0"/>
        <pt x="876" y="634" on="0"/>
        <pt x="849" y="632" on="0"/>
        <pt x="833" y="643" on="1"/>
        <pt x="829" y="665" on="0"/>
        <pt x="802" y="715" on="0"/>
        <pt x="768" y="761" on="0"/>
        <pt x="751" y="778" on="1"/>
      </contour>
      <contour>
        <pt x="319" y="16" on="1"/>
        <pt x="319" y="-9" on="0"/>
        <pt x="306" y="-48" on="0"/>
        <pt x="266" y="-74" on="0"/>
        <pt x="225" y="-79" on="1"/>
        <pt x="224" y="-65" on="0"/>
        <pt x="218" y="-40" on="0"/>
        <pt x="209" y="-32" on="1"/>
        <pt x="200" y="-24" on="0"/>
        <pt x="166" y="-12" on="0"/>
        <pt x="137" y="-9" on="1"/>
        <pt x="137" y="7" on="1"/>
        <pt x="137" y="7" on="0"/>
        <pt x="163" y="5" on="0"/>
        <pt x="197" y="2" on="0"/>
        <pt x="229" y="0" on="0"/>
        <pt x="235" y="0" on="1"/>
        <pt x="248" y="0" on="0"/>
        <pt x="256" y="8" on="0"/>
        <pt x="256" y="18" on="1"/>
        <pt x="256" y="372" on="1"/>
        <pt x="319" y="372" on="1"/>
      </contour>
      <contour>
        <pt x="879" y="614" on="1"/>
        <pt x="879" y="614" on="0"/>
        <pt x="896" y="601" on="0"/>
        <pt x="923" y="578" on="0"/>
        <pt x="952" y="554" on="0"/>
        <pt x="964" y="542" on="1"/>
        <pt x="961" y="526" on="0"/>
        <pt x="939" y="526" on="1"/>
        <pt x="517" y="526" on="1"/>
        <pt x="509" y="556" on="1"/>
        <pt x="833" y="556" on="1"/>
      </contour>
      <contour>
        <pt x="474" y="738" on="1"/>
        <pt x="474" y="738" on="0"/>
        <pt x="492" y="725" on="0"/>
        <pt x="520" y="702" on="0"/>
        <pt x="550" y="676" on="0"/>
        <pt x="562" y="664" on="1"/>
        <pt x="558" y="648" on="0"/>
        <pt x="535" y="648" on="1"/>
        <pt x="48" y="648" on="1"/>
        <pt x="40" y="678" on="1"/>
        <pt x="427" y="678" on="1"/>
      </contour>
      <contour>
        <pt x="393" y="560" on="1"/>
        <pt x="428" y="597" on="1"/>
        <pt x="504" y="539" on="1"/>
        <pt x="500" y="533" on="0"/>
        <pt x="479" y="523" on="0"/>
        <pt x="465" y="521" on="1"/>
        <pt x="465" y="329" on="1"/>
        <pt x="465" y="326" on="0"/>
        <pt x="447" y="316" on="0"/>
        <pt x="423" y="308" on="0"/>
        <pt x="412" y="308" on="1"/>
        <pt x="403" y="308" on="1"/>
        <pt x="403" y="560" on="1"/>
      </contour>
      <contour>
        <pt x="438" y="374" on="1"/>
        <pt x="438" y="344" on="1"/>
        <pt x="143" y="344" on="1"/>
        <pt x="143" y="374" on="1"/>
      </contour>
    </TTGlyph>
    <TTGlyph name="uni5DF2" xMin="93" yMin="-45" xMax="939" yMax="793">
      <contour>
        <pt x="153" y="603" on="1" overlap="1"/>
        <pt x="252" y="593" on="1"/>
        <pt x="250" y="583" on="0"/>
        <pt x="236" y="570" on="0"/>
        <pt x="219" y="567" on="1"/>
        <pt x="219" y="92" on="1"/>
        <pt x="153" y="92" on="1"/>
      </contour>
      <contour>
        <pt x="738" y="751" on="1"/>
        <pt x="727" y="751" on="1"/>
        <pt x="765" y="793" on="1"/>
        <pt x="852" y="728" on="1"/>
        <pt x="846" y="721" on="0"/>
        <pt x="822" y="708" on="0"/>
        <pt x="805" y="705" on="1"/>
        <pt x="805" y="365" on="1"/>
        <pt x="805" y="362" on="0"/>
        <pt x="785" y="351" on="0"/>
        <pt x="759" y="342" on="0"/>
        <pt x="748" y="342" on="1"/>
        <pt x="738" y="342" on="1"/>
      </contour>
      <contour>
        <pt x="153" y="116" on="1"/>
        <pt x="219" y="116" on="1"/>
        <pt x="219" y="67" on="1"/>
        <pt x="219" y="36" on="0"/>
        <pt x="274" y="17" on="0"/>
        <pt x="325" y="17" on="1"/>
        <pt x="717" y="17" on="1"/>
        <pt x="774" y="17" on="0"/>
        <pt x="824" y="30" on="0"/>
        <pt x="835" y="53" on="1"/>
        <pt x="842" y="67" on="0"/>
        <pt x="859" y="126" on="0"/>
        <pt x="875" y="197" on="0"/>
        <pt x="880" y="227" on="1"/>
        <pt x="892" y="227" on="1"/>
        <pt x="893" y="40" on="1"/>
        <pt x="919" y="33" on="0"/>
        <pt x="939" y="22" on="0"/>
        <pt x="939" y="11" on="1"/>
        <pt x="939" y="-1" on="0"/>
        <pt x="919" y="-22" on="0"/>
        <pt x="871" y="-37" on="0"/>
        <pt x="787" y="-45" on="0"/>
        <pt x="722" y="-45" on="1"/>
        <pt x="331" y="-45" on="1"/>
        <pt x="243" y="-45" on="0"/>
        <pt x="153" y="3" on="0"/>
        <pt x="153" y="69" on="1"/>
      </contour>
      <contour>
        <pt x="93" y="751" on="1"/>
        <pt x="761" y="751" on="1"/>
        <pt x="761" y="721" on="1"/>
        <pt x="102" y="721" on="1"/>
      </contour>
      <contour>
        <pt x="192" y="452" on="1"/>
        <pt x="765" y="452" on="1"/>
        <pt x="765" y="423" on="1"/>
        <pt x="192" y="423" on="1"/>
      </contour>
    </TTGlyph>
    <TTGlyph name="uni5E74" xMin="37" yMin="-77" xMax="959" yMax="854">
      <contour>
        <pt x="43" y="215" on="1" overlap="1"/>
        <pt x="812" y="215" on="1"/>
        <pt x="864" y="278" on="1"/>
        <pt x="864" y="278" on="0"/>
        <pt x="883" y="263" on="0"/>
        <pt x="913" y="240" on="0"/>
        <pt x="945" y="213" on="0"/>
        <pt x="959" y="201" on="1"/>
        <pt x="955" y="185" on="0"/>
        <pt x="932" y="185" on="1"/>
        <pt x="51" y="185" on="1"/>
      </contour>
      <contour>
        <pt x="507" y="692" on="1"/>
        <pt x="575" y="692" on="1"/>
        <pt x="575" y="-56" on="1"/>
        <pt x="575" y="-59" on="0"/>
        <pt x="544" y="-77" on="0"/>
        <pt x="518" y="-77" on="1"/>
        <pt x="507" y="-77" on="1"/>
      </contour>
      <contour>
        <pt x="252" y="476" on="1"/>
        <pt x="753" y="476" on="1"/>
        <pt x="800" y="535" on="1"/>
        <pt x="800" y="535" on="0"/>
        <pt x="818" y="521" on="0"/>
        <pt x="845" y="499" on="0"/>
        <pt x="875" y="474" on="0"/>
        <pt x="888" y="462" on="1"/>
        <pt x="885" y="446" on="0"/>
        <pt x="861" y="446" on="1"/>
        <pt x="252" y="446" on="1"/>
      </contour>
      <contour>
        <pt x="218" y="476" on="1"/>
        <pt x="218" y="509" on="1"/>
        <pt x="298" y="476" on="1"/>
        <pt x="286" y="476" on="1"/>
        <pt x="286" y="197" on="1"/>
        <pt x="218" y="197" on="1"/>
      </contour>
      <contour>
        <pt x="294" y="854" on="1"/>
        <pt x="396" y="813" on="1"/>
        <pt x="392" y="805" on="0"/>
        <pt x="374" y="795" on="0"/>
        <pt x="357" y="796" on="1"/>
        <pt x="298" y="678" on="0"/>
        <pt x="138" y="490" on="0"/>
        <pt x="49" y="431" on="1"/>
        <pt x="37" y="443" on="1"/>
        <pt x="85" y="488" on="0"/>
        <pt x="179" y="617" on="0"/>
        <pt x="264" y="772" on="0"/>
      </contour>
      <contour>
        <pt x="255" y="692" on="1"/>
        <pt x="775" y="692" on="1"/>
        <pt x="826" y="754" on="1"/>
        <pt x="826" y="754" on="0"/>
        <pt x="844" y="740" on="0"/>
        <pt x="874" y="718" on="0"/>
        <pt x="905" y="691" on="0"/>
        <pt x="919" y="678" on="1"/>
        <pt x="917" y="670" on="0"/>
        <pt x="904" y="662" on="0"/>
        <pt x="893" y="662" on="1"/>
        <pt x="241" y="662" on="1"/>
      </contour>
    </TTGlyph>
    <TTGlyph name="uni60C5" xMin="35" yMin="-81" xMax="962" yMax="839">
      <contour>
        <pt x="835" y="404" on="1" overlap="1"/>
        <pt x="835" y="375" on="1"/>
        <pt x="471" y="375" on="1"/>
        <pt x="471" y="404" on="1"/>
      </contour>
      <contour>
        <pt x="436" y="414" on="1"/>
        <pt x="436" y="438" on="1"/>
        <pt x="511" y="404" on="1"/>
        <pt x="499" y="404" on="1"/>
        <pt x="499" y="226" on="1"/>
        <pt x="499" y="187" on="0"/>
        <pt x="490" y="103" on="0"/>
        <pt x="461" y="21" on="0"/>
        <pt x="401" y="-52" on="0"/>
        <pt x="351" y="-81" on="1"/>
        <pt x="340" y="-69" on="1"/>
        <pt x="383" y="-28" on="0"/>
        <pt x="424" y="67" on="0"/>
        <pt x="436" y="172" on="0"/>
        <pt x="436" y="226" on="1"/>
        <pt x="436" y="404" on="1"/>
      </contour>
      <contour>
        <pt x="840" y="170" on="1"/>
        <pt x="840" y="141" on="1"/>
        <pt x="466" y="141" on="1"/>
        <pt x="466" y="170" on="1"/>
      </contour>
      <contour>
        <pt x="790" y="404" on="1"/>
        <pt x="823" y="445" on="1"/>
        <pt x="906" y="383" on="1"/>
        <pt x="901" y="377" on="0"/>
        <pt x="878" y="366" on="0"/>
        <pt x="863" y="363" on="1"/>
        <pt x="863" y="21" on="1"/>
        <pt x="863" y="-3" on="0"/>
        <pt x="851" y="-41" on="0"/>
        <pt x="810" y="-65" on="0"/>
        <pt x="767" y="-70" on="1"/>
        <pt x="765" y="-55" on="0"/>
        <pt x="756" y="-31" on="0"/>
        <pt x="747" y="-22" on="1"/>
        <pt x="737" y="-15" on="0"/>
        <pt x="702" y="-3" on="0"/>
        <pt x="673" y="1" on="1"/>
        <pt x="673" y="17" on="1"/>
        <pt x="673" y="17" on="0"/>
        <pt x="701" y="15" on="0"/>
        <pt x="738" y="12" on="0"/>
        <pt x="772" y="10" on="0"/>
        <pt x="779" y="10" on="1"/>
        <pt x="791" y="10" on="0"/>
        <pt x="800" y="19" on="0"/>
        <pt x="800" y="30" on="1"/>
        <pt x="800" y="404" on="1"/>
      </contour>
      <contour>
        <pt x="841" y="286" on="1"/>
        <pt x="841" y="257" on="1"/>
        <pt x="468" y="257" on="1"/>
        <pt x="468" y="286" on="1"/>
      </contour>
      <contour>
        <pt x="707" y="829" on="1"/>
        <pt x="706" y="819" on="0"/>
        <pt x="692" y="806" on="0"/>
        <pt x="674" y="803" on="1"/>
        <pt x="674" y="484" on="1"/>
        <pt x="610" y="484" on="1"/>
        <pt x="610" y="839" on="1"/>
      </contour>
      <contour>
        <pt x="880" y="559" on="1"/>
        <pt x="880" y="559" on="0"/>
        <pt x="896" y="545" on="0"/>
        <pt x="922" y="524" on="0"/>
        <pt x="951" y="499" on="0"/>
        <pt x="962" y="488" on="1"/>
        <pt x="959" y="472" on="0"/>
        <pt x="936" y="472" on="1"/>
        <pt x="360" y="472" on="1"/>
        <pt x="352" y="502" on="1"/>
        <pt x="835" y="502" on="1"/>
      </contour>
      <contour>
        <pt x="832" y="674" on="1"/>
        <pt x="832" y="674" on="0"/>
        <pt x="858" y="653" on="0"/>
        <pt x="894" y="625" on="0"/>
        <pt x="910" y="610" on="1"/>
        <pt x="906" y="594" on="0"/>
        <pt x="883" y="594" on="1"/>
        <pt x="417" y="594" on="1"/>
        <pt x="409" y="624" on="1"/>
        <pt x="789" y="624" on="1"/>
      </contour>
      <contour>
        <pt x="862" y="792" on="1"/>
        <pt x="862" y="792" on="0"/>
        <pt x="879" y="778" on="0"/>
        <pt x="905" y="757" on="0"/>
        <pt x="933" y="733" on="0"/>
        <pt x="945" y="722" on="1"/>
        <pt x="941" y="706" on="0"/>
        <pt x="918" y="706" on="1"/>
        <pt x="391" y="706" on="1"/>
        <pt x="383" y="735" on="1"/>
        <pt x="817" y="735" on="1"/>
      </contour>
      <contour>
        <pt x="270" y="682" on="1"/>
        <pt x="315" y="655" on="0"/>
        <pt x="360" y="597" on="0"/>
        <pt x="369" y="548" on="0"/>
        <pt x="353" y="517" on="0"/>
        <pt x="324" y="510" on="0"/>
        <pt x="308" y="526" on="1"/>
        <pt x="307" y="562" on="0"/>
        <pt x="276" y="648" on="0"/>
        <pt x="258" y="677" on="1"/>
      </contour>
      <contour>
        <pt x="121" y="643" on="1"/>
        <pt x="142" y="566" on="0"/>
        <pt x="131" y="448" on="0"/>
        <pt x="113" y="420" on="1"/>
        <pt x="105" y="407" on="0"/>
        <pt x="79" y="393" on="0"/>
        <pt x="54" y="393" on="0"/>
        <pt x="45" y="402" on="1"/>
        <pt x="35" y="415" on="0"/>
        <pt x="45" y="447" on="0"/>
        <pt x="58" y="460" on="1"/>
        <pt x="70" y="477" on="0"/>
        <pt x="93" y="537" on="0"/>
        <pt x="105" y="610" on="0"/>
        <pt x="103" y="644" on="1"/>
      </contour>
      <contour>
        <pt x="275" y="827" on="1"/>
        <pt x="273" y="817" on="0"/>
        <pt x="258" y="802" on="0"/>
        <pt x="239" y="799" on="1"/>
        <pt x="239" y="-55" on="1"/>
        <pt x="239" y="-59" on="0"/>
        <pt x="224" y="-71" on="0"/>
        <pt x="201" y="-78" on="0"/>
        <pt x="188" y="-78" on="1"/>
        <pt x="176" y="-78" on="1"/>
        <pt x="176" y="838" on="1"/>
      </contour>
    </TTGlyph>
    <TTGlyph name="uni60F3" xMin="32" yMin="-43" xMax="947" yMax="844">
      <contour>
        <pt x="383" y="215" on="1" overlap="1"/>
        <pt x="382" y="206" on="0"/>
        <pt x="368" y="193" on="0"/>
        <pt x="353" y="191" on="1"/>
        <pt x="353" y="34" on="1"/>
        <pt x="353" y="23" on="0"/>
        <pt x="370" y="16" on="0"/>
        <pt x="407" y="16" on="1"/>
        <pt x="550" y="16" on="1"/>
        <pt x="599" y="16" on="0"/>
        <pt x="669" y="17" on="0"/>
        <pt x="682" y="18" on="1"/>
        <pt x="693" y="19" on="0"/>
        <pt x="703" y="24" on="0"/>
        <pt x="707" y="31" on="1"/>
        <pt x="713" y="42" on="0"/>
        <pt x="729" y="97" on="0"/>
        <pt x="737" y="134" on="1"/>
        <pt x="750" y="134" on="1"/>
        <pt x="752" y="27" on="1"/>
        <pt x="771" y="22" on="0"/>
        <pt x="784" y="10" on="0"/>
        <pt x="784" y="-1" on="1"/>
        <pt x="784" y="-12" on="0"/>
        <pt x="766" y="-29" on="0"/>
        <pt x="716" y="-39" on="0"/>
        <pt x="623" y="-43" on="0"/>
        <pt x="547" y="-43" on="1"/>
        <pt x="400" y="-43" on="1"/>
        <pt x="353" y="-43" on="0"/>
        <pt x="305" y="-32" on="0"/>
        <pt x="288" y="-4" on="0"/>
        <pt x="288" y="22" on="1"/>
        <pt x="288" y="225" on="1"/>
      </contour>
      <contour>
        <pt x="299" y="658" on="1"/>
        <pt x="264" y="548" on="0"/>
        <pt x="136" y="360" on="0"/>
        <pt x="45" y="289" on="1"/>
        <pt x="32" y="303" on="1"/>
        <pt x="79" y="353" on="0"/>
        <pt x="155" y="473" on="0"/>
        <pt x="210" y="606" on="0"/>
        <pt x="228" y="674" on="1"/>
        <pt x="299" y="674" on="1"/>
      </contour>
      <contour>
        <pt x="342" y="835" on="1"/>
        <pt x="340" y="824" on="0"/>
        <pt x="325" y="810" on="0"/>
        <pt x="307" y="807" on="1"/>
        <pt x="307" y="269" on="1"/>
        <pt x="307" y="265" on="0"/>
        <pt x="291" y="253" on="0"/>
        <pt x="268" y="245" on="0"/>
        <pt x="256" y="245" on="1"/>
        <pt x="243" y="245" on="1"/>
        <pt x="243" y="844" on="1"/>
      </contour>
      <contour>
        <pt x="412" y="732" on="1"/>
        <pt x="412" y="732" on="0"/>
        <pt x="439" y="709" on="0"/>
        <pt x="478" y="676" on="0"/>
        <pt x="493" y="660" on="1"/>
        <pt x="490" y="644" on="0"/>
        <pt x="467" y="644" on="1"/>
        <pt x="53" y="644" on="1"/>
        <pt x="45" y="674" on="1"/>
        <pt x="367" y="674" on="1"/>
      </contour>
      <contour>
        <pt x="299" y="566" on="1"/>
        <pt x="354" y="551" on="0"/>
        <pt x="422" y="509" on="0"/>
        <pt x="456" y="465" on="0"/>
        <pt x="462" y="425" on="0"/>
        <pt x="449" y="398" on="0"/>
        <pt x="421" y="392" on="0"/>
        <pt x="404" y="403" on="1"/>
        <pt x="399" y="432" on="0"/>
        <pt x="362" y="489" on="0"/>
        <pt x="313" y="540" on="0"/>
        <pt x="289" y="558" on="1"/>
      </contour>
      <contour>
        <pt x="812" y="770" on="1"/>
        <pt x="849" y="811" on="1"/>
        <pt x="930" y="748" on="1"/>
        <pt x="925" y="742" on="0"/>
        <pt x="902" y="732" on="0"/>
        <pt x="887" y="729" on="1"/>
        <pt x="887" y="277" on="1"/>
        <pt x="887" y="274" on="0"/>
        <pt x="868" y="264" on="0"/>
        <pt x="843" y="255" on="0"/>
        <pt x="832" y="255" on="1"/>
        <pt x="822" y="255" on="1"/>
        <pt x="822" y="770" on="1"/>
      </contour>
      <contour>
        <pt x="854" y="349" on="1"/>
        <pt x="854" y="319" on="1"/>
        <pt x="549" y="319" on="1"/>
        <pt x="549" y="349" on="1"/>
      </contour>
      <contour>
        <pt x="854" y="489" on="1"/>
        <pt x="854" y="460" on="1"/>
        <pt x="549" y="460" on="1"/>
        <pt x="549" y="489" on="1"/>
      </contour>
      <contour>
        <pt x="854" y="632" on="1"/>
        <pt x="854" y="602" on="1"/>
        <pt x="549" y="602" on="1"/>
        <pt x="549" y="632" on="1"/>
      </contour>
      <contour>
        <pt x="577" y="278" on="1"/>
        <pt x="577" y="275" on="0"/>
        <pt x="562" y="265" on="0"/>
        <pt x="538" y="256" on="0"/>
        <pt x="524" y="256" on="1"/>
        <pt x="513" y="256" on="1"/>
        <pt x="513" y="770" on="1"/>
        <pt x="513" y="802" on="1"/>
        <pt x="513" y="802" on="1"/>
        <pt x="582" y="770" on="1"/>
        <pt x="860" y="770" on="1"/>
        <pt x="860" y="741" on="1"/>
        <pt x="577" y="741" on="1"/>
      </contour>
      <contour>
        <pt x="191" y="201" on="1"/>
        <pt x="204" y="145" on="0"/>
        <pt x="187" y="58" on="0"/>
        <pt x="149" y="1" on="0"/>
        <pt x="129" y="-12" on="1"/>
        <pt x="117" y="-21" on="0"/>
        <pt x="88" y="-29" on="0"/>
        <pt x="64" y="-25" on="0"/>
        <pt x="58" y="-14" on="1"/>
        <pt x="51" y="0" on="0"/>
        <pt x="67" y="28" on="0"/>
        <pt x="81" y="38" on="1"/>
        <pt x="103" y="51" on="0"/>
        <pt x="144" y="99" on="0"/>
        <pt x="173" y="164" on="0"/>
        <pt x="174" y="201" on="1"/>
      </contour>
      <contour>
        <pt x="769" y="208" on="1"/>
        <pt x="829" y="183" on="0"/>
        <pt x="903" y="126" on="0"/>
        <pt x="940" y="70" on="0"/>
        <pt x="947" y="22" on="0"/>
        <pt x="932" y="-8" on="0"/>
        <pt x="903" y="-14" on="0"/>
        <pt x="885" y="0" on="1"/>
        <pt x="879" y="33" on="0"/>
        <pt x="839" y="107" on="0"/>
        <pt x="785" y="175" on="0"/>
        <pt x="758" y="199" on="1"/>
      </contour>
      <contour>
        <pt x="454" y="252" on="1"/>
        <pt x="508" y="233" on="0"/>
        <pt x="572" y="185" on="0"/>
        <pt x="603" y="138" on="0"/>
        <pt x="608" y="98" on="0"/>
        <pt x="593" y="72" on="0"/>
        <pt x="565" y="68" on="0"/>
        <pt x="548" y="80" on="1"/>
        <pt x="544" y="108" on="0"/>
        <pt x="511" y="168" on="0"/>
        <pt x="465" y="224" on="0"/>
        <pt x="443" y="244" on="1"/>
      </contour>
    </TTGlyph>
    <TTGlyph name="uni6211" xMin="40" yMin="-78" xMax="963" yMax="829">
      <contour>
        <pt x="40" y="514" on="1" overlap="1"/>
        <pt x="822" y="514" on="1"/>
        <pt x="871" y="574" on="1"/>
        <pt x="871" y="574" on="0"/>
        <pt x="889" y="561" on="0"/>
        <pt x="917" y="539" on="0"/>
        <pt x="947" y="513" on="0"/>
        <pt x="961" y="501" on="1"/>
        <pt x="957" y="485" on="0"/>
        <pt x="934" y="485" on="1"/>
        <pt x="49" y="485" on="1"/>
      </contour>
      <contour>
        <pt x="565" y="829" on="1"/>
        <pt x="668" y="817" on="1"/>
        <pt x="667" y="808" on="0"/>
        <pt x="651" y="792" on="0"/>
        <pt x="633" y="790" on="1"/>
        <pt x="632" y="671" on="0"/>
        <pt x="650" y="442" on="0"/>
        <pt x="698" y="242" on="0"/>
        <pt x="790" y="87" on="0"/>
        <pt x="863" y="40" on="1"/>
        <pt x="876" y="30" on="0"/>
        <pt x="888" y="32" on="0"/>
        <pt x="895" y="47" on="1"/>
        <pt x="904" y="65" on="0"/>
        <pt x="927" y="130" on="0"/>
        <pt x="936" y="160" on="1"/>
        <pt x="949" y="157" on="1"/>
        <pt x="933" y="9" on="1"/>
        <pt x="956" y="-17" on="0"/>
        <pt x="963" y="-43" on="0"/>
        <pt x="958" y="-51" on="1"/>
        <pt x="950" y="-63" on="0"/>
        <pt x="921" y="-67" on="0"/>
        <pt x="886" y="-57" on="0"/>
        <pt x="849" y="-37" on="0"/>
        <pt x="832" y="-24" on="1"/>
        <pt x="750" y="31" on="0"/>
        <pt x="646" y="203" on="0"/>
        <pt x="588" y="423" on="0"/>
        <pt x="565" y="685" on="0"/>
      </contour>
      <contour>
        <pt x="703" y="777" on="1"/>
        <pt x="759" y="760" on="0"/>
        <pt x="827" y="717" on="0"/>
        <pt x="861" y="673" on="0"/>
        <pt x="869" y="634" on="0"/>
        <pt x="855" y="608" on="0"/>
        <pt x="828" y="603" on="0"/>
        <pt x="811" y="615" on="1"/>
        <pt x="804" y="641" on="0"/>
        <pt x="765" y="698" on="0"/>
        <pt x="717" y="751" on="0"/>
        <pt x="693" y="769" on="1"/>
      </contour>
      <contour>
        <pt x="805" y="440" on="1"/>
        <pt x="901" y="400" on="1"/>
        <pt x="897" y="391" on="0"/>
        <pt x="880" y="384" on="0"/>
        <pt x="861" y="387" on="1"/>
        <pt x="821" y="305" on="0"/>
        <pt x="688" y="139" on="0"/>
        <pt x="504" y="-3" on="0"/>
        <pt x="387" y="-49" on="1"/>
        <pt x="379" y="-35" on="1"/>
        <pt x="483" y="19" on="0"/>
        <pt x="650" y="173" on="0"/>
        <pt x="772" y="351" on="0"/>
      </contour>
      <contour>
        <pt x="43" y="255" on="1"/>
        <pt x="75" y="260" on="0"/>
        <pt x="181" y="282" on="0"/>
        <pt x="317" y="315" on="0"/>
        <pt x="471" y="353" on="0"/>
        <pt x="552" y="373" on="1"/>
        <pt x="556" y="357" on="1"/>
        <pt x="474" y="326" on="0"/>
        <pt x="250" y="244" on="0"/>
        <pt x="102" y="196" on="1"/>
        <pt x="99" y="186" on="0"/>
        <pt x="86" y="173" on="0"/>
        <pt x="80" y="171" on="1"/>
      </contour>
      <contour>
        <pt x="454" y="819" on="1"/>
        <pt x="533" y="754" on="1"/>
        <pt x="526" y="748" on="0"/>
        <pt x="501" y="747" on="0"/>
        <pt x="483" y="753" on="1"/>
        <pt x="431" y="734" on="0"/>
        <pt x="291" y="695" on="0"/>
        <pt x="134" y="662" on="0"/>
        <pt x="58" y="652" on="1"/>
        <pt x="53" y="669" on="1"/>
        <pt x="124" y="685" on="0"/>
        <pt x="277" y="737" on="0"/>
        <pt x="411" y="794" on="0"/>
      </contour>
      <contour>
        <pt x="286" y="733" on="1"/>
        <pt x="351" y="733" on="1"/>
        <pt x="351" y="23" on="1"/>
        <pt x="351" y="-3" on="0"/>
        <pt x="337" y="-46" on="0"/>
        <pt x="293" y="-73" on="0"/>
        <pt x="246" y="-78" on="1"/>
        <pt x="245" y="-63" on="0"/>
        <pt x="233" y="-36" on="0"/>
        <pt x="224" y="-29" on="1"/>
        <pt x="212" y="-19" on="0"/>
        <pt x="171" y="-8" on="0"/>
        <pt x="136" y="-3" on="1"/>
        <pt x="136" y="12" on="1"/>
        <pt x="136" y="12" on="0"/>
        <pt x="169" y="10" on="0"/>
        <pt x="214" y="6" on="0"/>
        <pt x="254" y="4" on="0"/>
        <pt x="262" y="4" on="1"/>
        <pt x="277" y="4" on="0"/>
        <pt x="286" y="14" on="0"/>
        <pt x="286" y="25" on="1"/>
      </contour>
    </TTGlyph>
    <TTGlyph name="uni6536" xMin="62" yMin="-79" xMax="976" yMax="838">
      <contour>
        <pt x="883" y="671" on="1" overlap="1"/>
        <pt x="883" y="671" on="0"/>
        <pt x="900" y="658" on="0"/>
        <pt x="926" y="636" on="0"/>
        <pt x="956" y="611" on="0"/>
        <pt x="968" y="599" on="1"/>
        <pt x="965" y="583" on="0"/>
        <pt x="942" y="583" on="1"/>
        <pt x="536" y="583" on="1"/>
        <pt x="536" y="612" on="1"/>
        <pt x="835" y="612" on="1"/>
      </contour>
      <contour>
        <pt x="661" y="813" on="1"/>
        <pt x="659" y="804" on="0"/>
        <pt x="642" y="792" on="0"/>
        <pt x="625" y="791" on="1"/>
        <pt x="592" y="647" on="0"/>
        <pt x="484" y="397" on="0"/>
        <pt x="410" y="310" on="1"/>
        <pt x="395" y="319" on="1"/>
        <pt x="430" y="385" on="0"/>
        <pt x="492" y="552" on="0"/>
        <pt x="538" y="740" on="0"/>
        <pt x="552" y="838" on="1"/>
      </contour>
      <contour>
        <pt x="867" y="612" on="1"/>
        <pt x="851" y="494" on="0"/>
        <pt x="787" y="287" on="0"/>
        <pt x="677" y="114" on="0"/>
        <pt x="510" y="-26" on="0"/>
        <pt x="392" y="-79" on="1"/>
        <pt x="382" y="-65" on="1"/>
        <pt x="518" y="14" on="0"/>
        <pt x="687" y="217" on="0"/>
        <pt x="777" y="467" on="0"/>
        <pt x="791" y="612" on="1"/>
      </contour>
      <contour>
        <pt x="530" y="591" on="1"/>
        <pt x="550" y="487" on="0"/>
        <pt x="617" y="303" on="0"/>
        <pt x="723" y="148" on="0"/>
        <pt x="873" y="26" on="0"/>
        <pt x="976" y="-15" on="1"/>
        <pt x="973" y="-25" on="1"/>
        <pt x="951" y="-28" on="0"/>
        <pt x="917" y="-53" on="0"/>
        <pt x="910" y="-77" on="1"/>
        <pt x="785" y="-12" on="0"/>
        <pt x="626" y="179" on="0"/>
        <pt x="538" y="423" on="0"/>
        <pt x="515" y="565" on="1"/>
      </contour>
      <contour>
        <pt x="77" y="202" on="1"/>
        <pt x="100" y="208" on="0"/>
        <pt x="184" y="231" on="0"/>
        <pt x="288" y="261" on="0"/>
        <pt x="341" y="278" on="1"/>
        <pt x="346" y="263" on="1"/>
        <pt x="323" y="250" on="0"/>
        <pt x="248" y="209" on="0"/>
        <pt x="157" y="161" on="0"/>
        <pt x="107" y="137" on="1"/>
      </contour>
      <contour>
        <pt x="194" y="721" on="1"/>
        <pt x="193" y="711" on="0"/>
        <pt x="175" y="697" on="0"/>
        <pt x="158" y="694" on="1"/>
        <pt x="158" y="657" on="1"/>
        <pt x="95" y="657" on="1"/>
        <pt x="95" y="716" on="1"/>
        <pt x="95" y="733" on="1"/>
      </contour>
      <contour>
        <pt x="143" y="676" on="1"/>
        <pt x="158" y="667" on="1"/>
        <pt x="158" y="194" on="1"/>
        <pt x="102" y="174" on="1"/>
        <pt x="127" y="198" on="1"/>
        <pt x="135" y="166" on="0"/>
        <pt x="109" y="127" on="0"/>
        <pt x="98" y="122" on="1"/>
        <pt x="62" y="199" on="1"/>
        <pt x="84" y="210" on="0"/>
        <pt x="95" y="224" on="0"/>
        <pt x="95" y="238" on="1"/>
        <pt x="95" y="676" on="1"/>
      </contour>
      <contour>
        <pt x="401" y="824" on="1"/>
        <pt x="400" y="814" on="0"/>
        <pt x="385" y="800" on="0"/>
        <pt x="367" y="798" on="1"/>
        <pt x="367" y="-50" on="1"/>
        <pt x="367" y="-55" on="0"/>
        <pt x="352" y="-68" on="0"/>
        <pt x="328" y="-77" on="0"/>
        <pt x="315" y="-77" on="1"/>
        <pt x="303" y="-77" on="1"/>
        <pt x="303" y="835" on="1"/>
      </contour>
    </TTGlyph>
    <TTGlyph name="uni653F" xMin="30" yMin="-79" xMax="973" yMax="837">
      <contour>
        <pt x="49" y="741" on="1" overlap="1"/>
        <pt x="391" y="741" on="1"/>
        <pt x="437" y="799" on="1"/>
        <pt x="437" y="799" on="0"/>
        <pt x="454" y="785" on="0"/>
        <pt x="481" y="764" on="0"/>
        <pt x="510" y="740" on="0"/>
        <pt x="522" y="728" on="1"/>
        <pt x="518" y="712" on="0"/>
        <pt x="496" y="712" on="1"/>
        <pt x="57" y="712" on="1"/>
      </contour>
      <contour>
        <pt x="251" y="741" on="1"/>
        <pt x="315" y="741" on="1"/>
        <pt x="315" y="114" on="1"/>
        <pt x="251" y="101" on="1"/>
      </contour>
      <contour>
        <pt x="283" y="475" on="1"/>
        <pt x="372" y="475" on="1"/>
        <pt x="416" y="532" on="1"/>
        <pt x="416" y="532" on="0"/>
        <pt x="431" y="518" on="0"/>
        <pt x="457" y="497" on="0"/>
        <pt x="484" y="472" on="0"/>
        <pt x="495" y="461" on="1"/>
        <pt x="491" y="445" on="0"/>
        <pt x="469" y="445" on="1"/>
        <pt x="283" y="445" on="1"/>
      </contour>
      <contour>
        <pt x="95" y="562" on="1"/>
        <pt x="182" y="552" on="1"/>
        <pt x="181" y="544" on="0"/>
        <pt x="169" y="532" on="0"/>
        <pt x="154" y="530" on="1"/>
        <pt x="154" y="71" on="1"/>
        <pt x="95" y="56" on="1"/>
      </contour>
      <contour>
        <pt x="30" y="72" on="1"/>
        <pt x="61" y="78" on="0"/>
        <pt x="164" y="102" on="0"/>
        <pt x="295" y="135" on="0"/>
        <pt x="446" y="175" on="0"/>
        <pt x="524" y="196" on="1"/>
        <pt x="528" y="180" on="1"/>
        <pt x="453" y="149" on="0"/>
        <pt x="240" y="62" on="0"/>
        <pt x="96" y="9" on="1"/>
        <pt x="90" y="-10" on="0"/>
        <pt x="74" y="-15" on="1"/>
      </contour>
      <contour>
        <pt x="557" y="597" on="1"/>
        <pt x="575" y="493" on="0"/>
        <pt x="636" y="306" on="0"/>
        <pt x="734" y="149" on="0"/>
        <pt x="876" y="24" on="0"/>
        <pt x="973" y="-17" on="1"/>
        <pt x="970" y="-27" on="1"/>
        <pt x="947" y="-30" on="0"/>
        <pt x="914" y="-55" on="0"/>
        <pt x="907" y="-78" on="1"/>
        <pt x="788" y="-12" on="0"/>
        <pt x="642" y="183" on="0"/>
        <pt x="562" y="429" on="0"/>
        <pt x="542" y="570" on="1"/>
      </contour>
      <contour>
        <pt x="790" y="613" on="1"/>
        <pt x="867" y="613" on="1"/>
        <pt x="850" y="488" on="0"/>
        <pt x="781" y="277" on="0"/>
        <pt x="660" y="105" on="0"/>
        <pt x="474" y="-30" on="0"/>
        <pt x="341" y="-79" on="1"/>
        <pt x="333" y="-65" on="1"/>
        <pt x="448" y="-10" on="0"/>
        <pt x="611" y="130" on="0"/>
        <pt x="718" y="299" on="0"/>
        <pt x="778" y="499" on="0"/>
      </contour>
      <contour>
        <pt x="588" y="837" on="1"/>
        <pt x="697" y="813" on="1"/>
        <pt x="694" y="803" on="0"/>
        <pt x="676" y="791" on="0"/>
        <pt x="659" y="790" on="1"/>
        <pt x="628" y="660" on="0"/>
        <pt x="522" y="441" on="0"/>
        <pt x="451" y="366" on="1"/>
        <pt x="437" y="376" on="1"/>
        <pt x="471" y="434" on="0"/>
        <pt x="531" y="581" on="0"/>
        <pt x="576" y="749" on="0"/>
      </contour>
      <contour>
        <pt x="555" y="613" on="1"/>
        <pt x="833" y="613" on="1"/>
        <pt x="880" y="673" on="1"/>
        <pt x="880" y="673" on="0"/>
        <pt x="897" y="659" on="0"/>
        <pt x="924" y="637" on="0"/>
        <pt x="953" y="612" on="0"/>
        <pt x="966" y="600" on="1"/>
        <pt x="963" y="584" on="0"/>
        <pt x="940" y="584" on="1"/>
        <pt x="555" y="584" on="1"/>
      </contour>
    </TTGlyph>
    <TTGlyph name="uni65B0" xMin="31" yMin="-79" xMax="970" yMax="845">
      <contour>
        <pt x="309" y="-58" on="1" overlap="1"/>
        <pt x="309" y="-61" on="0"/>
        <pt x="280" y="-78" on="0"/>
        <pt x="256" y="-78" on="1"/>
        <pt x="246" y="-78" on="1"/>
        <pt x="246" y="469" on="1"/>
        <pt x="309" y="469" on="1"/>
      </contour>
      <contour>
        <pt x="231" y="225" on="1"/>
        <pt x="227" y="217" on="0"/>
        <pt x="211" y="210" on="0"/>
        <pt x="194" y="212" on="1"/>
        <pt x="179" y="179" on="0"/>
        <pt x="135" y="100" on="0"/>
        <pt x="78" y="22" on="0"/>
        <pt x="43" y="-8" on="1"/>
        <pt x="31" y="4" on="1"/>
        <pt x="57" y="40" on="0"/>
        <pt x="99" y="133" on="0"/>
        <pt x="128" y="226" on="0"/>
        <pt x="136" y="264" on="1"/>
      </contour>
      <contour>
        <pt x="210" y="845" on="1"/>
        <pt x="255" y="830" on="0"/>
        <pt x="308" y="793" on="0"/>
        <pt x="331" y="755" on="0"/>
        <pt x="329" y="723" on="0"/>
        <pt x="312" y="702" on="0"/>
        <pt x="284" y="700" on="0"/>
        <pt x="269" y="712" on="1"/>
        <pt x="263" y="743" on="0"/>
        <pt x="221" y="815" on="0"/>
        <pt x="199" y="838" on="1"/>
      </contour>
      <contour>
        <pt x="828" y="-58" on="1"/>
        <pt x="827" y="-61" on="0"/>
        <pt x="798" y="-79" on="0"/>
        <pt x="773" y="-79" on="1"/>
        <pt x="763" y="-79" on="1"/>
        <pt x="763" y="484" on="1"/>
        <pt x="828" y="484" on="1"/>
      </contour>
      <contour>
        <pt x="939" y="755" on="1"/>
        <pt x="932" y="748" on="0"/>
        <pt x="908" y="748" on="0"/>
        <pt x="891" y="754" on="1"/>
        <pt x="855" y="741" on="0"/>
        <pt x="755" y="715" on="0"/>
        <pt x="647" y="694" on="0"/>
        <pt x="594" y="686" on="1"/>
        <pt x="589" y="703" on="1"/>
        <pt x="637" y="717" on="0"/>
        <pt x="740" y="758" on="0"/>
        <pt x="831" y="802" on="0"/>
        <pt x="860" y="820" on="1"/>
      </contour>
      <contour>
        <pt x="649" y="712" on="1"/>
        <pt x="645" y="703" on="0"/>
        <pt x="627" y="701" on="1"/>
        <pt x="627" y="419" on="1"/>
        <pt x="627" y="356" on="0"/>
        <pt x="616" y="223" on="0"/>
        <pt x="582" y="91" on="0"/>
        <pt x="509" y="-29" on="0"/>
        <pt x="446" y="-79" on="1"/>
        <pt x="432" y="-66" on="1"/>
        <pt x="490" y="2" on="0"/>
        <pt x="546" y="160" on="0"/>
        <pt x="563" y="331" on="0"/>
        <pt x="563" y="419" on="1"/>
        <pt x="563" y="741" on="1"/>
      </contour>
      <contour>
        <pt x="883" y="547" on="1"/>
        <pt x="883" y="547" on="0"/>
        <pt x="900" y="532" on="0"/>
        <pt x="927" y="510" on="0"/>
        <pt x="957" y="485" on="0"/>
        <pt x="970" y="472" on="1"/>
        <pt x="968" y="464" on="0"/>
        <pt x="954" y="456" on="0"/>
        <pt x="944" y="456" on="1"/>
        <pt x="584" y="456" on="1"/>
        <pt x="584" y="486" on="1"/>
        <pt x="835" y="486" on="1"/>
      </contour>
      <contour>
        <pt x="470" y="632" on="1"/>
        <pt x="467" y="624" on="0"/>
        <pt x="448" y="613" on="0"/>
        <pt x="432" y="614" on="1"/>
        <pt x="414" y="580" on="0"/>
        <pt x="357" y="496" on="0"/>
        <pt x="327" y="461" on="1"/>
        <pt x="307" y="461" on="1"/>
        <pt x="320" y="489" on="0"/>
        <pt x="345" y="560" on="0"/>
        <pt x="366" y="633" on="0"/>
        <pt x="373" y="663" on="1"/>
      </contour>
      <contour>
        <pt x="133" y="654" on="1"/>
        <pt x="173" y="631" on="0"/>
        <pt x="219" y="583" on="0"/>
        <pt x="238" y="539" on="0"/>
        <pt x="235" y="505" on="0"/>
        <pt x="217" y="484" on="0"/>
        <pt x="192" y="484" on="0"/>
        <pt x="178" y="497" on="1"/>
        <pt x="175" y="534" on="0"/>
        <pt x="139" y="619" on="0"/>
        <pt x="120" y="648" on="1"/>
      </contour>
      <contour>
        <pt x="358" y="250" on="1"/>
        <pt x="406" y="226" on="0"/>
        <pt x="461" y="172" on="0"/>
        <pt x="485" y="122" on="0"/>
        <pt x="486" y="82" on="0"/>
        <pt x="469" y="56" on="0"/>
        <pt x="442" y="53" on="0"/>
        <pt x="427" y="66" on="1"/>
        <pt x="425" y="96" on="0"/>
        <pt x="400" y="160" on="0"/>
        <pt x="364" y="221" on="0"/>
        <pt x="346" y="244" on="1"/>
      </contour>
      <contour>
        <pt x="469" y="536" on="1"/>
        <pt x="469" y="536" on="0"/>
        <pt x="498" y="513" on="0"/>
        <pt x="537" y="481" on="0"/>
        <pt x="552" y="465" on="1"/>
        <pt x="548" y="449" on="0"/>
        <pt x="526" y="449" on="1"/>
        <pt x="39" y="449" on="1"/>
        <pt x="31" y="479" on="1"/>
        <pt x="424" y="479" on="1"/>
      </contour>
      <contour>
        <pt x="457" y="382" on="1"/>
        <pt x="457" y="382" on="0"/>
        <pt x="483" y="360" on="0"/>
        <pt x="520" y="329" on="0"/>
        <pt x="535" y="314" on="1"/>
        <pt x="532" y="298" on="0"/>
        <pt x="509" y="298" on="1"/>
        <pt x="52" y="298" on="1"/>
        <pt x="44" y="328" on="1"/>
        <pt x="415" y="328" on="1"/>
      </contour>
      <contour>
        <pt x="448" y="753" on="1"/>
        <pt x="448" y="753" on="0"/>
        <pt x="475" y="731" on="0"/>
        <pt x="513" y="699" on="0"/>
        <pt x="528" y="684" on="1"/>
        <pt x="524" y="668" on="0"/>
        <pt x="502" y="668" on="1"/>
        <pt x="54" y="668" on="1"/>
        <pt x="46" y="697" on="1"/>
        <pt x="405" y="697" on="1"/>
      </contour>
    </TTGlyph>
    <TTGlyph name="uni65B7" xMin="50" yMin="-80" xMax="971" yMax="837">
      <contour>
        <pt x="358" y="132" on="1" overlap="1"/>
        <pt x="383" y="134" on="0"/>
        <pt x="473" y="142" on="0"/>
        <pt x="519" y="147" on="1"/>
        <pt x="520" y="131" on="1"/>
        <pt x="509" y="126" on="0"/>
        <pt x="461" y="109" on="0"/>
        <pt x="404" y="91" on="0"/>
        <pt x="377" y="83" on="1"/>
      </contour>
      <contour>
        <pt x="557" y="291" on="1"/>
        <pt x="553" y="284" on="0"/>
        <pt x="525" y="275" on="0"/>
        <pt x="502" y="286" on="1"/>
        <pt x="528" y="292" on="1"/>
        <pt x="513" y="267" on="0"/>
        <pt x="465" y="202" on="0"/>
        <pt x="410" y="138" on="0"/>
        <pt x="383" y="113" on="1"/>
        <pt x="382" y="126" on="1"/>
        <pt x="414" y="126" on="1"/>
        <pt x="411" y="101" on="0"/>
        <pt x="395" y="69" on="0"/>
        <pt x="385" y="65" on="1"/>
        <pt x="349" y="136" on="1"/>
        <pt x="349" y="136" on="0"/>
        <pt x="365" y="141" on="0"/>
        <pt x="369" y="143" on="1"/>
        <pt x="391" y="163" on="0"/>
        <pt x="438" y="234" on="0"/>
        <pt x="477" y="309" on="0"/>
        <pt x="487" y="334" on="1"/>
      </contour>
      <contour>
        <pt x="509" y="369" on="1"/>
        <pt x="505" y="362" on="0"/>
        <pt x="478" y="352" on="0"/>
        <pt x="454" y="362" on="1"/>
        <pt x="480" y="368" on="1"/>
        <pt x="463" y="341" on="0"/>
        <pt x="405" y="273" on="0"/>
        <pt x="378" y="248" on="1"/>
        <pt x="377" y="261" on="1"/>
        <pt x="408" y="261" on="1"/>
        <pt x="405" y="236" on="0"/>
        <pt x="385" y="206" on="0"/>
        <pt x="375" y="202" on="1"/>
        <pt x="346" y="271" on="1"/>
        <pt x="346" y="271" on="0"/>
        <pt x="360" y="276" on="0"/>
        <pt x="364" y="277" on="1"/>
        <pt x="379" y="290" on="0"/>
        <pt x="408" y="339" on="0"/>
        <pt x="433" y="392" on="0"/>
        <pt x="439" y="409" on="1"/>
      </contour>
      <contour>
        <pt x="355" y="269" on="1"/>
        <pt x="376" y="269" on="0"/>
        <pt x="450" y="272" on="0"/>
        <pt x="485" y="274" on="1"/>
        <pt x="486" y="258" on="1"/>
        <pt x="478" y="254" on="0"/>
        <pt x="440" y="240" on="0"/>
        <pt x="395" y="225" on="0"/>
        <pt x="375" y="219" on="1"/>
      </contour>
      <contour>
        <pt x="485" y="213" on="1"/>
        <pt x="517" y="190" on="0"/>
        <pt x="546" y="144" on="0"/>
        <pt x="551" y="106" on="0"/>
        <pt x="539" y="80" on="0"/>
        <pt x="516" y="76" on="0"/>
        <pt x="506" y="88" on="1"/>
        <pt x="509" y="117" on="0"/>
        <pt x="487" y="185" on="0"/>
        <pt x="471" y="207" on="1"/>
      </contour>
      <contour>
        <pt x="161" y="127" on="1"/>
        <pt x="185" y="127" on="0"/>
        <pt x="275" y="133" on="0"/>
        <pt x="321" y="136" on="1"/>
        <pt x="321" y="120" on="1"/>
        <pt x="309" y="115" on="0"/>
        <pt x="263" y="100" on="0"/>
        <pt x="205" y="84" on="0"/>
        <pt x="179" y="78" on="1"/>
      </contour>
      <contour>
        <pt x="363" y="288" on="1"/>
        <pt x="359" y="281" on="0"/>
        <pt x="330" y="272" on="0"/>
        <pt x="307" y="283" on="1"/>
        <pt x="334" y="289" on="1"/>
        <pt x="318" y="263" on="0"/>
        <pt x="267" y="199" on="0"/>
        <pt x="209" y="135" on="0"/>
        <pt x="181" y="110" on="1"/>
        <pt x="180" y="123" on="1"/>
        <pt x="211" y="123" on="1"/>
        <pt x="208" y="99" on="0"/>
        <pt x="191" y="67" on="0"/>
        <pt x="182" y="64" on="1"/>
        <pt x="146" y="133" on="1"/>
        <pt x="146" y="133" on="0"/>
        <pt x="163" y="137" on="0"/>
        <pt x="166" y="139" on="1"/>
        <pt x="191" y="159" on="0"/>
        <pt x="241" y="231" on="0"/>
        <pt x="283" y="305" on="0"/>
        <pt x="294" y="330" on="1"/>
      </contour>
      <contour>
        <pt x="318" y="367" on="1"/>
        <pt x="314" y="360" on="0"/>
        <pt x="287" y="350" on="0"/>
        <pt x="262" y="360" on="1"/>
        <pt x="289" y="365" on="1"/>
        <pt x="272" y="339" on="0"/>
        <pt x="210" y="273" on="0"/>
        <pt x="182" y="249" on="1"/>
        <pt x="181" y="261" on="1"/>
        <pt x="212" y="261" on="1"/>
        <pt x="208" y="236" on="0"/>
        <pt x="189" y="206" on="0"/>
        <pt x="178" y="202" on="1"/>
        <pt x="150" y="272" on="1"/>
        <pt x="150" y="272" on="0"/>
        <pt x="164" y="276" on="0"/>
        <pt x="167" y="277" on="1"/>
        <pt x="183" y="289" on="0"/>
        <pt x="215" y="338" on="0"/>
        <pt x="241" y="390" on="0"/>
        <pt x="248" y="406" on="1"/>
      </contour>
      <contour>
        <pt x="161" y="269" on="1"/>
        <pt x="182" y="269" on="0"/>
        <pt x="256" y="271" on="0"/>
        <pt x="291" y="274" on="1"/>
        <pt x="292" y="257" on="1"/>
        <pt x="284" y="253" on="0"/>
        <pt x="246" y="239" on="0"/>
        <pt x="201" y="225" on="0"/>
        <pt x="181" y="218" on="1"/>
      </contour>
      <contour>
        <pt x="283" y="190" on="1"/>
        <pt x="315" y="168" on="0"/>
        <pt x="344" y="124" on="0"/>
        <pt x="347" y="87" on="0"/>
        <pt x="334" y="64" on="0"/>
        <pt x="313" y="61" on="0"/>
        <pt x="302" y="73" on="1"/>
        <pt x="305" y="100" on="0"/>
        <pt x="285" y="164" on="0"/>
        <pt x="269" y="184" on="1"/>
      </contour>
      <contour>
        <pt x="361" y="534" on="1"/>
        <pt x="386" y="534" on="0"/>
        <pt x="476" y="537" on="0"/>
        <pt x="521" y="540" on="1"/>
        <pt x="522" y="523" on="1"/>
        <pt x="510" y="519" on="0"/>
        <pt x="463" y="505" on="0"/>
        <pt x="405" y="490" on="0"/>
        <pt x="378" y="484" on="1"/>
      </contour>
      <contour>
        <pt x="574" y="703" on="1"/>
        <pt x="570" y="695" on="0"/>
        <pt x="541" y="687" on="0"/>
        <pt x="518" y="698" on="1"/>
        <pt x="545" y="703" on="1"/>
        <pt x="528" y="677" on="0"/>
        <pt x="474" y="610" on="0"/>
        <pt x="412" y="544" on="0"/>
        <pt x="383" y="518" on="1"/>
        <pt x="381" y="530" on="1"/>
        <pt x="413" y="530" on="1"/>
        <pt x="410" y="505" on="0"/>
        <pt x="393" y="474" on="0"/>
        <pt x="384" y="470" on="1"/>
        <pt x="348" y="541" on="1"/>
        <pt x="348" y="541" on="0"/>
        <pt x="364" y="545" on="0"/>
        <pt x="368" y="547" on="1"/>
        <pt x="394" y="568" on="0"/>
        <pt x="447" y="642" on="0"/>
        <pt x="493" y="720" on="0"/>
        <pt x="504" y="746" on="1"/>
      </contour>
      <contour>
        <pt x="514" y="794" on="1"/>
        <pt x="510" y="786" on="0"/>
        <pt x="483" y="776" on="0"/>
        <pt x="458" y="786" on="1"/>
        <pt x="485" y="792" on="1"/>
        <pt x="468" y="763" on="0"/>
        <pt x="410" y="687" on="0"/>
        <pt x="383" y="661" on="1"/>
        <pt x="382" y="673" on="1"/>
        <pt x="413" y="673" on="1"/>
        <pt x="409" y="648" on="0"/>
        <pt x="390" y="618" on="0"/>
        <pt x="379" y="614" on="1"/>
        <pt x="350" y="683" on="1"/>
        <pt x="350" y="683" on="0"/>
        <pt x="365" y="687" on="0"/>
        <pt x="368" y="689" on="1"/>
        <pt x="383" y="703" on="0"/>
        <pt x="412" y="757" on="0"/>
        <pt x="436" y="815" on="0"/>
        <pt x="441" y="833" on="1"/>
      </contour>
      <contour>
        <pt x="359" y="678" on="1"/>
        <pt x="380" y="677" on="0"/>
        <pt x="455" y="677" on="0"/>
        <pt x="490" y="678" on="1"/>
        <pt x="491" y="661" on="1"/>
        <pt x="482" y="658" on="0"/>
        <pt x="444" y="646" on="0"/>
        <pt x="397" y="634" on="0"/>
        <pt x="376" y="629" on="1"/>
      </contour>
      <contour>
        <pt x="480" y="605" on="1"/>
        <pt x="516" y="584" on="0"/>
        <pt x="551" y="541" on="0"/>
        <pt x="559" y="503" on="0"/>
        <pt x="548" y="478" on="0"/>
        <pt x="525" y="473" on="0"/>
        <pt x="513" y="484" on="1"/>
        <pt x="514" y="513" on="0"/>
        <pt x="486" y="577" on="0"/>
        <pt x="468" y="598" on="1"/>
      </contour>
      <contour>
        <pt x="161" y="530" on="1"/>
        <pt x="185" y="529" on="0"/>
        <pt x="270" y="533" on="0"/>
        <pt x="313" y="535" on="1"/>
        <pt x="314" y="519" on="1"/>
        <pt x="303" y="515" on="0"/>
        <pt x="257" y="501" on="0"/>
        <pt x="203" y="486" on="0"/>
        <pt x="178" y="480" on="1"/>
      </contour>
      <contour>
        <pt x="372" y="698" on="1"/>
        <pt x="367" y="691" on="0"/>
        <pt x="338" y="682" on="0"/>
        <pt x="315" y="693" on="1"/>
        <pt x="342" y="699" on="1"/>
        <pt x="326" y="673" on="0"/>
        <pt x="272" y="605" on="0"/>
        <pt x="211" y="539" on="0"/>
        <pt x="182" y="514" on="1"/>
        <pt x="180" y="526" on="1"/>
        <pt x="213" y="526" on="1"/>
        <pt x="210" y="501" on="0"/>
        <pt x="193" y="469" on="0"/>
        <pt x="183" y="465" on="1"/>
        <pt x="147" y="537" on="1"/>
        <pt x="147" y="537" on="0"/>
        <pt x="163" y="541" on="0"/>
        <pt x="167" y="543" on="1"/>
        <pt x="192" y="564" on="0"/>
        <pt x="245" y="638" on="0"/>
        <pt x="289" y="716" on="0"/>
        <pt x="301" y="742" on="1"/>
      </contour>
      <contour>
        <pt x="314" y="792" on="1"/>
        <pt x="310" y="784" on="0"/>
        <pt x="282" y="774" on="0"/>
        <pt x="258" y="784" on="1"/>
        <pt x="285" y="791" on="1"/>
        <pt x="267" y="761" on="0"/>
        <pt x="209" y="685" on="0"/>
        <pt x="181" y="659" on="1"/>
        <pt x="180" y="671" on="1"/>
        <pt x="211" y="671" on="1"/>
        <pt x="207" y="646" on="0"/>
        <pt x="188" y="616" on="0"/>
        <pt x="177" y="613" on="1"/>
        <pt x="149" y="681" on="1"/>
        <pt x="149" y="681" on="0"/>
        <pt x="163" y="685" on="0"/>
        <pt x="166" y="687" on="1"/>
        <pt x="182" y="701" on="0"/>
        <pt x="211" y="755" on="0"/>
        <pt x="235" y="813" on="0"/>
        <pt x="241" y="831" on="1"/>
      </contour>
      <contour>
        <pt x="157" y="677" on="1"/>
        <pt x="178" y="676" on="0"/>
        <pt x="253" y="676" on="0"/>
        <pt x="289" y="677" on="1"/>
        <pt x="289" y="660" on="1"/>
        <pt x="281" y="657" on="0"/>
        <pt x="242" y="645" on="0"/>
        <pt x="196" y="633" on="0"/>
        <pt x="175" y="628" on="1"/>
      </contour>
      <contour>
        <pt x="170" y="802" on="1"/>
        <pt x="169" y="793" on="0"/>
        <pt x="152" y="779" on="0"/>
        <pt x="136" y="776" on="1"/>
        <pt x="136" y="736" on="1"/>
        <pt x="77" y="736" on="1"/>
        <pt x="77" y="796" on="1"/>
        <pt x="77" y="813" on="1"/>
      </contour>
      <contour>
        <pt x="122" y="781" on="1"/>
        <pt x="136" y="773" on="1"/>
        <pt x="136" y="-4" on="1"/>
        <pt x="143" y="-4" on="1"/>
        <pt x="119" y="-39" on="1"/>
        <pt x="50" y="9" on="1"/>
        <pt x="57" y="16" on="0"/>
        <pt x="84" y="32" on="0"/>
        <pt x="94" y="36" on="1"/>
        <pt x="77" y="6" on="1"/>
        <pt x="77" y="781" on="1"/>
      </contour>
      <contour>
        <pt x="488" y="66" on="1"/>
        <pt x="488" y="66" on="0"/>
        <pt x="511" y="50" on="0"/>
        <pt x="542" y="24" on="0"/>
        <pt x="555" y="12" on="1"/>
        <pt x="551" y="-4" on="0"/>
        <pt x="530" y="-4" on="1"/>
        <pt x="102" y="-4" on="1"/>
        <pt x="102" y="25" on="1"/>
        <pt x="453" y="25" on="1"/>
      </contour>
      <contour>
        <pt x="526" y="482" on="1"/>
        <pt x="526" y="482" on="0"/>
        <pt x="549" y="465" on="0"/>
        <pt x="581" y="440" on="0"/>
        <pt x="593" y="427" on="1"/>
        <pt x="590" y="411" on="0"/>
        <pt x="568" y="411" on="1"/>
        <pt x="102" y="411" on="1"/>
        <pt x="102" y="441" on="1"/>
        <pt x="490" y="441" on="1"/>
      </contour>
      <contour>
        <pt x="275" y="595" on="1"/>
        <pt x="310" y="573" on="0"/>
        <pt x="343" y="526" on="0"/>
        <pt x="349" y="487" on="0"/>
        <pt x="337" y="461" on="0"/>
        <pt x="314" y="457" on="0"/>
        <pt x="302" y="469" on="1"/>
        <pt x="305" y="499" on="0"/>
        <pt x="279" y="567" on="0"/>
        <pt x="263" y="588" on="1"/>
      </contour>
      <contour>
        <pt x="853" y="-58" on="1"/>
        <pt x="853" y="-62" on="0"/>
        <pt x="825" y="-79" on="0"/>
        <pt x="801" y="-79" on="1"/>
        <pt x="792" y="-79" on="1"/>
        <pt x="792" y="490" on="1"/>
        <pt x="853" y="490" on="1"/>
      </contour>
      <contour>
        <pt x="953" y="763" on="1"/>
        <pt x="938" y="750" on="0"/>
        <pt x="902" y="764" on="1"/>
        <pt x="868" y="756" on="0"/>
        <pt x="778" y="741" on="0"/>
        <pt x="680" y="729" on="0"/>
        <pt x="634" y="725" on="1"/>
        <pt x="629" y="741" on="1"/>
        <pt x="671" y="753" on="0"/>
        <pt x="763" y="787" on="0"/>
        <pt x="846" y="822" on="0"/>
        <pt x="872" y="837" on="1"/>
      </contour>
      <contour>
        <pt x="674" y="751" on="1"/>
        <pt x="669" y="743" on="0"/>
        <pt x="652" y="741" on="1"/>
        <pt x="652" y="383" on="1"/>
        <pt x="652" y="320" on="0"/>
        <pt x="644" y="192" on="0"/>
        <pt x="613" y="71" on="0"/>
        <pt x="548" y="-36" on="0"/>
        <pt x="492" y="-80" on="1"/>
        <pt x="476" y="-68" on="1"/>
        <pt x="529" y="-9" on="0"/>
        <pt x="577" y="135" on="0"/>
        <pt x="592" y="296" on="0"/>
        <pt x="592" y="383" on="1"/>
        <pt x="592" y="782" on="1"/>
      </contour>
      <contour>
        <pt x="888" y="566" on="1"/>
        <pt x="888" y="566" on="0"/>
        <pt x="904" y="553" on="0"/>
        <pt x="930" y="532" on="0"/>
        <pt x="959" y="507" on="0"/>
        <pt x="971" y="496" on="1"/>
        <pt x="967" y="480" on="0"/>
        <pt x="944" y="480" on="1"/>
        <pt x="623" y="480" on="1"/>
        <pt x="623" y="510" on="1"/>
        <pt x="844" y="510" on="1"/>
      </contour>
    </TTGlyph>
    <TTGlyph name="uni65E2" xMin="71" yMin="-73" xMax="957" yMax="832">
      <contour>
        <pt x="579" y="761" on="1" overlap="1"/>
        <pt x="576" y="727" on="0"/>
        <pt x="564" y="635" on="0"/>
        <pt x="550" y="534" on="0"/>
        <pt x="534" y="439" on="0"/>
        <pt x="527" y="403" on="1"/>
        <pt x="537" y="403" on="1"/>
        <pt x="505" y="370" on="1"/>
        <pt x="434" y="424" on="1"/>
        <pt x="445" y="430" on="0"/>
        <pt x="477" y="444" on="0"/>
        <pt x="488" y="448" on="1"/>
        <pt x="468" y="411" on="1"/>
        <pt x="475" y="442" on="0"/>
        <pt x="490" y="535" on="0"/>
        <pt x="504" y="637" on="0"/>
        <pt x="515" y="730" on="0"/>
        <pt x="517" y="761" on="1"/>
      </contour>
      <contour>
        <pt x="143" y="746" on="1"/>
        <pt x="158" y="737" on="1"/>
        <pt x="158" y="30" on="1"/>
        <pt x="112" y="18" on="1"/>
        <pt x="140" y="42" on="1"/>
        <pt x="146" y="20" on="0"/>
        <pt x="137" y="-12" on="0"/>
        <pt x="120" y="-33" on="0"/>
        <pt x="112" y="-37" on="1"/>
        <pt x="71" y="43" on="1"/>
        <pt x="87" y="53" on="0"/>
        <pt x="96" y="67" on="0"/>
        <pt x="96" y="82" on="1"/>
        <pt x="96" y="746" on="1"/>
      </contour>
      <contour>
        <pt x="96" y="799" on="1"/>
        <pt x="170" y="765" on="1"/>
        <pt x="158" y="765" on="1"/>
        <pt x="158" y="706" on="1"/>
        <pt x="158" y="706" on="0"/>
        <pt x="127" y="706" on="0"/>
        <pt x="96" y="706" on="1"/>
        <pt x="96" y="765" on="1"/>
      </contour>
      <contour>
        <pt x="82" y="43" on="1"/>
        <pt x="108" y="54" on="0"/>
        <pt x="198" y="96" on="0"/>
        <pt x="311" y="152" on="0"/>
        <pt x="370" y="182" on="1"/>
        <pt x="377" y="169" on="1"/>
        <pt x="351" y="150" on="0"/>
        <pt x="271" y="90" on="0"/>
        <pt x="175" y="19" on="0"/>
        <pt x="122" y="-17" on="1"/>
      </contour>
      <contour>
        <pt x="337" y="765" on="1"/>
        <pt x="373" y="805" on="1"/>
        <pt x="452" y="743" on="1"/>
        <pt x="447" y="737" on="0"/>
        <pt x="424" y="727" on="0"/>
        <pt x="409" y="724" on="1"/>
        <pt x="409" y="360" on="1"/>
        <pt x="409" y="357" on="0"/>
        <pt x="391" y="347" on="0"/>
        <pt x="367" y="339" on="0"/>
        <pt x="356" y="339" on="1"/>
        <pt x="347" y="339" on="1"/>
        <pt x="347" y="765" on="1"/>
      </contour>
      <contour>
        <pt x="283" y="305" on="1"/>
        <pt x="338" y="267" on="0"/>
        <pt x="405" y="192" on="0"/>
        <pt x="437" y="123" on="0"/>
        <pt x="441" y="70" on="0"/>
        <pt x="425" y="37" on="0"/>
        <pt x="396" y="32" on="0"/>
        <pt x="379" y="47" on="1"/>
        <pt x="376" y="88" on="0"/>
        <pt x="341" y="178" on="0"/>
        <pt x="293" y="266" on="0"/>
        <pt x="270" y="299" on="1"/>
      </contour>
      <contour>
        <pt x="381" y="405" on="1"/>
        <pt x="381" y="375" on="1"/>
        <pt x="135" y="375" on="1"/>
        <pt x="135" y="405" on="1"/>
      </contour>
      <contour>
        <pt x="381" y="585" on="1"/>
        <pt x="381" y="555" on="1"/>
        <pt x="135" y="555" on="1"/>
        <pt x="135" y="585" on="1"/>
      </contour>
      <contour>
        <pt x="381" y="765" on="1"/>
        <pt x="381" y="735" on="1"/>
        <pt x="135" y="735" on="1"/>
        <pt x="135" y="765" on="1"/>
      </contour>
      <contour>
        <pt x="734" y="776" on="1"/>
        <pt x="733" y="655" on="0"/>
        <pt x="721" y="448" on="0"/>
        <pt x="685" y="268" on="0"/>
        <pt x="609" y="115" on="0"/>
        <pt x="483" y="-17" on="0"/>
        <pt x="386" y="-73" on="1"/>
        <pt x="375" y="-61" on="1"/>
        <pt x="476" y="17" on="0"/>
        <pt x="596" y="193" on="0"/>
        <pt x="653" y="396" on="0"/>
        <pt x="670" y="635" on="0"/>
        <pt x="668" y="776" on="1"/>
      </contour>
      <contour>
        <pt x="779" y="300" on="1"/>
        <pt x="776" y="279" on="0"/>
        <pt x="749" y="276" on="1"/>
        <pt x="749" y="21" on="1"/>
        <pt x="749" y="11" on="0"/>
        <pt x="758" y="5" on="0"/>
        <pt x="774" y="5" on="1"/>
        <pt x="828" y="5" on="1"/>
        <pt x="847" y="5" on="0"/>
        <pt x="873" y="5" on="0"/>
        <pt x="878" y="6" on="1"/>
        <pt x="884" y="7" on="0"/>
        <pt x="891" y="10" on="0"/>
        <pt x="893" y="17" on="1"/>
        <pt x="898" y="27" on="0"/>
        <pt x="912" y="97" on="0"/>
        <pt x="919" y="133" on="1"/>
        <pt x="931" y="133" on="1"/>
        <pt x="934" y="13" on="1"/>
        <pt x="949" y="8" on="0"/>
        <pt x="957" y="-5" on="0"/>
        <pt x="957" y="-14" on="1"/>
        <pt x="957" y="-27" on="0"/>
        <pt x="935" y="-45" on="0"/>
        <pt x="879" y="-54" on="0"/>
        <pt x="826" y="-54" on="1"/>
        <pt x="760" y="-54" on="1"/>
        <pt x="730" y="-54" on="0"/>
        <pt x="700" y="-43" on="0"/>
        <pt x="689" y="-17" on="0"/>
        <pt x="689" y="5" on="1"/>
        <pt x="689" y="310" on="1"/>
      </contour>
      <contour>
        <pt x="870" y="494" on="1"/>
        <pt x="870" y="494" on="0"/>
        <pt x="887" y="479" on="0"/>
        <pt x="913" y="457" on="0"/>
        <pt x="941" y="432" on="0"/>
        <pt x="952" y="419" on="1"/>
        <pt x="949" y="403" on="0"/>
        <pt x="926" y="403" on="1"/>
        <pt x="504" y="403" on="1"/>
        <pt x="496" y="433" on="1"/>
        <pt x="826" y="433" on="1"/>
      </contour>
      <contour>
        <pt x="845" y="832" on="1"/>
        <pt x="845" y="832" on="0"/>
        <pt x="874" y="810" on="0"/>
        <pt x="914" y="777" on="0"/>
        <pt x="930" y="762" on="1"/>
        <pt x="926" y="746" on="0"/>
        <pt x="903" y="746" on="1"/>
        <pt x="472" y="746" on="1"/>
        <pt x="464" y="776" on="1"/>
        <pt x="799" y="776" on="1"/>
      </contour>
    </TTGlyph>
    <TTGlyph name="uni660E" xMin="80" yMin="-80" xMax="945" yMax="816">
      <contour>
        <pt x="540" y="774" on="1" overlap="1"/>
        <pt x="873" y="774" on="1"/>
        <pt x="873" y="745" on="1"/>
        <pt x="540" y="745" on="1"/>
      </contour>
      <contour>
        <pt x="540" y="545" on="1"/>
        <pt x="873" y="545" on="1"/>
        <pt x="873" y="516" on="1"/>
        <pt x="540" y="516" on="1"/>
      </contour>
      <contour>
        <pt x="533" y="310" on="1"/>
        <pt x="873" y="310" on="1"/>
        <pt x="873" y="281" on="1"/>
        <pt x="533" y="281" on="1"/>
      </contour>
      <contour>
        <pt x="837" y="774" on="1"/>
        <pt x="827" y="774" on="1"/>
        <pt x="860" y="816" on="1"/>
        <pt x="945" y="753" on="1"/>
        <pt x="940" y="746" on="0"/>
        <pt x="916" y="735" on="0"/>
        <pt x="901" y="732" on="1"/>
        <pt x="901" y="20" on="1"/>
        <pt x="901" y="-6" on="0"/>
        <pt x="887" y="-46" on="0"/>
        <pt x="839" y="-73" on="0"/>
        <pt x="788" y="-78" on="1"/>
        <pt x="785" y="-62" on="0"/>
        <pt x="773" y="-37" on="0"/>
        <pt x="761" y="-29" on="1"/>
        <pt x="748" y="-20" on="0"/>
        <pt x="700" y="-8" on="0"/>
        <pt x="661" y="-3" on="1"/>
        <pt x="661" y="13" on="1"/>
        <pt x="661" y="13" on="0"/>
        <pt x="699" y="10" on="0"/>
        <pt x="752" y="7" on="0"/>
        <pt x="801" y="4" on="0"/>
        <pt x="810" y="4" on="1"/>
        <pt x="826" y="4" on="0"/>
        <pt x="837" y="15" on="0"/>
        <pt x="837" y="28" on="1"/>
      </contour>
      <contour>
        <pt x="516" y="774" on="1"/>
        <pt x="516" y="784" on="1"/>
        <pt x="516" y="807" on="1"/>
        <pt x="591" y="774" on="1"/>
        <pt x="580" y="774" on="1"/>
        <pt x="580" y="455" on="1"/>
        <pt x="580" y="396" on="0"/>
        <pt x="569" y="276" on="0"/>
        <pt x="538" y="162" on="0"/>
        <pt x="480" y="55" on="0"/>
        <pt x="384" y="-40" on="0"/>
        <pt x="315" y="-80" on="1"/>
        <pt x="301" y="-68" on="1"/>
        <pt x="369" y="-16" on="0"/>
        <pt x="454" y="101" on="0"/>
        <pt x="499" y="232" on="0"/>
        <pt x="516" y="376" on="0"/>
        <pt x="516" y="454" on="1"/>
      </contour>
      <contour>
        <pt x="80" y="758" on="1"/>
        <pt x="80" y="789" on="1"/>
        <pt x="155" y="758" on="1"/>
        <pt x="143" y="758" on="1"/>
        <pt x="143" y="116" on="1"/>
        <pt x="143" y="113" on="0"/>
        <pt x="129" y="103" on="0"/>
        <pt x="106" y="93" on="0"/>
        <pt x="90" y="93" on="1"/>
        <pt x="80" y="93" on="1"/>
      </contour>
      <contour>
        <pt x="331" y="758" on="1"/>
        <pt x="321" y="758" on="1"/>
        <pt x="357" y="798" on="1"/>
        <pt x="437" y="736" on="1"/>
        <pt x="433" y="730" on="0"/>
        <pt x="409" y="719" on="0"/>
        <pt x="394" y="715" on="1"/>
        <pt x="394" y="157" on="1"/>
        <pt x="394" y="154" on="0"/>
        <pt x="376" y="142" on="0"/>
        <pt x="352" y="133" on="0"/>
        <pt x="340" y="133" on="1"/>
        <pt x="331" y="133" on="1"/>
      </contour>
      <contour>
        <pt x="113" y="758" on="1"/>
        <pt x="359" y="758" on="1"/>
        <pt x="359" y="728" on="1"/>
        <pt x="113" y="728" on="1"/>
      </contour>
      <contour>
        <pt x="113" y="504" on="1"/>
        <pt x="359" y="504" on="1"/>
        <pt x="359" y="475" on="1"/>
        <pt x="113" y="475" on="1"/>
      </contour>
      <contour>
        <pt x="113" y="243" on="1"/>
        <pt x="359" y="243" on="1"/>
        <pt x="359" y="213" on="1"/>
        <pt x="113" y="213" on="1"/>
      </contour>
    </TTGlyph>
    <TTGlyph name="uni662F" xMin="36" yMin="-78" xMax="964" yMax="824">
      <contour>
        <pt x="256" y="645" on="1" overlap="1"/>
        <pt x="751" y="645" on="1"/>
        <pt x="751" y="616" on="1"/>
        <pt x="256" y="616" on="1"/>
      </contour>
      <contour>
        <pt x="256" y="504" on="1"/>
        <pt x="751" y="504" on="1"/>
        <pt x="751" y="475" on="1"/>
        <pt x="256" y="475" on="1"/>
      </contour>
      <contour>
        <pt x="718" y="783" on="1"/>
        <pt x="708" y="783" on="1"/>
        <pt x="746" y="824" on="1"/>
        <pt x="828" y="761" on="1"/>
        <pt x="824" y="755" on="0"/>
        <pt x="801" y="744" on="0"/>
        <pt x="785" y="741" on="1"/>
        <pt x="785" y="452" on="1"/>
        <pt x="785" y="449" on="0"/>
        <pt x="766" y="440" on="0"/>
        <pt x="740" y="431" on="0"/>
        <pt x="729" y="431" on="1"/>
        <pt x="718" y="431" on="1"/>
      </contour>
      <contour>
        <pt x="223" y="783" on="1"/>
        <pt x="223" y="816" on="1"/>
        <pt x="223" y="816" on="1"/>
        <pt x="295" y="783" on="1"/>
        <pt x="750" y="783" on="1"/>
        <pt x="750" y="754" on="1"/>
        <pt x="290" y="754" on="1"/>
        <pt x="290" y="443" on="1"/>
        <pt x="290" y="440" on="0"/>
        <pt x="273" y="429" on="0"/>
        <pt x="247" y="422" on="0"/>
        <pt x="233" y="422" on="1"/>
        <pt x="223" y="422" on="1"/>
      </contour>
      <contour>
        <pt x="46" y="387" on="1"/>
        <pt x="817" y="387" on="1"/>
        <pt x="865" y="448" on="1"/>
        <pt x="865" y="448" on="0"/>
        <pt x="883" y="434" on="0"/>
        <pt x="911" y="411" on="0"/>
        <pt x="941" y="385" on="0"/>
        <pt x="954" y="373" on="1"/>
        <pt x="950" y="358" on="0"/>
        <pt x="928" y="358" on="1"/>
        <pt x="55" y="358" on="1"/>
      </contour>
      <contour>
        <pt x="468" y="387" on="1"/>
        <pt x="535" y="387" on="1"/>
        <pt x="535" y="-15" on="1"/>
        <pt x="468" y="2" on="1"/>
      </contour>
      <contour>
        <pt x="500" y="219" on="1"/>
        <pt x="730" y="219" on="1"/>
        <pt x="778" y="281" on="1"/>
        <pt x="778" y="281" on="0"/>
        <pt x="796" y="266" on="0"/>
        <pt x="824" y="244" on="0"/>
        <pt x="854" y="218" on="0"/>
        <pt x="867" y="206" on="1"/>
        <pt x="863" y="190" on="0"/>
        <pt x="840" y="190" on="1"/>
        <pt x="500" y="190" on="1"/>
      </contour>
      <contour>
        <pt x="267" y="308" on="1"/>
        <pt x="371" y="283" on="1"/>
        <pt x="367" y="273" on="0"/>
        <pt x="349" y="262" on="0"/>
        <pt x="332" y="263" on="1"/>
        <pt x="313" y="201" on="0"/>
        <pt x="243" y="74" on="0"/>
        <pt x="129" y="-37" on="0"/>
        <pt x="46" y="-78" on="1"/>
        <pt x="36" y="-66" on="1"/>
        <pt x="104" y="-19" on="0"/>
        <pt x="197" y="105" on="0"/>
        <pt x="253" y="243" on="0"/>
      </contour>
      <contour>
        <pt x="275" y="193" on="1"/>
        <pt x="299" y="132" on="0"/>
        <pt x="364" y="57" on="0"/>
        <pt x="450" y="19" on="0"/>
        <pt x="563" y="6" on="0"/>
        <pt x="635" y="6" on="1"/>
        <pt x="663" y="6" on="0"/>
        <pt x="750" y="6" on="0"/>
        <pt x="846" y="6" on="0"/>
        <pt x="935" y="7" on="0"/>
        <pt x="964" y="8" on="1"/>
        <pt x="964" y="-6" on="1"/>
        <pt x="946" y="-8" on="0"/>
        <pt x="927" y="-35" on="0"/>
        <pt x="925" y="-54" on="1"/>
        <pt x="901" y="-54" on="0"/>
        <pt x="825" y="-54" on="0"/>
        <pt x="738" y="-54" on="0"/>
        <pt x="659" y="-54" on="0"/>
        <pt x="632" y="-54" on="1"/>
        <pt x="557" y="-54" on="0"/>
        <pt x="441" y="-35" on="0"/>
        <pt x="353" y="16" on="0"/>
        <pt x="286" y="110" on="0"/>
        <pt x="261" y="185" on="1"/>
      </contour>
    </TTGlyph>
    <TTGlyph name="uni6642" xMin="83" yMin="-76" xMax="969" yMax="835">
      <contour>
        <pt x="317" y="146" on="1" overlap="1"/>
        <pt x="317" y="116" on="1"/>
        <pt x="113" y="116" on="1"/>
        <pt x="113" y="146" on="1"/>
      </contour>
      <contour>
        <pt x="316" y="437" on="1"/>
        <pt x="316" y="408" on="1"/>
        <pt x="112" y="408" on="1"/>
        <pt x="112" y="437" on="1"/>
      </contour>
      <contour>
        <pt x="318" y="734" on="1"/>
        <pt x="318" y="704" on="1"/>
        <pt x="115" y="704" on="1"/>
        <pt x="115" y="734" on="1"/>
      </contour>
      <contour>
        <pt x="275" y="734" on="1"/>
        <pt x="312" y="774" on="1"/>
        <pt x="391" y="712" on="1"/>
        <pt x="387" y="706" on="0"/>
        <pt x="362" y="696" on="0"/>
        <pt x="347" y="693" on="1"/>
        <pt x="347" y="72" on="1"/>
        <pt x="347" y="69" on="0"/>
        <pt x="330" y="58" on="0"/>
        <pt x="306" y="49" on="0"/>
        <pt x="295" y="49" on="1"/>
        <pt x="285" y="49" on="1"/>
        <pt x="285" y="734" on="1"/>
      </contour>
      <contour>
        <pt x="83" y="771" on="1"/>
        <pt x="157" y="734" on="1"/>
        <pt x="144" y="734" on="1"/>
        <pt x="144" y="29" on="1"/>
        <pt x="144" y="25" on="0"/>
        <pt x="116" y="7" on="0"/>
        <pt x="92" y="7" on="1"/>
        <pt x="83" y="7" on="1"/>
        <pt x="83" y="734" on="1"/>
      </contour>
      <contour>
        <pt x="437" y="276" on="1"/>
        <pt x="493" y="256" on="0"/>
        <pt x="560" y="208" on="0"/>
        <pt x="592" y="159" on="0"/>
        <pt x="595" y="118" on="0"/>
        <pt x="578" y="91" on="0"/>
        <pt x="547" y="87" on="0"/>
        <pt x="529" y="100" on="1"/>
        <pt x="525" y="128" on="0"/>
        <pt x="491" y="190" on="0"/>
        <pt x="447" y="248" on="0"/>
        <pt x="426" y="269" on="1"/>
      </contour>
      <contour>
        <pt x="830" y="447" on="1"/>
        <pt x="827" y="426" on="0"/>
        <pt x="795" y="422" on="1"/>
        <pt x="795" y="21" on="1"/>
        <pt x="795" y="-7" on="0"/>
        <pt x="781" y="-47" on="0"/>
        <pt x="737" y="-71" on="0"/>
        <pt x="689" y="-76" on="1"/>
        <pt x="687" y="-60" on="0"/>
        <pt x="678" y="-36" on="0"/>
        <pt x="666" y="-28" on="1"/>
        <pt x="655" y="-19" on="0"/>
        <pt x="614" y="-8" on="0"/>
        <pt x="578" y="-3" on="1"/>
        <pt x="578" y="13" on="1"/>
        <pt x="578" y="13" on="0"/>
        <pt x="612" y="11" on="0"/>
        <pt x="658" y="7" on="0"/>
        <pt x="700" y="5" on="0"/>
        <pt x="707" y="5" on="1"/>
        <pt x="721" y="5" on="0"/>
        <pt x="731" y="14" on="0"/>
        <pt x="731" y="25" on="1"/>
        <pt x="731" y="458" on="1"/>
      </contour>
      <contour>
        <pt x="711" y="824" on="1"/>
        <pt x="710" y="814" on="0"/>
        <pt x="693" y="800" on="0"/>
        <pt x="675" y="797" on="1"/>
        <pt x="675" y="490" on="1"/>
        <pt x="610" y="490" on="1"/>
        <pt x="610" y="835" on="1"/>
      </contour>
      <contour>
        <pt x="888" y="399" on="1"/>
        <pt x="888" y="399" on="0"/>
        <pt x="916" y="376" on="0"/>
        <pt x="954" y="343" on="0"/>
        <pt x="969" y="327" on="1"/>
        <pt x="966" y="311" on="0"/>
        <pt x="943" y="311" on="1"/>
        <pt x="370" y="311" on="1"/>
        <pt x="362" y="341" on="1"/>
        <pt x="844" y="341" on="1"/>
      </contour>
      <contour>
        <pt x="829" y="566" on="1"/>
        <pt x="829" y="566" on="0"/>
        <pt x="847" y="552" on="0"/>
        <pt x="874" y="531" on="0"/>
        <pt x="903" y="505" on="0"/>
        <pt x="916" y="493" on="1"/>
        <pt x="912" y="477" on="0"/>
        <pt x="889" y="477" on="1"/>
        <pt x="425" y="477" on="1"/>
        <pt x="417" y="507" on="1"/>
        <pt x="782" y="507" on="1"/>
      </contour>
      <contour>
        <pt x="853" y="744" on="1"/>
        <pt x="853" y="744" on="0"/>
        <pt x="870" y="730" on="0"/>
        <pt x="897" y="709" on="0"/>
        <pt x="926" y="684" on="0"/>
        <pt x="938" y="672" on="1"/>
        <pt x="934" y="656" on="0"/>
        <pt x="911" y="656" on="1"/>
        <pt x="395" y="656" on="1"/>
        <pt x="387" y="686" on="1"/>
        <pt x="807" y="686" on="1"/>
      </contour>
    </TTGlyph>
    <TTGlyph name="uni671F" xMin="33" yMin="-78" xMax="962" yMax="826">
      <contour>
        <pt x="52" y="682" on="1" overlap="1"/>
        <pt x="470" y="682" on="1"/>
        <pt x="506" y="732" on="1"/>
        <pt x="506" y="732" on="0"/>
        <pt x="530" y="711" on="0"/>
        <pt x="562" y="682" on="0"/>
        <pt x="574" y="668" on="1"/>
        <pt x="571" y="652" on="0"/>
        <pt x="550" y="652" on="1"/>
        <pt x="60" y="652" on="1"/>
      </contour>
      <contour>
        <pt x="33" y="233" on="1"/>
        <pt x="471" y="233" on="1"/>
        <pt x="511" y="288" on="1"/>
        <pt x="511" y="288" on="0"/>
        <pt x="537" y="266" on="0"/>
        <pt x="571" y="234" on="0"/>
        <pt x="585" y="220" on="1"/>
        <pt x="581" y="204" on="0"/>
        <pt x="560" y="204" on="1"/>
        <pt x="41" y="204" on="1"/>
      </contour>
      <contour>
        <pt x="148" y="825" on="1"/>
        <pt x="243" y="814" on="1"/>
        <pt x="242" y="805" on="0"/>
        <pt x="227" y="792" on="0"/>
        <pt x="210" y="789" on="1"/>
        <pt x="210" y="217" on="1"/>
        <pt x="148" y="217" on="1"/>
      </contour>
      <contour>
        <pt x="391" y="826" on="1"/>
        <pt x="490" y="815" on="1"/>
        <pt x="489" y="805" on="0"/>
        <pt x="473" y="790" on="0"/>
        <pt x="454" y="787" on="1"/>
        <pt x="454" y="217" on="1"/>
        <pt x="391" y="217" on="1"/>
      </contour>
      <contour>
        <pt x="191" y="176" on="1"/>
        <pt x="286" y="134" on="1"/>
        <pt x="282" y="126" on="0"/>
        <pt x="262" y="117" on="0"/>
        <pt x="247" y="119" on="1"/>
        <pt x="209" y="52" on="0"/>
        <pt x="105" y="-47" on="0"/>
        <pt x="48" y="-78" on="1"/>
        <pt x="35" y="-65" on="1"/>
        <pt x="80" y="-27" on="0"/>
        <pt x="165" y="100" on="0"/>
      </contour>
      <contour>
        <pt x="350" y="170" on="1"/>
        <pt x="402" y="154" on="0"/>
        <pt x="464" y="111" on="0"/>
        <pt x="493" y="67" on="0"/>
        <pt x="498" y="29" on="0"/>
        <pt x="482" y="5" on="0"/>
        <pt x="454" y="0" on="0"/>
        <pt x="438" y="12" on="1"/>
        <pt x="433" y="37" on="0"/>
        <pt x="400" y="93" on="0"/>
        <pt x="359" y="144" on="0"/>
        <pt x="339" y="162" on="1"/>
      </contour>
      <contour>
        <pt x="181" y="539" on="1"/>
        <pt x="422" y="539" on="1"/>
        <pt x="422" y="510" on="1"/>
        <pt x="181" y="510" on="1"/>
      </contour>
      <contour>
        <pt x="180" y="390" on="1"/>
        <pt x="423" y="390" on="1"/>
        <pt x="423" y="361" on="1"/>
        <pt x="180" y="361" on="1"/>
      </contour>
      <contour>
        <pt x="638" y="775" on="1"/>
        <pt x="893" y="775" on="1"/>
        <pt x="893" y="746" on="1"/>
        <pt x="638" y="746" on="1"/>
      </contour>
      <contour>
        <pt x="635" y="557" on="1"/>
        <pt x="893" y="557" on="1"/>
        <pt x="893" y="527" on="1"/>
        <pt x="635" y="527" on="1"/>
      </contour>
      <contour>
        <pt x="635" y="327" on="1"/>
        <pt x="890" y="327" on="1"/>
        <pt x="890" y="299" on="1"/>
        <pt x="635" y="299" on="1"/>
      </contour>
      <contour>
        <pt x="856" y="775" on="1"/>
        <pt x="846" y="775" on="1"/>
        <pt x="879" y="817" on="1"/>
        <pt x="962" y="754" on="1"/>
        <pt x="951" y="739" on="0"/>
        <pt x="919" y="734" on="1"/>
        <pt x="919" y="20" on="1"/>
        <pt x="919" y="-6" on="0"/>
        <pt x="907" y="-46" on="0"/>
        <pt x="863" y="-70" on="0"/>
        <pt x="817" y="-76" on="1"/>
        <pt x="816" y="-60" on="0"/>
        <pt x="806" y="-35" on="0"/>
        <pt x="796" y="-27" on="1"/>
        <pt x="785" y="-19" on="0"/>
        <pt x="745" y="-7" on="0"/>
        <pt x="713" y="-3" on="1"/>
        <pt x="713" y="13" on="1"/>
        <pt x="713" y="13" on="0"/>
        <pt x="744" y="11" on="0"/>
        <pt x="786" y="8" on="0"/>
        <pt x="825" y="6" on="0"/>
        <pt x="832" y="6" on="1"/>
        <pt x="846" y="6" on="0"/>
        <pt x="856" y="16" on="0"/>
        <pt x="856" y="28" on="1"/>
      </contour>
      <contour>
        <pt x="605" y="775" on="1"/>
        <pt x="605" y="785" on="1"/>
        <pt x="605" y="808" on="1"/>
        <pt x="680" y="775" on="1"/>
        <pt x="668" y="775" on="1"/>
        <pt x="668" y="430" on="1"/>
        <pt x="668" y="362" on="0"/>
        <pt x="656" y="222" on="0"/>
        <pt x="619" y="90" on="0"/>
        <pt x="543" y="-28" on="0"/>
        <pt x="477" y="-76" on="1"/>
        <pt x="462" y="-65" on="1"/>
        <pt x="526" y="1" on="0"/>
        <pt x="586" y="158" on="0"/>
        <pt x="605" y="335" on="0"/>
        <pt x="605" y="429" on="1"/>
      </contour>
    </TTGlyph>
    <TTGlyph name="uni6837" xMin="16" yMin="-79" xMax="972" yMax="839">
      <contour>
        <pt x="255" y="489" on="1" overlap="1"/>
        <pt x="306" y="468" on="0"/>
        <pt x="367" y="420" on="0"/>
        <pt x="396" y="373" on="0"/>
        <pt x="399" y="335" on="0"/>
        <pt x="384" y="313" on="0"/>
        <pt x="357" y="309" on="0"/>
        <pt x="341" y="321" on="1"/>
        <pt x="335" y="347" on="0"/>
        <pt x="303" y="406" on="0"/>
        <pt x="263" y="461" on="0"/>
        <pt x="244" y="482" on="1"/>
      </contour>
      <contour>
        <pt x="296" y="828" on="1"/>
        <pt x="295" y="817" on="0"/>
        <pt x="280" y="803" on="0"/>
        <pt x="260" y="800" on="1"/>
        <pt x="260" y="-51" on="1"/>
        <pt x="260" y="-55" on="0"/>
        <pt x="245" y="-67" on="0"/>
        <pt x="223" y="-75" on="0"/>
        <pt x="211" y="-75" on="1"/>
        <pt x="197" y="-75" on="1"/>
        <pt x="197" y="839" on="1"/>
      </contour>
      <contour>
        <pt x="253" y="586" on="1"/>
        <pt x="226" y="457" on="0"/>
        <pt x="116" y="228" on="0"/>
        <pt x="30" y="137" on="1"/>
        <pt x="16" y="151" on="1"/>
        <pt x="60" y="213" on="0"/>
        <pt x="126" y="360" on="0"/>
        <pt x="173" y="520" on="0"/>
        <pt x="187" y="602" on="1"/>
        <pt x="253" y="602" on="1"/>
      </contour>
      <contour>
        <pt x="340" y="664" on="1"/>
        <pt x="340" y="664" on="0"/>
        <pt x="367" y="641" on="0"/>
        <pt x="406" y="608" on="0"/>
        <pt x="420" y="592" on="1"/>
        <pt x="419" y="584" on="0"/>
        <pt x="405" y="576" on="0"/>
        <pt x="394" y="576" on="1"/>
        <pt x="60" y="576" on="1"/>
        <pt x="52" y="606" on="1"/>
        <pt x="296" y="606" on="1"/>
      </contour>
      <contour>
        <pt x="882" y="799" on="1"/>
        <pt x="873" y="779" on="0"/>
        <pt x="843" y="783" on="1"/>
        <pt x="826" y="759" on="0"/>
        <pt x="780" y="700" on="0"/>
        <pt x="729" y="640" on="0"/>
        <pt x="705" y="613" on="1"/>
        <pt x="686" y="613" on="1"/>
        <pt x="700" y="645" on="0"/>
        <pt x="733" y="725" on="0"/>
        <pt x="763" y="807" on="0"/>
        <pt x="775" y="839" on="1"/>
      </contour>
      <contour>
        <pt x="460" y="834" on="1"/>
        <pt x="510" y="811" on="0"/>
        <pt x="572" y="760" on="0"/>
        <pt x="599" y="712" on="0"/>
        <pt x="600" y="671" on="0"/>
        <pt x="583" y="647" on="0"/>
        <pt x="554" y="644" on="0"/>
        <pt x="537" y="658" on="1"/>
        <pt x="532" y="685" on="0"/>
        <pt x="504" y="747" on="0"/>
        <pt x="466" y="805" on="0"/>
        <pt x="448" y="827" on="1"/>
      </contour>
      <contour>
        <pt x="687" y="-59" on="1"/>
        <pt x="687" y="-62" on="0"/>
        <pt x="657" y="-79" on="0"/>
        <pt x="633" y="-79" on="1"/>
        <pt x="623" y="-79" on="1"/>
        <pt x="623" y="629" on="1"/>
        <pt x="687" y="629" on="1"/>
      </contour>
      <contour>
        <pt x="887" y="274" on="1"/>
        <pt x="887" y="274" on="0"/>
        <pt x="904" y="260" on="0"/>
        <pt x="930" y="239" on="0"/>
        <pt x="960" y="214" on="0"/>
        <pt x="972" y="202" on="1"/>
        <pt x="968" y="186" on="0"/>
        <pt x="945" y="186" on="1"/>
        <pt x="381" y="186" on="1"/>
        <pt x="373" y="215" on="1"/>
        <pt x="841" y="215" on="1"/>
      </contour>
      <contour>
        <pt x="830" y="493" on="1"/>
        <pt x="830" y="493" on="0"/>
        <pt x="847" y="479" on="0"/>
        <pt x="873" y="458" on="0"/>
        <pt x="902" y="433" on="0"/>
        <pt x="914" y="421" on="1"/>
        <pt x="910" y="405" on="0"/>
        <pt x="887" y="405" on="1"/>
        <pt x="449" y="405" on="1"/>
        <pt x="441" y="435" on="1"/>
        <pt x="785" y="435" on="1"/>
      </contour>
      <contour>
        <pt x="858" y="686" on="1"/>
        <pt x="858" y="686" on="0"/>
        <pt x="875" y="673" on="0"/>
        <pt x="902" y="651" on="0"/>
        <pt x="931" y="627" on="0"/>
        <pt x="942" y="615" on="1"/>
        <pt x="938" y="599" on="0"/>
        <pt x="917" y="599" on="1"/>
        <pt x="426" y="599" on="1"/>
        <pt x="418" y="629" on="1"/>
        <pt x="813" y="629" on="1"/>
      </contour>
    </TTGlyph>
    <TTGlyph name="uni6A23" xMin="32" yMin="-78" xMax="974" yMax="838">
      <contour>
        <pt x="385" y="700" on="1" overlap="1"/>
        <pt x="820" y="700" on="1"/>
        <pt x="864" y="756" on="1"/>
        <pt x="864" y="756" on="0"/>
        <pt x="892" y="733" on="0"/>
        <pt x="931" y="702" on="0"/>
        <pt x="947" y="687" on="1"/>
        <pt x="943" y="671" on="0"/>
        <pt x="921" y="671" on="1"/>
        <pt x="393" y="671" on="1"/>
      </contour>
      <contour>
        <pt x="364" y="485" on="1"/>
        <pt x="829" y="485" on="1"/>
        <pt x="875" y="542" on="1"/>
        <pt x="875" y="542" on="0"/>
        <pt x="904" y="520" on="0"/>
        <pt x="943" y="487" on="0"/>
        <pt x="960" y="472" on="1"/>
        <pt x="956" y="456" on="0"/>
        <pt x="933" y="456" on="1"/>
        <pt x="371" y="456" on="1"/>
      </contour>
      <contour>
        <pt x="420" y="595" on="1"/>
        <pt x="788" y="595" on="1"/>
        <pt x="832" y="650" on="1"/>
        <pt x="832" y="650" on="0"/>
        <pt x="860" y="628" on="0"/>
        <pt x="899" y="596" on="0"/>
        <pt x="914" y="582" on="1"/>
        <pt x="910" y="566" on="0"/>
        <pt x="889" y="566" on="1"/>
        <pt x="428" y="566" on="1"/>
      </contour>
      <contour>
        <pt x="484" y="836" on="1"/>
        <pt x="527" y="825" on="0"/>
        <pt x="580" y="791" on="0"/>
        <pt x="604" y="755" on="0"/>
        <pt x="606" y="723" on="0"/>
        <pt x="590" y="701" on="0"/>
        <pt x="564" y="697" on="0"/>
        <pt x="549" y="708" on="1"/>
        <pt x="543" y="739" on="0"/>
        <pt x="496" y="807" on="0"/>
        <pt x="472" y="829" on="1"/>
      </contour>
      <contour>
        <pt x="750" y="838" on="1"/>
        <pt x="849" y="813" on="1"/>
        <pt x="846" y="804" on="0"/>
        <pt x="828" y="792" on="0"/>
        <pt x="812" y="793" on="1"/>
        <pt x="791" y="770" on="0"/>
        <pt x="735" y="711" on="0"/>
        <pt x="708" y="688" on="1"/>
        <pt x="688" y="688" on="1"/>
        <pt x="702" y="718" on="0"/>
        <pt x="738" y="805" on="0"/>
      </contour>
      <contour>
        <pt x="686" y="277" on="1"/>
        <pt x="712" y="216" on="0"/>
        <pt x="800" y="112" on="0"/>
        <pt x="912" y="37" on="0"/>
        <pt x="974" y="17" on="1"/>
        <pt x="973" y="7" on="1"/>
        <pt x="930" y="-2" on="0"/>
        <pt x="917" y="-53" on="1"/>
        <pt x="827" y="-7" on="0"/>
        <pt x="704" y="155" on="0"/>
        <pt x="670" y="269" on="1"/>
      </contour>
      <contour>
        <pt x="872" y="329" on="1"/>
        <pt x="955" y="274" on="1"/>
        <pt x="949" y="267" on="0"/>
        <pt x="933" y="262" on="0"/>
        <pt x="917" y="268" on="1"/>
        <pt x="897" y="254" on="0"/>
        <pt x="841" y="217" on="0"/>
        <pt x="780" y="179" on="0"/>
        <pt x="752" y="162" on="1"/>
        <pt x="738" y="174" on="1"/>
        <pt x="760" y="197" on="0"/>
        <pt x="811" y="254" on="0"/>
        <pt x="857" y="309" on="0"/>
      </contour>
      <contour>
        <pt x="620" y="700" on="1"/>
        <pt x="684" y="700" on="1"/>
        <pt x="684" y="469" on="1"/>
        <pt x="620" y="469" on="1"/>
      </contour>
      <contour>
        <pt x="501" y="221" on="1"/>
        <pt x="491" y="221" on="1"/>
        <pt x="532" y="259" on="1"/>
        <pt x="603" y="199" on="1"/>
        <pt x="598" y="192" on="0"/>
        <pt x="580" y="187" on="0"/>
        <pt x="564" y="186" on="1"/>
        <pt x="533" y="112" on="0"/>
        <pt x="408" y="-14" on="0"/>
        <pt x="314" y="-54" on="1"/>
        <pt x="305" y="-39" on="1"/>
        <pt x="380" y="6" on="0"/>
        <pt x="481" y="145" on="0"/>
      </contour>
      <contour>
        <pt x="531" y="434" on="1"/>
        <pt x="593" y="438" on="0"/>
        <pt x="677" y="423" on="0"/>
        <pt x="728" y="397" on="0"/>
        <pt x="749" y="368" on="0"/>
        <pt x="748" y="342" on="0"/>
        <pt x="728" y="329" on="0"/>
        <pt x="712" y="333" on="1"/>
        <pt x="691" y="354" on="0"/>
        <pt x="592" y="404" on="0"/>
        <pt x="528" y="419" on="1"/>
      </contour>
      <contour>
        <pt x="349" y="221" on="1"/>
        <pt x="537" y="221" on="1"/>
        <pt x="537" y="191" on="1"/>
        <pt x="358" y="191" on="1"/>
      </contour>
      <contour>
        <pt x="39" y="604" on="1"/>
        <pt x="285" y="604" on="1"/>
        <pt x="329" y="661" on="1"/>
        <pt x="329" y="661" on="0"/>
        <pt x="356" y="639" on="0"/>
        <pt x="393" y="605" on="0"/>
        <pt x="409" y="590" on="1"/>
        <pt x="405" y="574" on="0"/>
        <pt x="382" y="574" on="1"/>
        <pt x="47" y="574" on="1"/>
      </contour>
      <contour>
        <pt x="183" y="604" on="1"/>
        <pt x="249" y="604" on="1"/>
        <pt x="249" y="588" on="1"/>
        <pt x="226" y="462" on="0"/>
        <pt x="127" y="242" on="0"/>
        <pt x="46" y="152" on="1"/>
        <pt x="32" y="166" on="1"/>
        <pt x="73" y="227" on="0"/>
        <pt x="131" y="370" on="0"/>
        <pt x="171" y="525" on="0"/>
      </contour>
      <contour>
        <pt x="190" y="836" on="1"/>
        <pt x="289" y="826" on="1"/>
        <pt x="287" y="815" on="0"/>
        <pt x="272" y="801" on="0"/>
        <pt x="253" y="798" on="1"/>
        <pt x="253" y="-53" on="1"/>
        <pt x="253" y="-57" on="0"/>
        <pt x="238" y="-69" on="0"/>
        <pt x="215" y="-77" on="0"/>
        <pt x="203" y="-77" on="1"/>
        <pt x="190" y="-77" on="1"/>
      </contour>
      <contour>
        <pt x="253" y="447" on="1"/>
        <pt x="300" y="425" on="0"/>
        <pt x="357" y="378" on="0"/>
        <pt x="383" y="334" on="0"/>
        <pt x="384" y="298" on="0"/>
        <pt x="369" y="276" on="0"/>
        <pt x="344" y="274" on="0"/>
        <pt x="329" y="286" on="1"/>
        <pt x="323" y="310" on="0"/>
        <pt x="293" y="366" on="0"/>
        <pt x="258" y="421" on="0"/>
        <pt x="242" y="441" on="1"/>
      </contour>
      <contour>
        <pt x="624" y="319" on="1"/>
        <pt x="614" y="319" on="1"/>
        <pt x="647" y="360" on="1"/>
        <pt x="730" y="297" on="1"/>
        <pt x="725" y="292" on="0"/>
        <pt x="702" y="281" on="0"/>
        <pt x="686" y="278" on="1"/>
        <pt x="686" y="11" on="1"/>
        <pt x="686" y="-13" on="0"/>
        <pt x="674" y="-50" on="0"/>
        <pt x="633" y="-74" on="0"/>
        <pt x="589" y="-78" on="1"/>
        <pt x="587" y="-63" on="0"/>
        <pt x="579" y="-40" on="0"/>
        <pt x="568" y="-32" on="1"/>
        <pt x="558" y="-24" on="0"/>
        <pt x="522" y="-13" on="0"/>
        <pt x="490" y="-9" on="1"/>
        <pt x="490" y="7" on="1"/>
        <pt x="490" y="7" on="0"/>
        <pt x="519" y="5" on="0"/>
        <pt x="559" y="2" on="0"/>
        <pt x="596" y="0" on="0"/>
        <pt x="604" y="0" on="1"/>
        <pt x="617" y="0" on="0"/>
        <pt x="624" y="9" on="0"/>
        <pt x="624" y="20" on="1"/>
      </contour>
      <contour>
        <pt x="444" y="322" on="1"/>
        <pt x="668" y="322" on="1"/>
        <pt x="668" y="293" on="1"/>
        <pt x="450" y="293" on="1"/>
      </contour>
    </TTGlyph>
    <TTGlyph name="uni6C11" xMin="110" yMin="-78" xMax="947" yMax="817">
      <contour>
        <pt x="125" y="0" on="1" overlap="1"/>
        <pt x="159" y="10" on="0"/>
        <pt x="279" y="50" on="0"/>
        <pt x="433" y="105" on="0"/>
        <pt x="514" y="135" on="1"/>
        <pt x="519" y="120" on="1"/>
        <pt x="459" y="90" on="0"/>
        <pt x="267" y="-11" on="0"/>
        <pt x="153" y="-64" on="1"/>
      </contour>
      <contour>
        <pt x="193" y="771" on="1"/>
        <pt x="209" y="761" on="1"/>
        <pt x="209" y="-16" on="1"/>
        <pt x="149" y="-26" on="1"/>
        <pt x="175" y="-2" on="1"/>
        <pt x="181" y="-24" on="0"/>
        <pt x="171" y="-56" on="0"/>
        <pt x="154" y="-74" on="0"/>
        <pt x="147" y="-78" on="1"/>
        <pt x="110" y="-4" on="1"/>
        <pt x="132" y="7" on="0"/>
        <pt x="143" y="23" on="0"/>
        <pt x="143" y="40" on="1"/>
        <pt x="143" y="771" on="1"/>
      </contour>
      <contour>
        <pt x="143" y="810" on="1"/>
        <pt x="221" y="776" on="1"/>
        <pt x="209" y="776" on="1"/>
        <pt x="209" y="717" on="1"/>
        <pt x="209" y="717" on="0"/>
        <pt x="177" y="717" on="0"/>
        <pt x="143" y="717" on="1"/>
        <pt x="143" y="776" on="1"/>
      </contour>
      <contour>
        <pt x="517" y="542" on="1"/>
        <pt x="518" y="462" on="0"/>
        <pt x="554" y="300" on="0"/>
        <pt x="631" y="157" on="0"/>
        <pt x="753" y="48" on="0"/>
        <pt x="838" y="20" on="1"/>
        <pt x="854" y="15" on="0"/>
        <pt x="871" y="20" on="0"/>
        <pt x="876" y="31" on="1"/>
        <pt x="885" y="47" on="0"/>
        <pt x="904" y="99" on="0"/>
        <pt x="912" y="125" on="1"/>
        <pt x="926" y="123" on="1"/>
        <pt x="914" y="4" on="1"/>
        <pt x="936" y="-13" on="0"/>
        <pt x="947" y="-35" on="0"/>
        <pt x="942" y="-46" on="1"/>
        <pt x="934" y="-61" on="0"/>
        <pt x="896" y="-67" on="0"/>
        <pt x="845" y="-55" on="0"/>
        <pt x="815" y="-44" on="1"/>
        <pt x="719" y="-8" on="0"/>
        <pt x="583" y="109" on="0"/>
        <pt x="499" y="263" on="0"/>
        <pt x="456" y="444" on="0"/>
        <pt x="452" y="542" on="1"/>
      </contour>
      <contour>
        <pt x="726" y="776" on="1"/>
        <pt x="763" y="817" on="1"/>
        <pt x="845" y="754" on="1"/>
        <pt x="840" y="748" on="0"/>
        <pt x="817" y="738" on="0"/>
        <pt x="802" y="735" on="1"/>
        <pt x="802" y="494" on="1"/>
        <pt x="802" y="490" on="0"/>
        <pt x="783" y="481" on="0"/>
        <pt x="758" y="472" on="0"/>
        <pt x="746" y="472" on="1"/>
        <pt x="736" y="472" on="1"/>
        <pt x="736" y="776" on="1"/>
      </contour>
      <contour>
        <pt x="772" y="551" on="1"/>
        <pt x="772" y="521" on="1"/>
        <pt x="176" y="521" on="1"/>
        <pt x="176" y="551" on="1"/>
      </contour>
      <contour>
        <pt x="773" y="776" on="1"/>
        <pt x="773" y="747" on="1"/>
        <pt x="177" y="747" on="1"/>
        <pt x="177" y="776" on="1"/>
      </contour>
      <contour>
        <pt x="840" y="411" on="1"/>
        <pt x="840" y="411" on="0"/>
        <pt x="857" y="398" on="0"/>
        <pt x="886" y="375" on="0"/>
        <pt x="917" y="349" on="0"/>
        <pt x="930" y="337" on="1"/>
        <pt x="927" y="321" on="0"/>
        <pt x="903" y="321" on="1"/>
        <pt x="175" y="321" on="1"/>
        <pt x="175" y="351" on="1"/>
        <pt x="791" y="351" on="1"/>
      </contour>
    </TTGlyph>
</ttFont>
